<svg xmlns="http://www.w3.org/2000/svg" width="73.896" height="73.896" viewBox="0 0 73.896 73.896">
  <g id="golf-boll-obje" transform="translate(-8009.733 -5396.637)" opacity="0.21">
    <path id="パス_5430" data-name="パス 5430" d="M8046.681,5396.637a36.948,36.948,0,1,0,36.948,36.948A36.99,36.99,0,0,0,8046.681,5396.637Zm-33.8,36.948a33.771,33.771,0,0,1,59.562-21.834c-.076-.049-.152-.1-.22-.132-.1-.046-.125-.055-.146-.045-.02.082.481.513.914.835a33.659,33.659,0,0,1,6.884,14.874c-.522.32-.268,2.16.455,3.219.055.6.07,1.218.092,1.831a.934.934,0,0,0-.481-.2c-1.087.029-.949,3.274.18,4.235a1.017,1.017,0,0,0,.217.127c-.05.588-.131,1.165-.211,1.744a2.12,2.12,0,0,0-.518-.712,1.008,1.008,0,0,0-.751-.288c-.961.131-1.9,3.177-.385,4.532a.809.809,0,0,0,.914.212,33.608,33.608,0,0,1-4.376,9.984,5.076,5.076,0,0,0-.335.542,34.067,34.067,0,0,1-2.754,3.483,4.485,4.485,0,0,0-1.051,1.156,34.008,34.008,0,0,1-8.023,6.113,2.533,2.533,0,0,0,.28-.524,1.092,1.092,0,0,0-.465-1.389,2,2,0,0,0-.369-.19c-1.706-.66-4.008,1.191-3.329,2.677a1.44,1.44,0,0,0,1.263.7c-.464.2-.94.382-1.415.565a1.339,1.339,0,0,0-.333-.292,2.424,2.424,0,0,0-.5-.226c-1.279-.381-2.935.7-2.911,1.711a33.379,33.379,0,0,1-3.527.705,1.319,1.319,0,0,0,.294-.5c.095-.581-.45-.936-.682-1.087a2.4,2.4,0,0,0-.866-.32c-1.2-.184-2.383.832-1.665,1.781a2.082,2.082,0,0,0,.418.4c-.782.054-1.561.119-2.356.119a33.6,33.6,0,0,1-8.973-1.247.418.418,0,0,0,.231-.565,2,2,0,0,0-.721-.787c-.189-.1-.692-.351-.995-.218-.364.161-.291.82.614,1.346A33.857,33.857,0,0,1,8012.879,5433.585Z" fill="#fff"/>
    <path id="パス_5431" data-name="パス 5431" d="M8074.178,5447.48c-1.737-.2-3.329,2.9-2.212,4.306,1.339,1.688,3.234-.371,3.484-2.1a2.5,2.5,0,0,0-.57-1.985A2.063,2.063,0,0,0,8074.178,5447.48Z" fill="#fff"/>
    <path id="パス_5432" data-name="パス 5432" d="M8070.654,5452.787c-1.946-.45-3.864,2.368-3.035,3.726,1.1,1.806,3.6.193,4.072-1.642a2.011,2.011,0,0,0-.462-1.867A2.784,2.784,0,0,0,8070.654,5452.787Z" fill="#fff"/>
    <path id="パス_5433" data-name="パス 5433" d="M8067.166,5457.5a2.553,2.553,0,0,0-.339-.189c-1.628-.684-4.232,1.6-3.527,3.093a1.683,1.683,0,0,0,2,.84,3.3,3.3,0,0,0,2.349-2.11A1.3,1.3,0,0,0,8067.166,5457.5Z" fill="#fff"/>
    <path id="パス_5434" data-name="パス 5434" d="M8076.761,5442.231c-1.362.015-2.564,3.272-1.3,4.625,1.11,1.185,2.689-.211,2.769-2.449a2.146,2.146,0,0,0-.645-1.833A1.253,1.253,0,0,0,8076.761,5442.231Z" fill="#fff"/>
    <path id="パス_5435" data-name="パス 5435" d="M8074.872,5441.208a2.411,2.411,0,0,0-.924-1.767,1.837,1.837,0,0,0-1-.262c-1.3.108-2.392,2.8-.893,4.123C8073.838,5444.869,8074.914,5442.386,8074.872,5441.208Z" fill="#fff"/>
    <path id="パス_5436" data-name="パス 5436" d="M8067.717,5449.7a2.139,2.139,0,0,0-1.116-.418c-1.545-.084-3.3,2.373-2.212,3.708,1.393,1.711,3.79.421,4.068-1.642A1.661,1.661,0,0,0,8067.717,5449.7Z" fill="#fff"/>
    <path id="パス_5437" data-name="パス 5437" d="M8072.022,5446.412a2.049,2.049,0,0,0-1.74-2.155c-1.516-.142-3.061,2.634-1.806,4.029C8070.008,5449.988,8071.884,5448.292,8072.022,5446.412Z" fill="#fff"/>
    <path id="パス_5438" data-name="パス 5438" d="M8059.2,5458.384a3.1,3.1,0,0,0-.785-.337c-1.727-.447-3.371,1.458-2.695,2.588,1.086,1.815,3.63.83,4.087-.712A1.5,1.5,0,0,0,8059.2,5458.384Z" fill="#fff"/>
    <path id="パス_5439" data-name="パス 5439" d="M8064.369,5455.918a1.481,1.481,0,0,0-.713-1.558,2.43,2.43,0,0,0-.887-.381c-1.635-.314-3.491,1.915-2.648,3.18C8061.216,5458.8,8063.955,5458,8064.369,5455.918Z" fill="#fff"/>
    <path id="パス_5440" data-name="パス 5440" d="M8054.833,5462.32a2.645,2.645,0,0,0-.762-.334c-1.521-.377-2.923,1.172-2.338,2.125a2.2,2.2,0,0,0,2.05.886,2.075,2.075,0,0,0,1.7-1.462h0A1.2,1.2,0,0,0,8054.833,5462.32Z" fill="#fff"/>
    <path id="パス_5441" data-name="パス 5441" d="M8076.817,5435.948a2.19,2.19,0,0,0-.885-1.53,1.4,1.4,0,0,0-.983-.3c-1.039.175-1.816,2.813-.131,4.066C8075.991,5439.054,8077.111,5437.8,8076.817,5435.948Z" fill="#fff"/>
    <path id="パス_5442" data-name="パス 5442" d="M8065.889,5440.9a2.25,2.25,0,0,0-1.481,3.826c.9,1.038,3.242.462,3.389-1.625a2.019,2.019,0,0,0-.973-1.854A2.1,2.1,0,0,0,8065.889,5440.9Z" fill="#fff"/>
    <path id="パス_5443" data-name="パス 5443" d="M8053.894,5454.736c-1.438-.246-3,1.414-2.094,2.71a2.144,2.144,0,0,0,2.149.86,1.858,1.858,0,0,0,1.642-1.618,1.553,1.553,0,0,0-.747-1.547A2.511,2.511,0,0,0,8053.894,5454.736Z" fill="#fff"/>
    <path id="パス_5444" data-name="パス 5444" d="M8056.009,5453.712c1.014,1.356,3.422.608,3.736-1.16a1.8,1.8,0,0,0-.868-1.815,2.2,2.2,0,0,0-.891-.377C8056.591,5450.142,8054.633,5451.871,8056.009,5453.712Z" fill="#fff"/>
    <path id="パス_5445" data-name="パス 5445" d="M8077.156,5429.619a1.1,1.1,0,0,0-.807-.23c-1.046.233-.87,3.076.59,3.863.806.434,1.682-.422,1.161-2.217A2.448,2.448,0,0,0,8077.156,5429.619Z" fill="#fff"/>
    <path id="パス_5446" data-name="パス 5446" d="M8062.637,5450.016a2.611,2.611,0,0,0,1.484-2.015,1.944,1.944,0,0,0-.891-1.774,2.217,2.217,0,0,0-.954-.391,2.244,2.244,0,0,0-1.806,3.711A2,2,0,0,0,8062.637,5450.016Z" fill="#fff"/>
    <path id="パス_5447" data-name="パス 5447" d="M8049.849,5458.626c-1.157-.13-2.665,1.024-1.6,2.4a1.92,1.92,0,0,0,3.388-.571,1.538,1.538,0,0,0-.8-1.451A2.242,2.242,0,0,0,8049.849,5458.626Z" fill="#fff"/>
    <path id="パス_5448" data-name="パス 5448" d="M8068.694,5435.977c-1.3.093-2.3,2.479-.762,3.718,1.222.983,2.941.148,2.751-1.848a2,2,0,0,0-.905-1.543A1.785,1.785,0,0,0,8068.694,5435.977Z" fill="#fff"/>
    <path id="パス_5449" data-name="パス 5449" d="M8047.206,5462.44a2.339,2.339,0,0,0-1.028-.378c-.911-.066-2.043.9-1.117,1.926,1.163,1.289,2.866.676,2.938-.388C8048.018,5463.319,8047.9,5462.89,8047.206,5462.44Z" fill="#fff"/>
    <path id="パス_5450" data-name="パス 5450" d="M8076.462,5424.756c-.726.322.007,2.92,1.24,3.348,1.035.36.731-1.345.438-2a2.64,2.64,0,0,0-.967-1.159C8077.017,5424.85,8076.692,5424.654,8076.462,5424.756Z" fill="#fff"/>
    <path id="パス_5451" data-name="パス 5451" d="M8070.793,5434.672c1.242.841,2.231-.4,1.939-1.849a2.088,2.088,0,0,0-.949-1.369,1.4,1.4,0,0,0-1.046-.275C8069.882,5431.376,8069.125,5433.541,8070.793,5434.672Z" fill="#fff"/>
    <path id="パス_5452" data-name="パス 5452" d="M8059.287,5444.278a2.105,2.105,0,0,0-.81-1.683,2.467,2.467,0,0,0-1-.374,1.9,1.9,0,0,0-1.558,2.994A1.845,1.845,0,0,0,8059.287,5444.278Z" fill="#fff"/>
    <path id="パス_5453" data-name="パス 5453" d="M8044.082,5457.49a1.916,1.916,0,0,0,1.695.7c1.166-.228,1.214-.991,1.232-1.278a1.553,1.553,0,0,0-.713-1.309,2.208,2.208,0,0,0-1.032-.437A1.374,1.374,0,0,0,8044.082,5457.49Z" fill="#fff"/>
    <path id="パス_5454" data-name="パス 5454" d="M8049.158,5451.131a1.642,1.642,0,0,0-1.527,2.521,1.765,1.765,0,0,0,3.276-.55,2.068,2.068,0,0,0-.857-1.679A2.728,2.728,0,0,0,8049.158,5451.131Z" fill="#fff"/>
    <path id="パス_5455" data-name="パス 5455" d="M8062.031,5437.846a2.309,2.309,0,0,0-.989-.331,1.83,1.83,0,0,0-1.23,3c1.556,1.648,3,.064,3.078-1.072A1.966,1.966,0,0,0,8062.031,5437.846Z" fill="#fff"/>
    <path id="パス_5456" data-name="パス 5456" d="M8044.232,5465.363a2.092,2.092,0,0,0-1.317-.367c-.44.069-1.357.724-.176,1.673,1.143.917,2.305.4,2.213-.423C8044.9,5465.8,8044.432,5465.493,8044.232,5465.363Z" fill="#fff"/>
    <path id="パス_5457" data-name="パス 5457" d="M8065.018,5433.059a1.7,1.7,0,0,0-1.017-.3c-1.266.13-1.839,2.216-.525,3.192a1.555,1.555,0,0,0,2.5-1.419A1.842,1.842,0,0,0,8065.018,5433.059Z" fill="#fff"/>
    <path id="パス_5458" data-name="パス 5458" d="M8066.312,5431.131c1,.668,2.158.017,1.869-1.454a1.944,1.944,0,0,0-.923-1.3,1.462,1.462,0,0,0-.934-.247C8065.385,5428.288,8064.8,5430.122,8066.312,5431.131Z" fill="#fff"/>
    <path id="パス_5459" data-name="パス 5459" d="M8071.783,5428.295a2.647,2.647,0,0,0,1.166,1.649c1.018.559,1.585-.558,1.215-1.765a2.267,2.267,0,0,0-1.012-1.278,1.209,1.209,0,0,0-.865-.218C8071.7,5426.864,8071.724,5428,8071.783,5428.295Z" fill="#fff"/>
    <path id="パス_5460" data-name="パス 5460" d="M8073.278,5422.385a.99.99,0,0,0-.72-.164c-.658.251-.151,2.367,1.181,2.89.49.192,1.224-.225.55-1.6A2.579,2.579,0,0,0,8073.278,5422.385Z" fill="#fff"/>
    <path id="パス_5461" data-name="パス 5461" d="M8040.915,5460.744a1.994,1.994,0,0,0,1.572.664c.994-.147.994-.753.994-1.044a1.447,1.447,0,0,0-.7-1.164,2.153,2.153,0,0,0-1.039-.416A1.108,1.108,0,0,0,8040.915,5460.744Z" fill="#fff"/>
    <path id="パス_5462" data-name="パス 5462" d="M8075.694,5420.379c-.49.316.648,2.644,1.665,2.862.315.068.671-.435-.095-1.674a2.969,2.969,0,0,0-1.02-1.067C8076.115,5420.428,8075.847,5420.281,8075.694,5420.379Z" fill="#fff"/>
    <path id="パス_5463" data-name="パス 5463" d="M8051.584,5449.491a1.831,1.831,0,0,0,3.388-.813,1.946,1.946,0,0,0-.747-1.6,2.543,2.543,0,0,0-1.008-.422A1.857,1.857,0,0,0,8051.584,5449.491Z" fill="#fff"/>
    <path id="パス_5464" data-name="パス 5464" d="M8069.783,5424.9a2.211,2.211,0,0,0-.965-1.14,1.129,1.129,0,0,0-.728-.18c-.911.189-.619,1.981.428,2.626C8069.439,5426.777,8070.172,5426.021,8069.783,5424.9Z" fill="#fff"/>
    <path id="パス_5465" data-name="パス 5465" d="M8050.085,5444.576a1.9,1.9,0,0,0-.585-1.5,2.17,2.17,0,0,0-.851-.353,1.521,1.521,0,0,0-1.33,2.429A1.493,1.493,0,0,0,8050.085,5444.576Z" fill="#fff"/>
    <path id="パス_5466" data-name="パス 5466" d="M8054.023,5440.037a1.706,1.706,0,0,0-.711-1.523,1.49,1.49,0,0,0-.739-.319,1.566,1.566,0,0,0-1.177,2.668A1.5,1.5,0,0,0,8054.023,5440.037Z" fill="#fff"/>
    <path id="パス_5467" data-name="パス 5467" d="M8055.653,5436.133a1.4,1.4,0,0,0,2.506-.908,1.616,1.616,0,0,0-.713-1.329,1.513,1.513,0,0,0-.745-.3A1.5,1.5,0,0,0,8055.653,5436.133Z" fill="#fff"/>
    <path id="パス_5468" data-name="パス 5468" d="M8072.437,5418.291c-.142-.071-.406-.2-.544-.1-.213.156.034.891.309,1.288a2.355,2.355,0,0,0,1.273,1c.5.091.373-.7-.091-1.358A2.662,2.662,0,0,0,8072.437,5418.291Z" fill="#fff"/>
    <path id="パス_5469" data-name="パス 5469" d="M8059.1,5431.569c1.279,1.111,2.067-.224,2.041-.918a1.838,1.838,0,0,0-.775-1.25,1.557,1.557,0,0,0-.743-.224A1.345,1.345,0,0,0,8059.1,5431.569Z" fill="#fff"/>
    <path id="パス_5470" data-name="パス 5470" d="M8075.924,5418.628c.329,0-.07-.794-.495-1.3a3.669,3.669,0,0,0-.865-.744c-.129-.065-.368-.186-.459-.108-.142.124.246.832.664,1.325A2.459,2.459,0,0,0,8075.924,5418.628Z" fill="#fff"/>
    <path id="パス_5471" data-name="パス 5471" d="M8063.43,5426.039a1.518,1.518,0,0,0-.7-.962,1.134,1.134,0,1,0-.835,2.011C8062.9,5427.77,8063.61,5426.908,8063.43,5426.039Z" fill="#fff"/>
    <path id="パス_5472" data-name="パス 5472" d="M8069.026,5419.637c-.161-.083-.462-.239-.661-.146-.487.228-.085,1.849,1.158,2.236.675.21.708-.6.372-1.232A2.1,2.1,0,0,0,8069.026,5419.637Z" fill="#fff"/>
    <path id="パス_5473" data-name="パス 5473" d="M8039.841,5453.365c1.1,1.3,2.311.509,2.356-.458a1.493,1.493,0,0,0-.636-1.169,1.554,1.554,0,0,0-.859-.4A1.2,1.2,0,0,0,8039.841,5453.365Z" fill="#fff"/>
    <path id="パス_5474" data-name="パス 5474" d="M8046.078,5448.813a1.56,1.56,0,0,0-.593-1.244,1.636,1.636,0,0,0-1.017-.449,1.455,1.455,0,0,0-.829,2.558A1.388,1.388,0,0,0,8046.078,5448.813Z" fill="#fff"/>
    <path id="パス_5475" data-name="パス 5475" d="M8036.908,5457.068c1.053.946,1.845.114,1.814-.5a1.777,1.777,0,0,0-.513-.978,1.8,1.8,0,0,0-1.025-.441C8036.531,5455.171,8035.829,5456.1,8036.908,5457.068Z" fill="#fff"/>
    <path id="パス_5476" data-name="パス 5476" d="M8039.45,5462.141a1.956,1.956,0,0,0-1.066-.344c-.543.055-1.1.807-.079,1.617,1.281,1.021,1.915.192,1.848-.323A1.738,1.738,0,0,0,8039.45,5462.141Z" fill="#fff"/>
    <path id="パス_5477" data-name="パス 5477" d="M8071.849,5415.966c.375.021.042-.556-.351-.962a4.056,4.056,0,0,0-.963-.72c-.088-.021-.271-.065-.352-.008C8069.852,5414.51,8071.252,5415.932,8071.849,5415.966Z" fill="#fff"/>
    <path id="パス_5478" data-name="パス 5478" d="M8073.645,5414.641c.151,0,.016-.233-.079-.372a2.616,2.616,0,0,0-.572-.588,3.276,3.276,0,0,0-.744-.523c-.162-.075-.279-.1-.312-.055C8071.772,5413.305,8073.256,5414.641,8073.645,5414.641Z" fill="#fff"/>
    <path id="パス_5479" data-name="パス 5479" d="M8056.408,5426.915a1.071,1.071,0,0,0-.437-.789,1.12,1.12,0,0,0-.62-.249c-.707-.013-1.118,1.134-.433,1.78A.866.866,0,0,0,8056.408,5426.915Z" fill="#fff"/>
    <path id="パス_5480" data-name="パス 5480" d="M8052.745,5432.268a.869.869,0,0,0,.642-.934,1.318,1.318,0,0,0-.486-1.062.943.943,0,0,0-.5-.217,1.125,1.125,0,0,0-.755,1.981A.908.908,0,0,0,8052.745,5432.268Z" fill="#fff"/>
    <path id="パス_5481" data-name="パス 5481" d="M8033.993,5458.327c-.55.064-.664.954.156,1.548.905.656,1.383.142,1.3-.385a1.734,1.734,0,0,0-.573-.885A1.654,1.654,0,0,0,8033.993,5458.327Z" fill="#fff"/>
    <path id="パス_5482" data-name="パス 5482" d="M8040.556,5445.3a.913.913,0,0,0,.771-.94,1.2,1.2,0,0,0-.344-1.069,1.309,1.309,0,0,0-.744-.369c-.919-.1-1.443,1.193-.789,1.954A1.125,1.125,0,0,0,8040.556,5445.3Z" fill="#fff"/>
    <path id="パス_5483" data-name="パス 5483" d="M8063.717,5422.649c.594.392,1.4.034,1.068-.908a1.708,1.708,0,0,0-.747-.876.929.929,0,0,0-.576-.15c-.374.067-.484.533-.443.842A2.107,2.107,0,0,0,8063.717,5422.649Z" fill="#fff"/>
    <path id="パス_5484" data-name="パス 5484" d="M8069.079,5417.453c.3.042.295-.239.29-.3-.015-.193-.022-.281-.368-.707a2.244,2.244,0,0,0-.733-.618c-.25-.122-.445-.148-.535-.07C8067.418,5416.034,8068.346,5417.352,8069.079,5417.453Z" fill="#fff"/>
    <path id="パス_5485" data-name="パス 5485" d="M8048.782,5436.434c.706-.273.72-.579.744-1.086a1.15,1.15,0,0,0-.38-.982,1.176,1.176,0,1,0-1.579,1.74A1.083,1.083,0,0,0,8048.782,5436.434Z" fill="#fff"/>
    <path id="パス_5486" data-name="パス 5486" d="M8045.643,5439.812a1.8,1.8,0,0,0-.494-1.3,3.332,3.332,0,0,0-.524-.15c-1.182-.208-1.627,1.207-1.089,1.935A1.135,1.135,0,0,0,8045.643,5439.812Z" fill="#fff"/>
    <path id="パス_5487" data-name="パス 5487" d="M8064.222,5417.151c-.344.218.03,1.235.83,1.5.515.17.482-.461.308-.781a2.049,2.049,0,0,0-.633-.636C8064.62,5417.18,8064.369,5417.059,8064.222,5417.151Z" fill="#fff"/>
    <path id="パス_5488" data-name="パス 5488" d="M8037.42,5448.4a1.134,1.134,0,0,0-.374-.843,1.081,1.081,0,0,0-.668-.361.958.958,0,0,0-.5,1.654C8036.651,5449.715,8037.386,5449.078,8037.42,5448.4Z" fill="#fff"/>
    <path id="パス_5489" data-name="パス 5489" d="M8058.674,5422.751a1,1,0,0,0-.468-.683.764.764,0,0,0-.452-.162c-.415.035-.849.858-.091,1.456C8058.352,5423.9,8058.733,5423.206,8058.674,5422.751Z" fill="#fff"/>
    <path id="パス_5490" data-name="パス 5490" d="M8033.156,5451.082a1.245,1.245,0,0,0-.423-.17c-.482-.068-.877.6-.383,1.22.614.765,1.2.379,1.244-.141A1.371,1.371,0,0,0,8033.156,5451.082Z" fill="#fff"/>
    <path id="パス_5491" data-name="パス 5491" d="M8064.657,5414.744c.25.015.2-.28,0-.535a2,2,0,0,0-.583-.475c-.064-.03-.215-.1-.3-.032s-.092.252.141.527C8064.262,5414.639,8064.51,5414.736,8064.657,5414.744Z" fill="#fff"/>
    <path id="パス_5492" data-name="パス 5492" d="M8067.507,5413.555c.205-.005-.013-.352-.259-.584a2.771,2.771,0,0,0-.64-.435c-.08-.026-.229-.076-.285-.031C8066.114,5412.671,8067.122,5413.564,8067.507,5413.555Z" fill="#fff"/>
    <path id="パス_5493" data-name="パス 5493" d="M8059.523,5419.294c.544.288.749-.126.617-.535a1.449,1.449,0,0,0-.523-.638,1.491,1.491,0,0,0-.376.036C8058.911,5418.277,8059.032,5419.034,8059.523,5419.294Z" fill="#fff"/>
    <path id="パス_5494" data-name="パス 5494" d="M8032.757,5461.636c-.335-.256-.533-.273-.639-.243-.37.106-.216.786.532,1.189.4.214.688.036.579-.353A1.306,1.306,0,0,0,8032.757,5461.636Z" fill="#fff"/>
    <path id="パス_5495" data-name="パス 5495" d="M8069.49,5412.3c.154-.019-.172-.362-.467-.584a3.1,3.1,0,0,0-.657-.38c-.059-.016-.182-.051-.216-.02C8068,5411.457,8069.205,5412.339,8069.49,5412.3Z" fill="#fff"/>
    <path id="パス_5496" data-name="パス 5496" d="M8048.689,5427.854a.5.5,0,0,0,.371-.492.848.848,0,0,0-.23-.668.45.45,0,0,0-.272-.126.688.688,0,0,0-.489,1.174A.5.5,0,0,0,8048.689,5427.854Z" fill="#fff"/>
    <path id="パス_5497" data-name="パス 5497" d="M8069.942,5410.794c.006,0,.146-.045-.523-.47a3.105,3.105,0,0,0-.546-.3c-.12-.044-.152-.031-.161-.019A3.214,3.214,0,0,0,8069.942,5410.794Z" fill="#fff"/>
    <path id="パス_5498" data-name="パス 5498" d="M8030.4,5454.7a.7.7,0,0,0-.464-.216c-.485.024-.445.712.066,1.134a.519.519,0,0,0,.529.129c.123-.047.239-.092.207-.411h0A1.034,1.034,0,0,0,8030.4,5454.7Z" fill="#fff"/>
    <path id="パス_5499" data-name="パス 5499" d="M8044.718,5431.713c.286-.1.393-.248.443-.6a.654.654,0,0,0-.167-.576.645.645,0,0,0-.4-.2c-.513-.049-.872.732-.533,1.162A.582.582,0,0,0,8044.718,5431.713Z" fill="#fff"/>
    <path id="パス_5500" data-name="パス 5500" d="M8040.757,5435.823a.592.592,0,0,0,.464-.576.687.687,0,0,0-.136-.636.739.739,0,0,0-.4-.214c-.617-.108-.874.787-.589,1.171A.666.666,0,0,0,8040.757,5435.823Z" fill="#fff"/>
  </g>
</svg>
