<svg xmlns="http://www.w3.org/2000/svg" width="1957.018" height="694.581" viewBox="0 0 1957.018 694.581">
  <g id="f-webreservation-bg" transform="translate(2338.052 -7933.657)">
    <g id="グループ_462" data-name="グループ 462" transform="translate(-2206 426)" opacity="0.21">
      <path id="パス_4384" data-name="パス 4384" d="M625.242,7683.611c-82.463,0-149.553,67.09-149.553,149.553s67.09,149.554,149.553,149.554,149.553-67.09,149.553-149.554S707.707,7683.611,625.242,7683.611ZM488.423,7833.164c0-75.442,61.377-136.82,136.819-136.82a136.5,136.5,0,0,1,104.269,48.444c-.31-.2-.617-.391-.893-.532-.386-.187-.507-.225-.592-.182-.079.328,1.949,2.075,3.7,3.376a136.234,136.234,0,0,1,27.861,60.208c-2.112,1.295-1.082,8.74,1.842,13.028.223,2.444.284,4.93.375,7.409a3.775,3.775,0,0,0-1.947-.8c-4.4.115-3.842,13.249.729,17.139a3.84,3.84,0,0,0,.878.514c-.2,2.38-.532,4.718-.857,7.062a8.541,8.541,0,0,0-2.1-2.885,4.1,4.1,0,0,0-3.039-1.165c-3.889.531-7.712,12.86-1.56,18.346a3.284,3.284,0,0,0,3.7.857,136.078,136.078,0,0,1-17.711,40.41,20.845,20.845,0,0,0-1.357,2.2,137.557,137.557,0,0,1-11.148,14.1,18.173,18.173,0,0,0-4.253,4.68,137.591,137.591,0,0,1-32.475,24.742,10.26,10.26,0,0,0,1.134-2.119,4.42,4.42,0,0,0-1.879-5.623,7.968,7.968,0,0,0-1.5-.771c-6.9-2.672-16.22,4.822-13.472,10.838.775,1.7,2.765,2.634,5.112,2.823-1.878.826-3.806,1.545-5.727,2.287a5.432,5.432,0,0,0-1.35-1.18,9.591,9.591,0,0,0-2.03-.915c-5.178-1.543-11.882,2.832-11.782,6.925a135.6,135.6,0,0,1-14.277,2.855,5.386,5.386,0,0,0,1.19-2.028c.383-2.354-1.821-3.791-2.761-4.4a9.729,9.729,0,0,0-3.507-1.292c-4.87-.747-9.642,3.366-6.736,7.208a8.425,8.425,0,0,0,1.689,1.61c-3.164.22-6.317.484-9.535.484a136.164,136.164,0,0,1-36.321-5.049,1.691,1.691,0,0,0,.938-2.286,8.108,8.108,0,0,0-2.918-3.186c-.768-.389-2.8-1.421-4.028-.882-1.473.65-1.18,3.317,2.485,5.446C529.336,7946.924,488.423,7894.748,488.423,7833.164Z" fill="#fff"/>
      <path id="パス_4385" data-name="パス 4385" d="M736.54,7889.408c-7.032-.814-13.476,11.729-8.955,17.428,5.42,6.832,13.09-1.5,14.1-8.482a10.132,10.132,0,0,0-2.306-8.034A8.316,8.316,0,0,0,736.54,7889.408Z" fill="#fff"/>
      <path id="パス_4386" data-name="パス 4386" d="M722.275,7910.889c-7.876-1.824-15.64,9.581-12.285,15.081,4.458,7.308,14.567.781,16.483-6.648a8.139,8.139,0,0,0-1.869-7.557A11.218,11.218,0,0,0,722.275,7910.889Z" fill="#fff"/>
      <path id="パス_4387" data-name="パス 4387" d="M708.157,7929.985a10.408,10.408,0,0,0-1.37-.765c-6.59-2.771-17.131,6.47-14.277,12.517a6.81,6.81,0,0,0,8.086,3.4c6.03-1.762,8.5-5.617,9.507-8.541C711.466,7932.647,709.314,7930.915,708.157,7929.985Z" fill="#fff"/>
      <path id="パス_4388" data-name="パス 4388" d="M746.995,7868.159c-5.512.06-10.38,13.245-5.248,18.723,4.491,4.8,10.881-.856,11.208-9.913.17-4.706-1.71-6.539-2.612-7.42A5.089,5.089,0,0,0,746.995,7868.159Z" fill="#fff"/>
      <path id="パス_4389" data-name="パス 4389" d="M739.347,7864.02a9.77,9.77,0,0,0-3.737-7.154,7.434,7.434,0,0,0-4.027-1.057c-5.264.436-9.685,11.334-3.615,16.686C735.163,7878.839,739.519,7868.786,739.347,7864.02Z" fill="#fff"/>
      <path id="パス_4390" data-name="パス 4390" d="M710.39,7898.4a8.674,8.674,0,0,0-4.52-1.694c-6.252-.34-13.348,9.6-8.951,15.009,5.635,6.927,15.339,1.707,16.463-6.643A6.73,6.73,0,0,0,710.39,7898.4Z" fill="#fff"/>
      <path id="パス_4391" data-name="パス 4391" d="M727.812,7885.085a8.284,8.284,0,0,0-7.043-8.723c-6.134-.575-12.39,10.66-7.308,16.307C719.66,7899.557,727.253,7892.694,727.812,7885.085Z" fill="#fff"/>
      <path id="パス_4392" data-name="パス 4392" d="M675.931,7933.541a12.536,12.536,0,0,0-3.18-1.364c-6.987-1.808-13.644,5.9-10.908,10.477,4.4,7.344,14.693,3.36,16.544-2.883C679.307,7936.668,677.027,7934.555,675.931,7933.541Z" fill="#fff"/>
      <path id="パス_4393" data-name="パス 4393" d="M696.836,7923.56c.718-3.616-1.716-5.433-2.887-6.306a9.758,9.758,0,0,0-3.59-1.542c-6.616-1.273-14.128,7.75-10.718,12.873C684.073,7935.242,695.161,7932,696.836,7923.56Z" fill="#fff"/>
      <path id="パス_4394" data-name="パス 4394" d="M658.238,7949.475a10.571,10.571,0,0,0-3.083-1.354c-6.159-1.526-11.831,4.744-9.463,8.6a8.9,8.9,0,0,0,8.3,3.586c1.646-.253,6.092-1.81,6.89-5.92h0C661.406,7951.675,659.266,7950.189,658.238,7949.475Z" fill="#fff"/>
      <path id="パス_4395" data-name="パス 4395" d="M747.22,7842.731a8.869,8.869,0,0,0-3.582-6.2,5.689,5.689,0,0,0-3.977-1.216c-4.206.709-7.35,11.386-.529,16.456C743.876,7855.3,748.412,7850.231,747.22,7842.731Z" fill="#fff"/>
      <path id="パス_4396" data-name="パス 4396" d="M702.99,7862.768c-5.607-.46-12.47,8.035-6,15.485,3.651,4.2,13.124,1.872,13.719-6.574a8.176,8.176,0,0,0-3.937-7.5A8.5,8.5,0,0,0,702.99,7862.768Z" fill="#fff"/>
      <path id="パス_4397" data-name="パス 4397" d="M654.436,7918.777c-5.818-1-12.122,5.722-8.474,10.968a8.667,8.667,0,0,0,8.7,3.479c4.854-.971,6.293-4.1,6.646-6.547.356-2.475-.661-4.581-3.021-6.26A10.093,10.093,0,0,0,654.436,7918.777Z" fill="#fff"/>
      <path id="パス_4398" data-name="パス 4398" d="M663,7914.631c4.1,5.488,13.851,2.46,15.12-4.694.28-1.584.2-4.644-3.515-7.349a8.909,8.909,0,0,0-3.6-1.524C665.353,7900.182,657.429,7907.178,663,7914.631Z" fill="#fff"/>
      <path id="パス_4399" data-name="パス 4399" d="M748.594,7817.113a4.469,4.469,0,0,0-3.267-.933c-4.236.943-3.521,12.451,2.389,15.637,3.261,1.757,6.8-1.71,4.7-8.975A9.9,9.9,0,0,0,748.594,7817.113Z" fill="#fff"/>
      <path id="パス_4400" data-name="パス 4400" d="M689.827,7899.671a10.572,10.572,0,0,0,6.007-8.157c.4-4.076-2.411-6.249-3.61-7.177a8.949,8.949,0,0,0-3.858-1.587c-5.828-.752-13.574,7.3-7.311,15.022C684.3,7901.771,689.773,7899.693,689.827,7899.671Z" fill="#fff"/>
      <path id="パス_4401" data-name="パス 4401" d="M638.063,7934.522c-4.683-.525-10.787,4.143-6.495,9.716,4.548,5.905,12.948,2.686,13.714-2.309.322-2.1-.852-4.238-3.224-5.872A9.015,9.015,0,0,0,638.063,7934.522Z" fill="#fff"/>
      <path id="パス_4402" data-name="パス 4402" d="M714.341,7842.845c-5.252.379-9.327,10.034-3.085,15.052,4.95,3.978,11.907.6,11.138-7.48a8.1,8.1,0,0,0-3.663-6.248A7.251,7.251,0,0,0,714.341,7842.845Z" fill="#fff"/>
      <path id="パス_4403" data-name="パス 4403" d="M627.367,7949.96a9.389,9.389,0,0,0-4.163-1.529c-3.687-.27-8.266,3.645-4.521,7.793,4.71,5.219,11.6,2.737,11.894-1.571C630.654,7953.516,630.159,7951.779,627.367,7949.96Z" fill="#fff"/>
      <path id="パス_4404" data-name="パス 4404" d="M745.785,7797.427c-2.941,1.3.029,11.82,5.018,13.554,4.189,1.458,2.957-5.447,1.772-8.1a10.7,10.7,0,0,0-3.912-4.694C748.03,7797.807,746.714,7797.016,745.785,7797.427Z" fill="#fff"/>
      <path id="パス_4405" data-name="パス 4405" d="M722.84,7837.563c5.025,3.406,9.028-1.629,7.848-7.484a8.467,8.467,0,0,0-3.843-5.541,5.67,5.67,0,0,0-4.233-1.112C719.151,7824.225,716.088,7832.988,722.84,7837.563Z" fill="#fff"/>
      <path id="パス_4406" data-name="パス 4406" d="M676.267,7876.447c.355-3.3-2.1-5.672-3.277-6.813a10,10,0,0,0-4.049-1.512c-5.444-.545-10.384,7.092-6.306,12.115C668.328,7887.246,675.669,7882.009,676.267,7876.447Z" fill="#fff"/>
      <path id="パス_4407" data-name="パス 4407" d="M614.722,7929.925c.969,1.072,3.577,3.5,6.859,2.853,4.721-.926,4.914-4.012,4.988-5.174.175-2.812-1.816-4.43-2.886-5.3a8.875,8.875,0,0,0-4.177-1.769C614.955,7920.111,610.551,7925.311,614.722,7929.925Z" fill="#fff"/>
      <path id="パス_4408" data-name="パス 4408" d="M635.268,7904.184c-4.993-.565-9.656,5.641-6.18,10.2,5.242,6.88,12.491,2.775,13.259-2.226.476-3.107-2.187-5.6-3.468-6.795A10.989,10.989,0,0,0,635.268,7904.184Z" fill="#fff"/>
      <path id="パス_4409" data-name="パス 4409" d="M687.372,7850.411a9.363,9.363,0,0,0-4-1.341c-4.65-.227-9.644,7.217-4.977,12.16,6.3,6.67,12.135.262,12.456-4.339C691.085,7853.513,688.482,7851.339,687.372,7850.411Z" fill="#fff"/>
      <path id="パス_4410" data-name="パス 4410" d="M615.329,7961.789a8.475,8.475,0,0,0-5.329-1.483c-1.784.277-5.495,2.93-.713,6.768,4.626,3.714,9.327,1.607,8.956-1.708C618.039,7963.549,616.14,7962.316,615.329,7961.789Z" fill="#fff"/>
      <path id="パス_4411" data-name="パス 4411" d="M699.464,7831.036a6.911,6.911,0,0,0-4.119-1.2c-5.122.527-7.442,8.97-2.124,12.923s10.338-.835,10.135-5.743C703.289,7835.4,702.56,7833.045,699.464,7831.036Z" fill="#fff"/>
      <path id="パス_4412" data-name="パス 4412" d="M704.7,7823.231c4.055,2.7,8.736.068,7.564-5.884a7.873,7.873,0,0,0-3.737-5.267,5.917,5.917,0,0,0-3.78-1C700.948,7811.725,698.575,7819.148,704.7,7823.231Z" fill="#fff"/>
      <path id="パス_4413" data-name="パス 4413" d="M726.845,7811.751a10.713,10.713,0,0,0,4.718,6.674c4.123,2.263,6.416-2.257,4.921-7.143a9.165,9.165,0,0,0-4.1-5.171c-.724-.414-2.229-1.274-3.5-.882C726.511,7805.962,726.606,7810.577,726.845,7811.751Z" fill="#fff"/>
      <path id="パス_4414" data-name="パス 4414" d="M732.9,7787.833c-.629-.338-1.937-1.038-2.913-.665-2.664,1.016-.614,9.58,4.78,11.7,1.983.778,4.951-.91,2.223-6.476A10.429,10.429,0,0,0,732.9,7787.833Z" fill="#fff"/>
      <path id="パス_4415" data-name="パス 4415" d="M601.9,7943.1c1.115,1.183,3.712,3.081,6.365,2.689,4.022-.6,4.021-3.048,4.02-4.227,0-1.762-.953-3.347-2.832-4.713a8.745,8.745,0,0,0-4.2-1.683C601.424,7934.9,598.2,7939.165,601.9,7943.1Z" fill="#fff"/>
      <path id="パス_4416" data-name="パス 4416" d="M742.678,7779.713c-1.986,1.279,2.619,10.7,6.737,11.585,1.273.274,2.716-1.762-.384-6.779a12.052,12.052,0,0,0-4.131-4.32C744.38,7779.911,743.3,7779.314,742.678,7779.713Z" fill="#fff"/>
      <path id="パス_4417" data-name="パス 4417" d="M645.089,7897.545c5.6,7.251,13.031,2.27,13.71-3.289.39-3.2-1.914-5.42-3.021-6.488a10.248,10.248,0,0,0-4.083-1.71C646.519,7885.346,641.293,7892.632,645.089,7897.545Z" fill="#fff"/>
      <path id="パス_4418" data-name="パス 4418" d="M718.75,7798.025a8.948,8.948,0,0,0-3.905-4.614,4.586,4.586,0,0,0-2.948-.726c-3.685.765-2.5,8.016,1.735,10.628C717.358,7805.61,720.323,7802.546,718.75,7798.025Z" fill="#fff"/>
      <path id="パス_4419" data-name="パス 4419" d="M639.022,7877.653c.444-2.913-1.6-5.2-2.371-6.059a8.829,8.829,0,0,0-3.442-1.432c-4.674-.691-8.79,5.266-5.383,9.833C632.211,7885.877,638.348,7882.063,639.022,7877.653Z" fill="#fff"/>
      <path id="パス_4420" data-name="パス 4420" d="M654.96,7859.28a6.9,6.9,0,0,0-2.878-6.163,6.012,6.012,0,0,0-2.991-1.291c-3.795-.424-9.474,4.451-4.764,10.8C647.14,7866.417,654.185,7864.993,654.96,7859.28Z" fill="#fff"/>
      <path id="パス_4421" data-name="パス 4421" d="M661.557,7843.478c3.846,4.255,10.1,1.988,10.145-3.676a6.534,6.534,0,0,0-2.889-5.379,6.146,6.146,0,0,0-3.014-1.218C661.541,7832.833,657.406,7838.885,661.557,7843.478Z" fill="#fff"/>
      <path id="パス_4422" data-name="パス 4422" d="M729.494,7771.259c-.575-.286-1.646-.819-2.2-.409-.863.634.139,3.609,1.249,5.216a9.558,9.558,0,0,0,5.154,4.048c2.034.366,1.508-2.84-.369-5.5A10.788,10.788,0,0,0,729.494,7771.259Z" fill="#fff"/>
      <path id="パス_4423" data-name="パス 4423" d="M675.506,7825c5.174,4.5,8.364-.907,8.259-3.714-.093-2.5-2.147-4.227-3.133-5.059a6.3,6.3,0,0,0-3.009-.909C674.337,7815.392,671.07,7821.147,675.506,7825Z" fill="#fff"/>
      <path id="パス_4424" data-name="パス 4424" d="M743.607,7772.625c1.331.013-.284-3.214-2.005-5.249a14.761,14.761,0,0,0-3.5-3.013c-.52-.263-1.49-.753-1.856-.436-.575.5,1,3.365,2.686,5.361C740.486,7771.126,742.76,7772.616,743.607,7772.625Z" fill="#fff"/>
      <path id="パス_4425" data-name="パス 4425" d="M693.035,7802.622a6.156,6.156,0,0,0-2.848-3.9,5.17,5.17,0,0,0-3.55-.961c-2.387.522-4.509,5.952.169,9.1C690.9,7809.626,693.762,7806.137,693.035,7802.622Z" fill="#fff"/>
      <path id="パス_4426" data-name="パス 4426" d="M715.685,7776.71c-.652-.339-1.868-.967-2.674-.591-1.973.923-.346,7.482,4.686,9.049,2.733.851,2.866-2.41,1.507-4.989A8.487,8.487,0,0,0,715.685,7776.71Z" fill="#fff"/>
      <path id="パス_4427" data-name="パス 4427" d="M597.557,7913.226c4.463,5.279,9.354,2.063,9.534-1.851.075-1.614-.792-3.207-2.574-4.735a6.315,6.315,0,0,0-3.476-1.611A4.872,4.872,0,0,0,597.557,7913.226Z" fill="#fff"/>
      <path id="パス_4428" data-name="パス 4428" d="M622.8,7894.8a6.3,6.3,0,0,0-2.4-5.034,6.629,6.629,0,0,0-4.114-1.818c-3.823-.083-7.934,5.4-3.357,10.357A5.616,5.616,0,0,0,622.8,7894.8Z" fill="#fff"/>
      <path id="パス_4429" data-name="パス 4429" d="M585.684,7928.216c4.262,3.829,7.469.46,7.341-2.013-.09-1.729-1.481-3.29-2.074-3.957-.794-.6-2.445-1.835-4.149-1.785C584.156,7920.538,581.315,7924.293,585.684,7928.216Z" fill="#fff"/>
      <path id="パス_4430" data-name="パス 4430" d="M595.974,7948.75c-.868-.506-2.673-1.559-4.315-1.393-2.2.222-4.439,3.267-.321,6.546,5.186,4.129,7.753.775,7.479-1.311C598.594,7950.878,596.825,7949.441,595.974,7948.75Z" fill="#fff"/>
      <path id="パス_4431" data-name="パス 4431" d="M727.111,7761.848c1.518.087.173-2.248-1.419-3.894a16.412,16.412,0,0,0-3.9-2.912c-.355-.086-1.094-.265-1.422-.035C719.028,7755.956,724.7,7761.71,727.111,7761.848Z" fill="#fff"/>
      <path id="パス_4432" data-name="パス 4432" d="M734.382,7756.485c.61,0,.063-.943-.319-1.5a10.638,10.638,0,0,0-2.316-2.379,13.263,13.263,0,0,0-3.013-2.118c-.655-.3-1.127-.385-1.261-.221C726.8,7751.077,732.806,7756.486,734.382,7756.485Z" fill="#fff"/>
      <path id="パス_4433" data-name="パス 4433" d="M664.614,7806.167a4.34,4.34,0,0,0-1.769-3.193,4.5,4.5,0,0,0-2.509-1.007c-2.863-.053-4.526,4.589-1.753,7.205C661.008,7811.458,664.833,7810.124,664.614,7806.167Z" fill="#fff"/>
      <path id="パス_4434" data-name="パス 4434" d="M649.788,7827.834c1.2-.486,2.45-.988,2.595-3.781a5.329,5.329,0,0,0-1.963-4.3,3.856,3.856,0,0,0-2.026-.88c-3.47-.346-6.531,4.185-3.056,8.019A3.672,3.672,0,0,0,649.788,7827.834Z" fill="#fff"/>
      <path id="パス_4435" data-name="パス 4435" d="M573.886,7933.311c-2.227.258-2.687,3.862.629,6.264,3.665,2.655,5.6.576,5.253-1.558a7.053,7.053,0,0,0-2.321-3.582A6.735,6.735,0,0,0,573.886,7933.311Z" fill="#fff"/>
      <path id="パス_4436" data-name="パス 4436" d="M600.451,7880.6c2.769-.761,2.956-2.378,3.121-3.8a4.864,4.864,0,0,0-1.392-4.326,5.289,5.289,0,0,0-3.011-1.494c-3.723-.421-5.842,4.827-3.194,7.909A4.548,4.548,0,0,0,600.451,7880.6Z" fill="#fff"/>
      <path id="パス_4437" data-name="パス 4437" d="M694.2,7788.9c2.405,1.585,5.651.139,4.323-3.673a6.928,6.928,0,0,0-3.026-3.549,3.767,3.767,0,0,0-2.332-.6c-1.51.27-1.956,2.155-1.792,3.408C691.679,7786.806,694.173,7788.883,694.2,7788.9Z" fill="#fff"/>
      <path id="パス_4438" data-name="パス 4438" d="M715.9,7767.869c1.221.168,1.194-.97,1.175-1.2-.06-.783-.088-1.139-1.491-2.861a9.055,9.055,0,0,0-2.967-2.5c-1.009-.5-1.8-.6-2.166-.281C709.178,7762.124,712.933,7767.46,715.9,7767.869Z" fill="#fff"/>
      <path id="パス_4439" data-name="パス 4439" d="M633.745,7844.7c2.858-1.1,2.916-2.342,3.011-4.394a4.643,4.643,0,0,0-1.538-3.974,5.052,5.052,0,0,0-3.32-1.365c-3.545.025-6.04,5.221-3.07,8.405A4.386,4.386,0,0,0,633.745,7844.7Z" fill="#fff"/>
      <path id="パス_4440" data-name="パス 4440" d="M621.042,7858.368c.311-2.374-1.31-4.393-2-5.255a13.555,13.555,0,0,0-2.121-.61c-4.783-.841-6.583,4.888-4.407,7.834C615.476,7864.349,620.5,7862.524,621.042,7858.368Z" fill="#fff"/>
      <path id="パス_4441" data-name="パス 4441" d="M696.241,7766.647c-1.391.88.121,5,3.359,6.063,2.087.686,1.952-1.866,1.246-3.163a8.284,8.284,0,0,0-2.559-2.572C697.853,7766.764,696.835,7766.272,696.241,7766.647Z" fill="#fff"/>
      <path id="パス_4442" data-name="パス 4442" d="M587.758,7893.131a4.6,4.6,0,0,0-1.513-3.411,4.379,4.379,0,0,0-2.706-1.464c-2.255-.124-4.794,3.6-2.023,6.7C584.642,7898.451,587.619,7895.876,587.758,7893.131Z" fill="#fff"/>
      <path id="パス_4443" data-name="パス 4443" d="M673.786,7789.311a4.081,4.081,0,0,0-1.9-2.764,3.067,3.067,0,0,0-1.827-.654c-1.68.141-3.439,3.472-.369,5.892C672.482,7793.984,674.026,7791.153,673.786,7789.311Z" fill="#fff"/>
      <path id="パス_4444" data-name="パス 4444" d="M570.5,7903.987a4.96,4.96,0,0,0-1.71-.687c-1.95-.278-3.553,2.435-1.55,4.935,2.483,3.1,4.865,1.535,5.032-.572C572.391,7906.122,571.111,7904.681,570.5,7903.987Z" fill="#fff"/>
      <path id="パス_4445" data-name="パス 4445" d="M698,7756.9c1.011.06.818-1.135-.016-2.165a8.15,8.15,0,0,0-2.358-1.926c-.261-.12-.873-.4-1.2-.127-.279.235-.371,1.021.57,2.132C696.405,7756.479,697.407,7756.869,698,7756.9Z" fill="#fff"/>
      <path id="パス_4446" data-name="パス 4446" d="M709.538,7752.09c.829-.019-.052-1.424-1.05-2.363a11.174,11.174,0,0,0-2.59-1.76c-.323-.106-.926-.307-1.154-.125C703.9,7748.514,707.979,7752.127,709.538,7752.09Z" fill="#fff"/>
      <path id="パス_4447" data-name="パス 4447" d="M677.223,7775.319c2.2,1.166,3.031-.509,2.495-2.165a5.852,5.852,0,0,0-2.117-2.584,6.505,6.505,0,0,0-1.522.147C674.744,7771.205,675.235,7774.267,677.223,7775.319Z" fill="#fff"/>
      <path id="パス_4448" data-name="パス 4448" d="M568.882,7946.706c-1.357-1.037-2.156-1.107-2.586-.985-1.5.428-.873,3.181,2.153,4.815,1.6.865,2.784.142,2.343-1.431A5.278,5.278,0,0,0,568.882,7946.706Z" fill="#fff"/>
      <path id="パス_4449" data-name="パス 4449" d="M717.566,7747.027c.622-.076-.7-1.466-1.894-2.365a12.274,12.274,0,0,0-2.659-1.535c-.238-.068-.734-.21-.873-.081C711.541,7743.6,716.409,7747.17,717.566,7747.027Z" fill="#fff"/>
      <path id="パス_4450" data-name="パス 4450" d="M633.37,7809.969a2.031,2.031,0,0,0,1.5-1.993,3.413,3.413,0,0,0-.932-2.7,1.782,1.782,0,0,0-1.1-.509c-2.024-.16-3.842,2.4-1.977,4.752A2,2,0,0,0,633.37,7809.969Z" fill="#fff"/>
      <path id="パス_4451" data-name="パス 4451" d="M719.392,7740.913c.026-.006.594-.181-2.117-1.9a12.309,12.309,0,0,0-2.207-1.2c-.487-.177-.618-.126-.653-.079C714.143,7738.1,718.794,7741.067,719.392,7740.913Z" fill="#fff"/>
      <path id="パス_4452" data-name="パス 4452" d="M559.346,7918.64a2.8,2.8,0,0,0-1.877-.875c-1.964.095-1.8,2.882.266,4.588a2.093,2.093,0,0,0,2.142.521c.5-.19.967-.37.837-1.661h0A4.175,4.175,0,0,0,559.346,7918.64Z" fill="#fff"/>
      <path id="パス_4453" data-name="パス 4453" d="M617.3,7825.587c1.156-.41,1.592-1,1.793-2.437a2.647,2.647,0,0,0-.677-2.332,2.609,2.609,0,0,0-1.606-.795c-2.076-.2-3.528,2.963-2.157,4.7A2.354,2.354,0,0,0,617.3,7825.587Z" fill="#fff"/>
      <path id="パス_4454" data-name="パス 4454" d="M601.265,7842.221a2.389,2.389,0,0,0,1.877-2.328,2.775,2.775,0,0,0-.552-2.577,2.984,2.984,0,0,0-1.625-.866c-2.5-.435-3.538,3.186-2.387,4.739A2.692,2.692,0,0,0,601.265,7842.221Z" fill="#fff"/>
    </g>
    <g id="グループ_463" data-name="グループ 463" transform="translate(-2206 426)" opacity="0.21">
      <path id="パス_4455" data-name="パス 4455" d="M1355.741,7507.657c-82.463,0-149.553,67.089-149.553,149.553s67.09,149.553,149.553,149.553,149.553-67.089,149.553-149.553S1438.2,7507.657,1355.741,7507.657ZM1218.922,7657.21c0-75.443,61.377-136.82,136.819-136.82a136.5,136.5,0,0,1,104.268,48.443c-.31-.2-.616-.391-.892-.532-.386-.186-.508-.224-.592-.182-.08.329,1.948,2.076,3.7,3.377a136.228,136.228,0,0,1,27.861,60.208c-2.113,1.295-1.082,8.74,1.842,13.027.222,2.445.284,4.93.375,7.41a3.773,3.773,0,0,0-1.947-.8c-4.4.115-3.842,13.25.729,17.14a3.815,3.815,0,0,0,.878.513c-.2,2.38-.532,4.718-.857,7.062a8.557,8.557,0,0,0-2.1-2.885,4.1,4.1,0,0,0-3.04-1.165c-3.888.531-7.712,12.861-1.559,18.346a3.281,3.281,0,0,0,3.7.858,136.039,136.039,0,0,1-17.711,40.41,20.957,20.957,0,0,0-1.357,2.195,137.459,137.459,0,0,1-11.147,14.1,18.139,18.139,0,0,0-4.253,4.679,137.546,137.546,0,0,1-32.475,24.742,10.183,10.183,0,0,0,1.133-2.119,4.418,4.418,0,0,0-1.878-5.622,7.9,7.9,0,0,0-1.5-.771c-6.9-2.673-16.221,4.822-13.473,10.837.776,1.7,2.765,2.634,5.112,2.824-1.878.825-3.805,1.545-5.726,2.287a5.4,5.4,0,0,0-1.351-1.18,9.625,9.625,0,0,0-2.029-.916c-5.178-1.543-11.883,2.832-11.783,6.925a135.8,135.8,0,0,1-14.277,2.855,5.4,5.4,0,0,0,1.191-2.028c.382-2.354-1.821-3.79-2.761-4.4a9.761,9.761,0,0,0-3.508-1.292c-4.869-.747-9.642,3.367-6.735,7.209a8.394,8.394,0,0,0,1.689,1.61c-3.164.22-6.317.483-9.535.483a136.144,136.144,0,0,1-36.321-5.048,1.692,1.692,0,0,0,.938-2.287,8.117,8.117,0,0,0-2.919-3.186c-.767-.389-2.8-1.42-4.028-.881-1.473.649-1.179,3.317,2.485,5.446C1259.834,7770.969,1218.922,7718.793,1218.922,7657.21Z" fill="#fff"/>
      <path id="パス_4456" data-name="パス 4456" d="M1467.039,7713.453c-7.032-.813-13.476,11.729-8.955,17.429,5.42,6.832,13.089-1.5,14.1-8.482a10.124,10.124,0,0,0-2.305-8.034A8.315,8.315,0,0,0,1467.039,7713.453Z" fill="#fff"/>
      <path id="パス_4457" data-name="パス 4457" d="M1452.773,7734.935c-7.875-1.825-15.64,9.581-12.284,15.08,4.457,7.309,14.567.781,16.482-6.647a8.139,8.139,0,0,0-1.868-7.558A11.294,11.294,0,0,0,1452.773,7734.935Z" fill="#fff"/>
      <path id="パス_4458" data-name="パス 4458" d="M1438.656,7754.03a10.406,10.406,0,0,0-1.371-.764c-6.589-2.772-17.13,6.469-14.276,12.517a6.809,6.809,0,0,0,8.085,3.4c6.03-1.762,8.5-5.617,9.508-8.541C1441.965,7756.693,1439.813,7754.96,1438.656,7754.03Z" fill="#fff"/>
      <path id="パス_4459" data-name="パス 4459" d="M1477.494,7692.205c-5.512.06-10.38,13.245-5.249,18.723,4.492,4.795,10.882-.857,11.208-9.914.17-4.706-1.709-6.538-2.612-7.42A5.085,5.085,0,0,0,1477.494,7692.205Z" fill="#fff"/>
      <path id="パス_4460" data-name="パス 4460" d="M1469.846,7688.066a9.767,9.767,0,0,0-3.738-7.155,7.44,7.44,0,0,0-4.027-1.057c-5.263.436-9.684,11.334-3.614,16.686C1465.661,7702.885,1470.018,7692.831,1469.846,7688.066Z" fill="#fff"/>
      <path id="パス_4461" data-name="パス 4461" d="M1440.888,7722.447a8.669,8.669,0,0,0-4.519-1.695c-6.253-.339-13.348,9.6-8.951,15.01,5.635,6.927,15.339,1.706,16.463-6.644A6.727,6.727,0,0,0,1440.888,7722.447Z" fill="#fff"/>
      <path id="パス_4462" data-name="パス 4462" d="M1458.31,7709.131a8.281,8.281,0,0,0-7.043-8.723c-6.134-.576-12.389,10.66-7.308,16.307C1450.159,7723.6,1457.752,7716.74,1458.31,7709.131Z" fill="#fff"/>
      <path id="パス_4463" data-name="パス 4463" d="M1406.43,7757.587a12.45,12.45,0,0,0-3.18-1.364c-6.988-1.808-13.644,5.9-10.908,10.476,4.4,7.345,14.693,3.36,16.543-2.882C1409.805,7760.713,1407.525,7758.6,1406.43,7757.587Z" fill="#fff"/>
      <path id="パス_4464" data-name="パス 4464" d="M1427.335,7747.6c.718-3.615-1.717-5.432-2.887-6.306a9.767,9.767,0,0,0-3.59-1.542c-6.616-1.272-14.128,7.751-10.719,12.874C1414.571,7759.287,1425.66,7756.046,1427.335,7747.6Z" fill="#fff"/>
      <path id="パス_4465" data-name="パス 4465" d="M1388.736,7773.52a10.544,10.544,0,0,0-3.083-1.353c-6.159-1.526-11.831,4.744-9.462,8.6a8.9,8.9,0,0,0,8.3,3.587c1.646-.253,6.093-1.81,6.891-5.921h0C1391.905,7775.72,1389.765,7774.234,1388.736,7773.52Z" fill="#fff"/>
      <path id="パス_4466" data-name="パス 4466" d="M1477.719,7666.777a8.875,8.875,0,0,0-3.582-6.2,5.689,5.689,0,0,0-3.978-1.215c-4.205.708-7.35,11.385-.529,16.456C1474.375,7679.348,1478.911,7674.277,1477.719,7666.777Z" fill="#fff"/>
      <path id="パス_4467" data-name="パス 4467" d="M1433.488,7686.813c-5.607-.46-12.469,8.035-6,15.486,3.652,4.2,13.125,1.871,13.72-6.575a8.175,8.175,0,0,0-3.938-7.5A8.486,8.486,0,0,0,1433.488,7686.813Z" fill="#fff"/>
      <path id="パス_4468" data-name="パス 4468" d="M1384.935,7742.822c-5.819-1-12.122,5.723-8.474,10.969a8.667,8.667,0,0,0,8.7,3.479c4.854-.972,6.293-4.1,6.647-6.547.356-2.475-.661-4.581-3.022-6.26A10.094,10.094,0,0,0,1384.935,7742.822Z" fill="#fff"/>
      <path id="パス_4469" data-name="パス 4469" d="M1393.5,7738.676c4.1,5.488,13.852,2.461,15.12-4.694.281-1.583.2-4.643-3.514-7.348a8.928,8.928,0,0,0-3.6-1.525C1395.852,7724.227,1387.928,7731.223,1393.5,7738.676Z" fill="#fff"/>
      <path id="パス_4470" data-name="パス 4470" d="M1479.093,7641.159a4.468,4.468,0,0,0-3.267-.934c-4.236.944-3.521,12.452,2.388,15.637,3.262,1.757,6.806-1.709,4.7-8.974A9.894,9.894,0,0,0,1479.093,7641.159Z" fill="#fff"/>
      <path id="パス_4471" data-name="パス 4471" d="M1420.326,7723.716a10.571,10.571,0,0,0,6.007-8.157c.4-4.075-2.411-6.249-3.61-7.177a8.938,8.938,0,0,0-3.858-1.586c-5.828-.753-13.574,7.3-7.312,15.021C1414.8,7725.817,1420.272,7723.739,1420.326,7723.716Z" fill="#fff"/>
      <path id="パス_4472" data-name="パス 4472" d="M1368.562,7758.568c-4.684-.526-10.787,4.143-6.495,9.715,4.548,5.9,12.948,2.686,13.714-2.309.322-2.1-.853-4.238-3.225-5.872A9.01,9.01,0,0,0,1368.562,7758.568Z" fill="#fff"/>
      <path id="パス_4473" data-name="パス 4473" d="M1444.84,7666.891c-5.253.379-9.328,10.034-3.085,15.052,4.95,3.977,11.906.6,11.138-7.48a8.1,8.1,0,0,0-3.664-6.248A7.244,7.244,0,0,0,1444.84,7666.891Z" fill="#fff"/>
      <path id="パス_4474" data-name="パス 4474" d="M1357.866,7774a9.4,9.4,0,0,0-4.163-1.529c-3.688-.269-8.266,3.645-4.521,7.794,4.709,5.218,11.6,2.736,11.894-1.572C1361.152,7777.561,1360.657,7775.824,1357.866,7774Z" fill="#fff"/>
      <path id="パス_4475" data-name="パス 4475" d="M1476.283,7621.473c-2.94,1.3.03,11.819,5.018,13.554,4.19,1.457,2.958-5.448,1.773-8.1a10.7,10.7,0,0,0-3.913-4.694C1478.528,7621.853,1477.212,7621.061,1476.283,7621.473Z" fill="#fff"/>
      <path id="パス_4476" data-name="パス 4476" d="M1453.338,7661.609c5.026,3.406,9.029-1.63,7.849-7.485a8.467,8.467,0,0,0-3.843-5.54,5.669,5.669,0,0,0-4.233-1.113C1449.65,7648.271,1446.587,7657.033,1453.338,7661.609Z" fill="#fff"/>
      <path id="パス_4477" data-name="パス 4477" d="M1406.765,7700.493c.356-3.3-2.1-5.672-3.277-6.813a9.983,9.983,0,0,0-4.048-1.513c-5.445-.545-10.384,7.093-6.306,12.115C1398.826,7711.291,1406.167,7706.054,1406.765,7700.493Z" fill="#fff"/>
      <path id="パス_4478" data-name="パス 4478" d="M1345.221,7753.97c.969,1.072,3.577,3.5,6.859,2.853,4.721-.925,4.914-4.012,4.987-5.174.176-2.812-1.816-4.429-2.886-5.3a8.88,8.88,0,0,0-4.177-1.769C1345.454,7744.156,1341.049,7749.356,1345.221,7753.97Z" fill="#fff"/>
      <path id="パス_4479" data-name="パス 4479" d="M1365.766,7728.229c-4.993-.565-9.655,5.642-6.18,10.2,5.243,6.88,12.492,2.774,13.259-2.227.477-3.107-2.187-5.6-3.467-6.794A10.963,10.963,0,0,0,1365.766,7728.229Z" fill="#fff"/>
      <path id="パス_4480" data-name="パス 4480" d="M1417.87,7674.456a9.368,9.368,0,0,0-4-1.34c-4.65-.227-9.644,7.217-4.976,12.16,6.3,6.669,12.134.261,12.455-4.34C1421.584,7677.559,1418.981,7675.385,1417.87,7674.456Z" fill="#fff"/>
      <path id="パス_4481" data-name="パス 4481" d="M1345.827,7785.834a8.48,8.48,0,0,0-5.329-1.483c-1.784.278-5.494,2.931-.713,6.769,4.626,3.713,9.328,1.606,8.957-1.709C1348.538,7787.594,1346.639,7786.361,1345.827,7785.834Z" fill="#fff"/>
      <path id="パス_4482" data-name="パス 4482" d="M1429.963,7655.082a6.915,6.915,0,0,0-4.119-1.2c-5.122.527-7.443,8.971-2.124,12.923s10.338-.834,10.134-5.743C1433.787,7659.442,1433.059,7657.09,1429.963,7655.082Z" fill="#fff"/>
      <path id="パス_4483" data-name="パス 4483" d="M1435.2,7647.276c4.054,2.7,8.735.068,7.564-5.883a7.875,7.875,0,0,0-3.737-5.268,5.92,5.92,0,0,0-3.781-1C1431.447,7635.77,1429.074,7643.193,1435.2,7647.276Z" fill="#fff"/>
      <path id="パス_4484" data-name="パス 4484" d="M1457.343,7635.8a10.714,10.714,0,0,0,4.719,6.674c4.123,2.262,6.416-2.258,4.92-7.143a9.156,9.156,0,0,0-4.1-5.171c-.724-.414-2.23-1.274-3.5-.882C1457.01,7630.008,1457.1,7634.623,1457.343,7635.8Z" fill="#fff"/>
      <path id="パス_4485" data-name="パス 4485" d="M1463.4,7611.878c-.628-.337-1.936-1.037-2.913-.665-2.663,1.017-.613,9.581,4.781,11.7,1.983.777,4.951-.91,2.223-6.476A10.442,10.442,0,0,0,1463.4,7611.878Z" fill="#fff"/>
      <path id="パス_4486" data-name="パス 4486" d="M1332.4,7767.141c1.115,1.183,3.711,3.081,6.365,2.688,4.021-.6,4.02-3.048,4.019-4.227,0-1.761-.953-3.347-2.831-4.712a8.763,8.763,0,0,0-4.2-1.684C1331.923,7758.941,1328.7,7763.21,1332.4,7767.141Z" fill="#fff"/>
      <path id="パス_4487" data-name="パス 4487" d="M1473.176,7603.758c-1.985,1.28,2.62,10.7,6.738,11.585,1.273.274,2.716-1.762-.385-6.779a12.047,12.047,0,0,0-4.13-4.319C1474.878,7603.957,1473.8,7603.36,1473.176,7603.758Z" fill="#fff"/>
      <path id="パス_4488" data-name="パス 4488" d="M1375.588,7721.59c5.6,7.251,13.031,2.271,13.709-3.289.391-3.195-1.913-5.419-3.02-6.487a10.254,10.254,0,0,0-4.083-1.711C1377.018,7709.391,1371.792,7716.677,1375.588,7721.59Z" fill="#fff"/>
      <path id="パス_4489" data-name="パス 4489" d="M1449.249,7622.071a8.95,8.95,0,0,0-3.905-4.614,4.588,4.588,0,0,0-2.948-.726c-3.686.764-2.5,8.015,1.734,10.627C1447.857,7629.656,1450.822,7626.592,1449.249,7622.071Z" fill="#fff"/>
      <path id="パス_4490" data-name="パス 4490" d="M1369.52,7701.7c.445-2.913-1.6-5.2-2.371-6.06a8.809,8.809,0,0,0-3.442-1.431c-4.673-.691-8.789,5.265-5.383,9.832C1362.71,7709.922,1368.847,7706.109,1369.52,7701.7Z" fill="#fff"/>
      <path id="パス_4491" data-name="パス 4491" d="M1385.458,7683.326a6.9,6.9,0,0,0-2.878-6.164,6.007,6.007,0,0,0-2.991-1.291c-3.794-.424-9.474,4.451-4.764,10.8C1377.639,7690.462,1384.683,7689.039,1385.458,7683.326Z" fill="#fff"/>
      <path id="パス_4492" data-name="パス 4492" d="M1392.056,7667.524c3.846,4.255,10.1,1.988,10.145-3.677a6.531,6.531,0,0,0-2.89-5.378,6.152,6.152,0,0,0-3.013-1.219C1392.039,7656.879,1387.905,7662.931,1392.056,7667.524Z" fill="#fff"/>
      <path id="パス_4493" data-name="パス 4493" d="M1459.993,7595.305c-.575-.286-1.646-.819-2.2-.41-.863.634.139,3.61,1.25,5.217a9.549,9.549,0,0,0,5.154,4.047c2.034.366,1.508-2.84-.369-5.5A10.785,10.785,0,0,0,1459.993,7595.305Z" fill="#fff"/>
      <path id="パス_4494" data-name="パス 4494" d="M1406.005,7649.049c5.174,4.5,8.364-.907,8.259-3.713-.093-2.5-2.148-4.228-3.134-5.059a6.3,6.3,0,0,0-3.008-.909C1404.835,7639.437,1401.568,7645.192,1406.005,7649.049Z" fill="#fff"/>
      <path id="パス_4495" data-name="パス 4495" d="M1474.1,7596.67c1.332.014-.284-3.214-2-5.249a14.786,14.786,0,0,0-3.5-3.012c-.521-.263-1.491-.754-1.857-.436-.575.5,1,3.364,2.687,5.361C1470.985,7595.171,1473.259,7596.662,1474.1,7596.67Z" fill="#fff"/>
      <path id="パス_4496" data-name="パス 4496" d="M1423.533,7626.667a6.149,6.149,0,0,0-2.847-3.9,5.177,5.177,0,0,0-3.551-.962c-2.386.523-4.508,5.952.17,9.1C1421.4,7633.672,1424.261,7630.183,1423.533,7626.667Z" fill="#fff"/>
      <path id="パス_4497" data-name="パス 4497" d="M1446.184,7600.755c-.652-.339-1.869-.967-2.675-.591-1.972.923-.346,7.482,4.686,9.05,2.734.851,2.867-2.411,1.507-4.989A8.481,8.481,0,0,0,1446.184,7600.755Z" fill="#fff"/>
      <path id="パス_4498" data-name="パス 4498" d="M1328.056,7737.271c4.463,5.28,9.354,2.063,9.534-1.851.075-1.613-.792-3.207-2.574-4.734a6.307,6.307,0,0,0-3.476-1.611A4.87,4.87,0,0,0,1328.056,7737.271Z" fill="#fff"/>
      <path id="パス_4499" data-name="パス 4499" d="M1353.3,7718.846a6.3,6.3,0,0,0-2.4-5.035,6.639,6.639,0,0,0-4.113-1.818c-3.823-.083-7.935,5.4-3.357,10.357A5.616,5.616,0,0,0,1353.3,7718.846Z" fill="#fff"/>
      <path id="パス_4500" data-name="パス 4500" d="M1316.182,7752.262c4.263,3.828,7.469.46,7.341-2.013-.09-1.73-1.48-3.29-2.073-3.957-.794-.6-2.445-1.836-4.149-1.785C1314.655,7744.584,1311.814,7748.339,1316.182,7752.262Z" fill="#fff"/>
      <path id="パス_4501" data-name="パス 4501" d="M1326.472,7772.795c-.867-.506-2.673-1.558-4.314-1.393-2.2.222-4.439,3.268-.321,6.547,5.185,4.129,7.752.774,7.479-1.312C1329.092,7774.923,1327.323,7773.486,1326.472,7772.795Z" fill="#fff"/>
      <path id="パス_4502" data-name="パス 4502" d="M1457.61,7585.894c1.518.087.173-2.248-1.42-3.894a16.355,16.355,0,0,0-3.9-2.912c-.355-.086-1.095-.266-1.422-.035C1449.526,7580,1455.2,7585.756,1457.61,7585.894Z" fill="#fff"/>
      <path id="パス_4503" data-name="パス 4503" d="M1464.88,7580.531c.611,0,.064-.943-.318-1.506a10.725,10.725,0,0,0-2.316-2.379,13.264,13.264,0,0,0-3.013-2.118c-.655-.3-1.127-.384-1.261-.221C1457.3,7575.123,1463.305,7580.532,1464.88,7580.531Z" fill="#fff"/>
      <path id="パス_4504" data-name="パス 4504" d="M1395.113,7630.212a4.34,4.34,0,0,0-1.769-3.192,4.508,4.508,0,0,0-2.509-1.008c-2.863-.052-4.527,4.589-1.754,7.2C1391.507,7635.5,1395.331,7634.169,1395.113,7630.212Z" fill="#fff"/>
      <path id="パス_4505" data-name="パス 4505" d="M1380.287,7651.879c1.2-.486,2.45-.988,2.595-3.78a5.331,5.331,0,0,0-1.963-4.3,3.856,3.856,0,0,0-2.026-.879c-3.471-.346-6.532,4.185-3.057,8.019A3.673,3.673,0,0,0,1380.287,7651.879Z" fill="#fff"/>
      <path id="パス_4506" data-name="パス 4506" d="M1304.385,7757.356c-2.227.259-2.688,3.862.629,6.265,3.664,2.655,5.6.576,5.252-1.559a7.064,7.064,0,0,0-2.32-3.582A6.747,6.747,0,0,0,1304.385,7757.356Z" fill="#fff"/>
      <path id="パス_4507" data-name="パス 4507" d="M1330.95,7704.644c2.768-.762,2.956-2.378,3.121-3.8a4.871,4.871,0,0,0-1.392-4.327,5.3,5.3,0,0,0-3.012-1.494c-3.722-.42-5.841,4.828-3.193,7.91A4.549,4.549,0,0,0,1330.95,7704.644Z" fill="#fff"/>
      <path id="パス_4508" data-name="パス 4508" d="M1424.7,7612.945c2.4,1.585,5.652.139,4.324-3.673a6.938,6.938,0,0,0-3.026-3.55,3.758,3.758,0,0,0-2.332-.6c-1.511.269-1.957,2.155-1.792,3.408C1422.177,7610.852,1424.671,7612.928,1424.7,7612.945Z" fill="#fff"/>
      <path id="パス_4509" data-name="パス 4509" d="M1446.4,7591.914c1.221.169,1.2-.969,1.176-1.2-.061-.783-.088-1.139-1.491-2.862a9.078,9.078,0,0,0-2.967-2.5c-1.01-.5-1.8-.6-2.166-.282C1439.676,7586.17,1443.432,7591.506,1446.4,7591.914Z" fill="#fff"/>
      <path id="パス_4510" data-name="パス 4510" d="M1364.244,7668.742c2.857-1.1,2.915-2.343,3.011-4.394a4.648,4.648,0,0,0-1.538-3.975,5.048,5.048,0,0,0-3.321-1.364c-3.545.025-6.04,5.221-3.069,8.4A4.387,4.387,0,0,0,1364.244,7668.742Z" fill="#fff"/>
      <path id="パス_4511" data-name="パス 4511" d="M1351.541,7682.414c.311-2.374-1.31-4.393-2-5.256a13.636,13.636,0,0,0-2.121-.61c-4.783-.84-6.583,4.889-4.407,7.835C1345.974,7688.4,1351,7686.57,1351.541,7682.414Z" fill="#fff"/>
      <path id="パス_4512" data-name="パス 4512" d="M1426.74,7590.693c-1.391.88.12,5,3.359,6.063,2.086.686,1.951-1.866,1.246-3.163a8.317,8.317,0,0,0-2.559-2.573C1428.352,7590.809,1427.334,7590.317,1426.74,7590.693Z" fill="#fff"/>
      <path id="パス_4513" data-name="パス 4513" d="M1318.257,7717.177a4.6,4.6,0,0,0-1.513-3.412,4.385,4.385,0,0,0-2.706-1.464c-2.255-.124-4.795,3.6-2.023,6.7C1315.141,7722.5,1318.118,7719.921,1318.257,7717.177Z" fill="#fff"/>
      <path id="パス_4514" data-name="パス 4514" d="M1404.285,7613.357a4.083,4.083,0,0,0-1.9-2.765,3.066,3.066,0,0,0-1.827-.653c-1.68.141-3.439,3.471-.369,5.892C1402.98,7618.03,1404.524,7615.2,1404.285,7613.357Z" fill="#fff"/>
      <path id="パス_4515" data-name="パス 4515" d="M1300.995,7728.032a4.926,4.926,0,0,0-1.709-.687c-1.951-.278-3.553,2.435-1.551,4.935,2.484,3.1,4.866,1.536,5.033-.571C1302.89,7730.168,1301.61,7728.726,1300.995,7728.032Z" fill="#fff"/>
      <path id="パス_4516" data-name="パス 4516" d="M1428.5,7580.949c1.011.061.818-1.134-.017-2.165a8.155,8.155,0,0,0-2.357-1.925c-.261-.121-.873-.4-1.2-.127-.278.234-.37,1.021.571,2.131C1426.9,7580.524,1427.905,7580.914,1428.5,7580.949Z" fill="#fff"/>
      <path id="パス_4517" data-name="パス 4517" d="M1440.037,7576.136c.829-.02-.052-1.425-1.051-2.363a11.13,11.13,0,0,0-2.59-1.76c-.322-.107-.925-.307-1.153-.125C1434.4,7572.559,1438.478,7576.172,1440.037,7576.136Z" fill="#fff"/>
      <path id="パス_4518" data-name="パス 4518" d="M1407.721,7599.365c2.2,1.166,3.032-.51,2.5-2.165a5.846,5.846,0,0,0-2.117-2.584,6.352,6.352,0,0,0-1.522.147C1405.243,7595.25,1405.733,7598.312,1407.721,7599.365Z" fill="#fff"/>
      <path id="パス_4519" data-name="パス 4519" d="M1299.38,7770.752c-1.357-1.038-2.155-1.108-2.586-.985-1.5.427-.872,3.18,2.154,4.814,1.6.866,2.784.143,2.343-1.43A5.269,5.269,0,0,0,1299.38,7770.752Z" fill="#fff"/>
      <path id="パス_4520" data-name="パス 4520" d="M1448.065,7571.073c.621-.077-.7-1.466-1.894-2.366a12.339,12.339,0,0,0-2.659-1.535c-.238-.068-.734-.209-.873-.08C1442.04,7567.644,1446.908,7571.215,1448.065,7571.073Z" fill="#fff"/>
      <path id="パス_4521" data-name="パス 4521" d="M1363.868,7634.015a2.032,2.032,0,0,0,1.5-1.993,3.415,3.415,0,0,0-.932-2.7,1.783,1.783,0,0,0-1.1-.51c-2.025-.16-3.843,2.4-1.978,4.752A2,2,0,0,0,1363.868,7634.015Z" fill="#fff"/>
      <path id="パス_4522" data-name="パス 4522" d="M1449.891,7564.959c.026-.007.593-.181-2.117-1.9a12.5,12.5,0,0,0-2.207-1.2c-.487-.177-.619-.125-.654-.078C1444.642,7562.144,1449.293,7565.112,1449.891,7564.959Z" fill="#fff"/>
      <path id="パス_4523" data-name="パス 4523" d="M1289.845,7742.685a2.809,2.809,0,0,0-1.878-.875c-1.963.1-1.8,2.883.267,4.588a2.1,2.1,0,0,0,2.142.522c.5-.19.967-.371.836-1.662h0A4.17,4.17,0,0,0,1289.845,7742.685Z" fill="#fff"/>
      <path id="パス_4524" data-name="パス 4524" d="M1347.794,7649.633c1.157-.411,1.593-1,1.793-2.438a2.641,2.641,0,0,0-.677-2.331,2.6,2.6,0,0,0-1.6-.795c-2.077-.2-3.529,2.963-2.158,4.7A2.354,2.354,0,0,0,1347.794,7649.633Z" fill="#fff"/>
      <path id="パス_4525" data-name="パス 4525" d="M1331.763,7666.267a2.387,2.387,0,0,0,1.877-2.329,2.777,2.777,0,0,0-.551-2.577,2.993,2.993,0,0,0-1.626-.866c-2.5-.435-3.537,3.187-2.386,4.74A2.692,2.692,0,0,0,1331.763,7666.267Z" fill="#fff"/>
    </g>
    <g id="グループ_464" data-name="グループ 464" transform="translate(-2206 426)" opacity="0.21">
      <path id="パス_4526" data-name="パス 4526" d="M17.5,7833.978c-82.463,0-149.552,67.09-149.552,149.554S-64.963,8133.085,17.5,8133.085,167.054,8066,167.054,7983.532,99.965,7833.978,17.5,7833.978Zm-136.819,149.554c0-75.443,61.377-136.82,136.819-136.82a136.5,136.5,0,0,1,104.269,48.443c-.31-.2-.616-.391-.892-.532-.387-.187-.508-.225-.593-.182-.079.328,1.949,2.075,3.7,3.376a136.228,136.228,0,0,1,27.861,60.208c-2.112,1.3-1.082,8.741,1.842,13.028.223,2.445.284,4.93.375,7.409a3.773,3.773,0,0,0-1.946-.8c-4.4.115-3.843,13.249.728,17.139a3.826,3.826,0,0,0,.878.514c-.2,2.38-.532,4.718-.857,7.062a8.543,8.543,0,0,0-2.1-2.885,4.1,4.1,0,0,0-3.04-1.165c-3.888.531-7.712,12.86-1.56,18.346a3.284,3.284,0,0,0,3.7.857,136.048,136.048,0,0,1-17.711,40.41,20.848,20.848,0,0,0-1.357,2.2,137.724,137.724,0,0,1-11.147,14.1,18.138,18.138,0,0,0-4.254,4.679,137.588,137.588,0,0,1-32.475,24.742,10.244,10.244,0,0,0,1.134-2.119,4.42,4.42,0,0,0-1.879-5.623,7.968,7.968,0,0,0-1.5-.771c-6.9-2.672-16.22,4.822-13.472,10.838.776,1.7,2.765,2.634,5.112,2.823-1.878.826-3.806,1.545-5.727,2.288a5.423,5.423,0,0,0-1.35-1.181,9.542,9.542,0,0,0-2.03-.915c-5.178-1.543-11.882,2.832-11.782,6.925a135.729,135.729,0,0,1-14.277,2.855,5.39,5.39,0,0,0,1.19-2.028c.383-2.354-1.821-3.791-2.761-4.4a9.739,9.739,0,0,0-3.507-1.292c-4.87-.747-9.642,3.366-6.736,7.208a8.423,8.423,0,0,0,1.689,1.611c-3.164.219-6.317.483-9.535.483a136.17,136.17,0,0,1-36.321-5.049,1.69,1.69,0,0,0,.938-2.286,8.1,8.1,0,0,0-2.918-3.186c-.768-.389-2.805-1.421-4.028-.882-1.473.65-1.18,3.317,2.485,5.446C-78.406,8097.291-119.319,8045.115-119.319,7983.532Z" fill="#fff"/>
      <path id="パス_4527" data-name="パス 4527" d="M128.8,8039.775c-7.032-.813-13.476,11.729-8.955,17.428,5.42,6.833,13.09-1.5,14.1-8.482a10.124,10.124,0,0,0-2.306-8.033A8.305,8.305,0,0,0,128.8,8039.775Z" fill="#fff"/>
      <path id="パス_4528" data-name="パス 4528" d="M114.533,8061.256c-7.876-1.824-15.64,9.581-12.285,15.081,4.458,7.308,14.567.781,16.483-6.648a8.137,8.137,0,0,0-1.869-7.557A11.274,11.274,0,0,0,114.533,8061.256Z" fill="#fff"/>
      <path id="パス_4529" data-name="パス 4529" d="M100.416,8080.352a10.546,10.546,0,0,0-1.371-.765c-6.59-2.771-17.131,6.47-14.277,12.517a6.809,6.809,0,0,0,8.086,3.4c6.03-1.762,8.5-5.617,9.507-8.541C103.724,8083.014,101.572,8081.282,100.416,8080.352Z" fill="#fff"/>
      <path id="パス_4530" data-name="パス 4530" d="M139.254,8018.526c-5.512.06-10.38,13.245-5.249,18.723,4.491,4.8,10.881-.856,11.208-9.913.17-4.706-1.71-6.539-2.612-7.42A5.089,5.089,0,0,0,139.254,8018.526Z" fill="#fff"/>
      <path id="パス_4531" data-name="パス 4531" d="M131.6,8014.387a9.768,9.768,0,0,0-3.737-7.154,7.438,7.438,0,0,0-4.027-1.057c-5.264.436-9.685,11.334-3.615,16.686C127.421,8029.206,131.777,8019.153,131.6,8014.387Z" fill="#fff"/>
      <path id="パス_4532" data-name="パス 4532" d="M102.648,8048.768a8.667,8.667,0,0,0-4.52-1.694c-6.252-.34-13.348,9.6-8.951,15.009,5.636,6.927,15.339,1.707,16.464-6.643A6.731,6.731,0,0,0,102.648,8048.768Z" fill="#fff"/>
      <path id="パス_4533" data-name="パス 4533" d="M120.07,8035.452a8.28,8.28,0,0,0-7.043-8.722c-6.134-.576-12.39,10.659-7.308,16.306C111.918,8049.924,119.511,8043.061,120.07,8035.452Z" fill="#fff"/>
      <path id="パス_4534" data-name="パス 4534" d="M68.189,8083.909a12.5,12.5,0,0,0-3.18-1.365c-6.987-1.808-13.644,5.9-10.908,10.477,4.4,7.344,14.694,3.36,16.544-2.883C71.565,8087.035,69.285,8084.922,68.189,8083.909Z" fill="#fff"/>
      <path id="パス_4535" data-name="パス 4535" d="M89.094,8073.927c.718-3.616-1.716-5.433-2.887-6.306a9.759,9.759,0,0,0-3.59-1.542c-6.616-1.272-14.128,7.75-10.718,12.873C76.331,8085.609,87.419,8082.367,89.094,8073.927Z" fill="#fff"/>
      <path id="パス_4536" data-name="パス 4536" d="M50.5,8099.842a10.567,10.567,0,0,0-3.083-1.353c-6.159-1.527-11.831,4.743-9.463,8.6a8.9,8.9,0,0,0,8.3,3.586c1.646-.253,6.092-1.809,6.89-5.92h0C53.664,8102.042,51.524,8100.556,50.5,8099.842Z" fill="#fff"/>
      <path id="パス_4537" data-name="パス 4537" d="M139.478,7993.1a8.87,8.87,0,0,0-3.582-6.2,5.691,5.691,0,0,0-3.977-1.216c-4.206.709-7.35,11.386-.529,16.456C136.135,8005.67,140.67,8000.6,139.478,7993.1Z" fill="#fff"/>
      <path id="パス_4538" data-name="パス 4538" d="M95.248,8013.135c-5.607-.46-12.47,8.035-6,15.485,3.652,4.2,13.124,1.872,13.72-6.574a8.177,8.177,0,0,0-3.938-7.5A8.5,8.5,0,0,0,95.248,8013.135Z" fill="#fff"/>
      <path id="パス_4539" data-name="パス 4539" d="M46.694,8069.144c-5.818-1-12.121,5.722-8.474,10.968a8.665,8.665,0,0,0,8.7,3.479c4.854-.971,6.293-4.1,6.646-6.547.356-2.475-.66-4.581-3.021-6.26A10.1,10.1,0,0,0,46.694,8069.144Z" fill="#fff"/>
      <path id="パス_4540" data-name="パス 4540" d="M55.258,8065c4.1,5.488,13.851,2.46,15.12-4.694.281-1.584.2-4.644-3.515-7.349a8.891,8.891,0,0,0-3.6-1.524C57.611,8050.549,49.687,8057.545,55.258,8065Z" fill="#fff"/>
      <path id="パス_4541" data-name="パス 4541" d="M140.853,7967.48a4.474,4.474,0,0,0-3.268-.933c-4.235.944-3.521,12.451,2.389,15.637,3.261,1.757,6.805-1.71,4.7-8.974A9.9,9.9,0,0,0,140.853,7967.48Z" fill="#fff"/>
      <path id="パス_4542" data-name="パス 4542" d="M82.086,8050.038a10.578,10.578,0,0,0,6.007-8.157c.395-4.076-2.412-6.249-3.611-7.177a8.937,8.937,0,0,0-3.858-1.587c-5.828-.752-13.574,7.3-7.311,15.022C76.555,8052.138,82.031,8050.06,82.086,8050.038Z" fill="#fff"/>
      <path id="パス_4543" data-name="パス 4543" d="M30.321,8084.889c-4.683-.525-10.787,4.143-6.495,9.716,4.548,5.9,12.948,2.686,13.715-2.309.322-2.1-.853-4.238-3.225-5.872A9.021,9.021,0,0,0,30.321,8084.889Z" fill="#fff"/>
      <path id="パス_4544" data-name="パス 4544" d="M106.6,7993.212c-5.252.379-9.327,10.034-3.085,15.052,4.95,3.978,11.907.6,11.138-7.48a8.094,8.094,0,0,0-3.663-6.248A7.251,7.251,0,0,0,106.6,7993.212Z" fill="#fff"/>
      <path id="パス_4545" data-name="パス 4545" d="M19.625,8100.327a9.394,9.394,0,0,0-4.163-1.529c-3.687-.27-8.265,3.645-4.521,7.793,4.71,5.219,11.6,2.737,11.894-1.571C22.912,8103.883,22.417,8102.146,19.625,8100.327Z" fill="#fff"/>
      <path id="パス_4546" data-name="パス 4546" d="M138.043,7947.794c-2.941,1.3.029,11.82,5.018,13.554,4.19,1.458,2.958-5.447,1.773-8.1a10.706,10.706,0,0,0-3.913-4.694C140.288,7948.174,138.972,7947.383,138.043,7947.794Z" fill="#fff"/>
      <path id="パス_4547" data-name="パス 4547" d="M115.1,7987.93c5.025,3.406,9.028-1.629,7.849-7.484a8.476,8.476,0,0,0-3.843-5.541,5.674,5.674,0,0,0-4.234-1.112C111.409,7974.592,108.346,7983.355,115.1,7987.93Z" fill="#fff"/>
      <path id="パス_4548" data-name="パス 4548" d="M68.525,8026.814c.355-3.3-2.1-5.672-3.277-6.813a10.017,10.017,0,0,0-4.048-1.512c-5.445-.545-10.385,7.092-6.306,12.115C60.586,8037.613,67.927,8032.376,68.525,8026.814Z" fill="#fff"/>
      <path id="パス_4549" data-name="パス 4549" d="M6.98,8080.292c.969,1.072,3.577,3.5,6.859,2.853,4.721-.926,4.914-4.012,4.988-5.174.176-2.812-1.816-4.43-2.886-5.3a8.885,8.885,0,0,0-4.177-1.769C7.213,8070.478,2.809,8075.678,6.98,8080.292Z" fill="#fff"/>
      <path id="パス_4550" data-name="パス 4550" d="M27.526,8054.551c-4.993-.565-9.656,5.642-6.18,10.2,5.242,6.88,12.491,2.775,13.259-2.226.476-3.107-2.187-5.6-3.468-6.795A11.012,11.012,0,0,0,27.526,8054.551Z" fill="#fff"/>
      <path id="パス_4551" data-name="パス 4551" d="M79.63,8000.778a9.363,9.363,0,0,0-4-1.341c-4.65-.227-9.644,7.217-4.977,12.161,6.3,6.669,12.135.261,12.456-4.34C83.343,8003.88,80.74,8001.706,79.63,8000.778Z" fill="#fff"/>
      <path id="パス_4552" data-name="パス 4552" d="M7.587,8112.156a8.482,8.482,0,0,0-5.329-1.483c-1.784.278-5.495,2.93-.713,6.768,4.626,3.714,9.327,1.607,8.956-1.708C10.3,8113.916,8.4,8112.683,7.587,8112.156Z" fill="#fff"/>
      <path id="パス_4553" data-name="パス 4553" d="M91.722,7981.4a6.915,6.915,0,0,0-4.119-1.2c-5.122.527-7.442,8.97-2.123,12.923s10.337-.835,10.134-5.743C95.547,7985.764,94.818,7983.412,91.722,7981.4Z" fill="#fff"/>
      <path id="パス_4554" data-name="パス 4554" d="M96.959,7973.6c4.055,2.7,8.736.068,7.565-5.884a7.877,7.877,0,0,0-3.738-5.267,5.92,5.92,0,0,0-3.78-1C93.206,7962.092,90.833,7969.515,96.959,7973.6Z" fill="#fff"/>
      <path id="パス_4555" data-name="パス 4555" d="M119.1,7962.118a10.71,10.71,0,0,0,4.719,6.674c4.122,2.263,6.415-2.257,4.92-7.143a9.161,9.161,0,0,0-4.1-5.17c-.724-.415-2.229-1.275-3.5-.883C118.77,7956.329,118.864,7960.944,119.1,7962.118Z" fill="#fff"/>
      <path id="パス_4556" data-name="パス 4556" d="M125.155,7938.2c-.629-.338-1.937-1.038-2.913-.665-2.664,1.016-.614,9.58,4.78,11.7,1.983.778,4.951-.91,2.223-6.476A10.431,10.431,0,0,0,125.155,7938.2Z" fill="#fff"/>
      <path id="パス_4557" data-name="パス 4557" d="M-5.839,8093.462c1.115,1.183,3.712,3.082,6.365,2.689,4.022-.6,4.021-3.048,4.02-4.227,0-1.762-.953-3.347-2.832-4.712a8.744,8.744,0,0,0-4.2-1.684C-6.318,8085.263-9.544,8089.532-5.839,8093.462Z" fill="#fff"/>
      <path id="パス_4558" data-name="パス 4558" d="M134.936,7930.08c-1.986,1.279,2.619,10.7,6.737,11.585,1.274.274,2.716-1.762-.384-6.779a12.056,12.056,0,0,0-4.13-4.32C136.638,7930.278,135.555,7929.681,134.936,7930.08Z" fill="#fff"/>
      <path id="パス_4559" data-name="パス 4559" d="M37.347,8047.912c5.6,7.251,13.031,2.27,13.71-3.289.39-3.2-1.914-5.419-3.021-6.488a10.248,10.248,0,0,0-4.083-1.71C38.777,8035.713,33.551,8043,37.347,8047.912Z" fill="#fff"/>
      <path id="パス_4560" data-name="パス 4560" d="M111.008,7948.392a8.945,8.945,0,0,0-3.905-4.614,4.594,4.594,0,0,0-2.947-.726c-3.686.765-2.5,8.016,1.734,10.628C109.616,7955.977,112.581,7952.913,111.008,7948.392Z" fill="#fff"/>
      <path id="パス_4561" data-name="パス 4561" d="M31.28,8028.02c.444-2.912-1.6-5.2-2.371-6.059a8.836,8.836,0,0,0-3.442-1.432c-4.674-.691-8.789,5.266-5.383,9.833C24.469,8036.244,30.606,8032.43,31.28,8028.02Z" fill="#fff"/>
      <path id="パス_4562" data-name="パス 4562" d="M47.218,8009.647a6.9,6.9,0,0,0-2.878-6.163,6.021,6.021,0,0,0-2.991-1.291c-3.795-.424-9.474,4.451-4.764,10.8C39.4,8016.784,46.443,8015.361,47.218,8009.647Z" fill="#fff"/>
      <path id="パス_4563" data-name="パス 4563" d="M53.815,7993.845c3.846,4.255,10.1,1.988,10.146-3.676a6.536,6.536,0,0,0-2.89-5.379,6.146,6.146,0,0,0-3.013-1.218C53.8,7983.2,49.664,7989.252,53.815,7993.845Z" fill="#fff"/>
      <path id="パス_4564" data-name="パス 4564" d="M121.752,7921.626c-.575-.286-1.646-.819-2.2-.409-.863.634.139,3.609,1.249,5.216a9.561,9.561,0,0,0,5.154,4.048c2.035.366,1.508-2.84-.369-5.5A10.782,10.782,0,0,0,121.752,7921.626Z" fill="#fff"/>
      <path id="パス_4565" data-name="パス 4565" d="M67.764,7975.371c5.174,4.5,8.364-.907,8.259-3.714-.093-2.5-2.147-4.227-3.133-5.059a6.3,6.3,0,0,0-3.009-.909C66.6,7965.759,63.328,7971.514,67.764,7975.371Z" fill="#fff"/>
      <path id="パス_4566" data-name="パス 4566" d="M135.865,7922.992c1.331.013-.284-3.214-2.005-5.249a14.724,14.724,0,0,0-3.5-3.012c-.52-.264-1.49-.754-1.856-.437-.575.5,1,3.365,2.686,5.362C132.744,7921.493,135.019,7922.983,135.865,7922.992Z" fill="#fff"/>
      <path id="パス_4567" data-name="パス 4567" d="M85.293,7952.989a6.154,6.154,0,0,0-2.848-3.9,5.17,5.17,0,0,0-3.55-.961c-2.387.522-4.508,5.952.169,9.1C83.161,7959.993,86.021,7956.5,85.293,7952.989Z" fill="#fff"/>
      <path id="パス_4568" data-name="パス 4568" d="M107.943,7927.077c-.652-.339-1.868-.967-2.674-.591-1.973.923-.346,7.482,4.686,9.05,2.733.851,2.867-2.411,1.507-4.99A8.484,8.484,0,0,0,107.943,7927.077Z" fill="#fff"/>
      <path id="パス_4569" data-name="パス 4569" d="M-10.185,8063.593c4.463,5.279,9.354,2.063,9.534-1.851.075-1.614-.792-3.207-2.574-4.735A6.318,6.318,0,0,0-6.7,8055.4,4.872,4.872,0,0,0-10.185,8063.593Z" fill="#fff"/>
      <path id="パス_4570" data-name="パス 4570" d="M15.058,8045.167a6.3,6.3,0,0,0-2.4-5.034,6.634,6.634,0,0,0-4.114-1.818c-3.822-.083-7.934,5.4-3.357,10.357A5.616,5.616,0,0,0,15.058,8045.167Z" fill="#fff"/>
      <path id="パス_4571" data-name="パス 4571" d="M-22.058,8078.583c4.262,3.829,7.469.46,7.341-2.013-.09-1.729-1.48-3.29-2.074-3.957-.794-.595-2.444-1.835-4.148-1.785C-23.585,8070.906-26.427,8074.66-22.058,8078.583Z" fill="#fff"/>
      <path id="パス_4572" data-name="パス 4572" d="M-11.768,8099.117c-.868-.506-2.673-1.559-4.314-1.393-2.2.222-4.44,3.267-.322,6.546,5.186,4.129,7.753.775,7.48-1.311C-9.148,8101.245-10.917,8099.808-11.768,8099.117Z" fill="#fff"/>
      <path id="パス_4573" data-name="パス 4573" d="M119.369,7912.215c1.519.088.173-2.248-1.419-3.894a16.4,16.4,0,0,0-3.9-2.911c-.356-.087-1.1-.266-1.423-.035C111.286,7906.323,116.955,7912.077,119.369,7912.215Z" fill="#fff"/>
      <path id="パス_4574" data-name="パス 4574" d="M126.64,7906.852c.611,0,.063-.943-.319-1.5a10.655,10.655,0,0,0-2.315-2.379,13.224,13.224,0,0,0-3.014-2.118c-.655-.3-1.127-.385-1.261-.221C119.06,7901.444,125.065,7906.853,126.64,7906.852Z" fill="#fff"/>
      <path id="パス_4575" data-name="パス 4575" d="M56.873,7956.534a4.344,4.344,0,0,0-1.77-3.193,4.5,4.5,0,0,0-2.509-1.007c-2.863-.053-4.526,4.589-1.753,7.205C53.266,7961.825,57.091,7960.491,56.873,7956.534Z" fill="#fff"/>
      <path id="パス_4576" data-name="パス 4576" d="M42.046,7978.2c1.2-.486,2.45-.988,2.595-3.781a5.327,5.327,0,0,0-1.963-4.3,3.852,3.852,0,0,0-2.026-.88c-3.47-.346-6.531,4.186-3.056,8.019A3.673,3.673,0,0,0,42.046,7978.2Z" fill="#fff"/>
      <path id="パス_4577" data-name="パス 4577" d="M-33.856,8083.678c-2.226.258-2.687,3.862.629,6.264,3.665,2.655,5.6.576,5.253-1.558a7.055,7.055,0,0,0-2.32-3.582A6.737,6.737,0,0,0-33.856,8083.678Z" fill="#fff"/>
      <path id="パス_4578" data-name="パス 4578" d="M-7.29,8030.965c2.768-.761,2.956-2.378,3.12-3.8a4.865,4.865,0,0,0-1.392-4.326,5.29,5.29,0,0,0-3.011-1.494c-3.723-.421-5.841,4.827-3.194,7.909A4.547,4.547,0,0,0-7.29,8030.965Z" fill="#fff"/>
      <path id="パス_4579" data-name="パス 4579" d="M86.456,7939.266c2.4,1.586,5.652.139,4.323-3.673a6.931,6.931,0,0,0-3.026-3.549,3.759,3.759,0,0,0-2.331-.6c-1.511.27-1.957,2.155-1.793,3.408C83.937,7937.173,86.431,7939.25,86.456,7939.266Z" fill="#fff"/>
      <path id="パス_4580" data-name="パス 4580" d="M108.158,7918.236c1.221.168,1.194-.97,1.176-1.2-.061-.783-.089-1.139-1.492-2.861a9.052,9.052,0,0,0-2.967-2.5c-1.009-.495-1.8-.6-2.166-.281C101.436,7912.491,105.192,7917.827,108.158,7918.236Z" fill="#fff"/>
      <path id="パス_4581" data-name="パス 4581" d="M26,7995.063c2.858-1.1,2.916-2.342,3.012-4.394a4.646,4.646,0,0,0-1.539-3.974,5.054,5.054,0,0,0-3.32-1.365c-3.545.025-6.04,5.221-3.07,8.4A4.386,4.386,0,0,0,26,7995.063Z" fill="#fff"/>
      <path id="パス_4582" data-name="パス 4582" d="M13.3,8008.735c.311-2.373-1.31-4.393-2-5.255a13.449,13.449,0,0,0-2.121-.61c-4.783-.841-6.583,4.888-4.407,7.834C7.734,8014.717,12.755,8012.891,13.3,8008.735Z" fill="#fff"/>
      <path id="パス_4583" data-name="パス 4583" d="M88.5,7917.014c-1.391.881.121,5,3.359,6.063,2.087.687,1.952-1.866,1.246-3.163a8.287,8.287,0,0,0-2.559-2.572C90.111,7917.131,89.094,7916.639,88.5,7917.014Z" fill="#fff"/>
      <path id="パス_4584" data-name="パス 4584" d="M-19.983,8043.5a4.607,4.607,0,0,0-1.514-3.411,4.378,4.378,0,0,0-2.706-1.464c-2.255-.124-4.794,3.6-2.023,6.7C-23.1,8048.818-20.122,8046.243-19.983,8043.5Z" fill="#fff"/>
      <path id="パス_4585" data-name="パス 4585" d="M66.045,7939.678a4.079,4.079,0,0,0-1.9-2.764,3.06,3.06,0,0,0-1.827-.653c-1.68.14-3.439,3.471-.369,5.891C64.74,7944.351,66.284,7941.52,66.045,7939.678Z" fill="#fff"/>
      <path id="パス_4586" data-name="パス 4586" d="M-37.245,8054.354a4.95,4.95,0,0,0-1.71-.687c-1.95-.278-3.553,2.435-1.55,4.935,2.483,3.1,4.865,1.535,5.033-.572C-35.351,8056.489-36.631,8055.048-37.245,8054.354Z" fill="#fff"/>
      <path id="パス_4587" data-name="パス 4587" d="M90.259,7907.271c1.011.06.818-1.135-.016-2.165a8.15,8.15,0,0,0-2.358-1.926c-.261-.12-.873-.4-1.2-.127-.279.235-.371,1.022.57,2.132C88.663,7906.846,89.665,7907.236,90.259,7907.271Z" fill="#fff"/>
      <path id="パス_4588" data-name="パス 4588" d="M101.8,7902.457c.829-.019-.053-1.424-1.051-2.363a11.141,11.141,0,0,0-2.59-1.76c-.323-.106-.926-.307-1.154-.125C96.159,7898.881,100.237,7902.494,101.8,7902.457Z" fill="#fff"/>
      <path id="パス_4589" data-name="パス 4589" d="M69.481,7925.686c2.2,1.166,3.031-.509,2.495-2.164a5.849,5.849,0,0,0-2.117-2.585,6.479,6.479,0,0,0-1.522.147C67,7921.572,67.493,7924.634,69.481,7925.686Z" fill="#fff"/>
      <path id="パス_4590" data-name="パス 4590" d="M-38.86,8097.073c-1.357-1.037-2.156-1.107-2.586-.985-1.5.428-.872,3.181,2.154,4.815,1.6.865,2.784.142,2.342-1.431A5.275,5.275,0,0,0-38.86,8097.073Z" fill="#fff"/>
      <path id="パス_4591" data-name="パス 4591" d="M109.824,7897.394c.622-.076-.7-1.466-1.893-2.365a12.312,12.312,0,0,0-2.659-1.535c-.239-.068-.735-.21-.874-.081C103.8,7893.965,108.667,7897.537,109.824,7897.394Z" fill="#fff"/>
      <path id="パス_4592" data-name="パス 4592" d="M25.628,7960.336a2.029,2.029,0,0,0,1.5-1.993,3.408,3.408,0,0,0-.932-2.7,1.78,1.78,0,0,0-1.1-.509c-2.024-.16-3.842,2.4-1.977,4.752A2,2,0,0,0,25.628,7960.336Z" fill="#fff"/>
      <path id="パス_4593" data-name="パス 4593" d="M111.65,7891.28c.026-.006.594-.181-2.117-1.9a12.322,12.322,0,0,0-2.207-1.2c-.487-.177-.618-.125-.653-.079C106.4,7888.466,111.052,7891.434,111.65,7891.28Z" fill="#fff"/>
      <path id="パス_4594" data-name="パス 4594" d="M-48.4,8069.007a2.8,2.8,0,0,0-1.878-.875c-1.964.1-1.8,2.882.267,4.588a2.1,2.1,0,0,0,2.141.522c.5-.191.967-.371.837-1.662h0A4.172,4.172,0,0,0-48.4,8069.007Z" fill="#fff"/>
      <path id="パス_4595" data-name="パス 4595" d="M9.554,7975.954c1.156-.41,1.592-1,1.793-2.437a2.646,2.646,0,0,0-.677-2.332,2.6,2.6,0,0,0-1.606-.794c-2.076-.2-3.528,2.962-2.157,4.7A2.353,2.353,0,0,0,9.554,7975.954Z" fill="#fff"/>
      <path id="パス_4596" data-name="パス 4596" d="M-6.477,7992.588A2.389,2.389,0,0,0-4.6,7990.26a2.775,2.775,0,0,0-.551-2.577,3,3,0,0,0-1.626-.866c-2.5-.435-3.538,3.186-2.387,4.739A2.692,2.692,0,0,0-6.477,7992.588Z" fill="#fff"/>
    </g>
    <g id="グループ_465" data-name="グループ 465" transform="translate(-2206 426)" opacity="0.21">
      <path id="パス_4597" data-name="パス 4597" d="M1675.412,7903.131c-82.462,0-149.552,67.09-149.552,149.554s67.09,149.553,149.552,149.553,149.554-67.089,149.554-149.553S1757.877,7903.131,1675.412,7903.131Zm-136.819,149.554c0-75.443,61.378-136.82,136.819-136.82a136.5,136.5,0,0,1,104.269,48.443c-.31-.2-.616-.391-.892-.532-.387-.187-.508-.224-.593-.182-.079.328,1.949,2.076,3.7,3.377a136.214,136.214,0,0,1,27.86,60.207c-2.112,1.3-1.082,8.741,1.842,13.028.223,2.445.285,4.93.376,7.409a3.781,3.781,0,0,0-1.947-.8c-4.4.115-3.842,13.25.729,17.14a3.807,3.807,0,0,0,.877.513c-.2,2.38-.531,4.718-.856,7.062a8.573,8.573,0,0,0-2.1-2.885,4.1,4.1,0,0,0-3.04-1.165c-3.888.531-7.712,12.861-1.559,18.346a3.281,3.281,0,0,0,3.7.857,136.042,136.042,0,0,1-17.711,40.411,20.851,20.851,0,0,0-1.357,2.2,137.587,137.587,0,0,1-11.147,14.1,18.157,18.157,0,0,0-4.254,4.679,137.55,137.55,0,0,1-32.474,24.742,10.207,10.207,0,0,0,1.133-2.119,4.418,4.418,0,0,0-1.879-5.622,7.9,7.9,0,0,0-1.5-.771c-6.9-2.673-16.22,4.822-13.472,10.837.776,1.7,2.765,2.634,5.112,2.824-1.878.825-3.805,1.544-5.726,2.287a5.42,5.42,0,0,0-1.351-1.181,9.642,9.642,0,0,0-2.03-.915c-5.178-1.543-11.882,2.832-11.782,6.925a135.553,135.553,0,0,1-14.277,2.855,5.4,5.4,0,0,0,1.191-2.028c.382-2.354-1.821-3.79-2.761-4.4a9.734,9.734,0,0,0-3.508-1.292c-4.87-.747-9.642,3.367-6.735,7.209a8.394,8.394,0,0,0,1.689,1.61c-3.164.22-6.317.483-9.536.483a136.162,136.162,0,0,1-36.32-5.048,1.692,1.692,0,0,0,.937-2.287,8.1,8.1,0,0,0-2.918-3.186c-.767-.389-2.8-1.42-4.028-.881-1.473.649-1.179,3.316,2.485,5.445C1579.506,8166.444,1538.593,8114.268,1538.593,8052.685Z" fill="#fff"/>
      <path id="パス_4598" data-name="パス 4598" d="M1786.71,8108.928c-7.031-.813-13.475,11.729-8.954,17.429,5.42,6.832,13.089-1.5,14.1-8.482a10.126,10.126,0,0,0-2.305-8.034A8.308,8.308,0,0,0,1786.71,8108.928Z" fill="#fff"/>
      <path id="パス_4599" data-name="パス 4599" d="M1772.445,8130.409c-7.875-1.824-15.64,9.582-12.284,15.081,4.457,7.309,14.567.781,16.482-6.647a8.138,8.138,0,0,0-1.868-7.558A11.262,11.262,0,0,0,1772.445,8130.409Z" fill="#fff"/>
      <path id="パス_4600" data-name="パス 4600" d="M1758.328,8149.5a10.533,10.533,0,0,0-1.371-.765c-6.589-2.771-17.13,6.47-14.276,12.518a6.808,6.808,0,0,0,8.085,3.4c6.03-1.762,8.5-5.617,9.508-8.541C1761.636,8152.168,1759.484,8150.435,1758.328,8149.5Z" fill="#fff"/>
      <path id="パス_4601" data-name="パス 4601" d="M1797.166,8087.68c-5.512.059-10.38,13.245-5.249,18.723,4.492,4.8,10.881-.857,11.208-9.914.17-4.706-1.709-6.539-2.612-7.42A5.084,5.084,0,0,0,1797.166,8087.68Z" fill="#fff"/>
      <path id="パス_4602" data-name="パス 4602" d="M1789.517,8083.54a9.763,9.763,0,0,0-3.737-7.154,7.434,7.434,0,0,0-4.027-1.057c-5.263.436-9.684,11.334-3.615,16.686C1785.333,8098.36,1789.69,8088.306,1789.517,8083.54Z" fill="#fff"/>
      <path id="パス_4603" data-name="パス 4603" d="M1760.56,8117.922a8.67,8.67,0,0,0-4.519-1.695c-6.253-.34-13.348,9.6-8.951,15.009,5.635,6.928,15.339,1.707,16.463-6.643A6.727,6.727,0,0,0,1760.56,8117.922Z" fill="#fff"/>
      <path id="パス_4604" data-name="パス 4604" d="M1777.982,8104.606a8.284,8.284,0,0,0-7.043-8.723c-6.134-.576-12.389,10.659-7.308,16.307C1769.83,8119.077,1777.423,8112.215,1777.982,8104.606Z" fill="#fff"/>
      <path id="パス_4605" data-name="パス 4605" d="M1726.1,8153.062a12.49,12.49,0,0,0-3.179-1.365c-6.988-1.807-13.644,5.9-10.908,10.477,4.4,7.345,14.693,3.36,16.543-2.883C1729.477,8156.188,1727.2,8154.076,1726.1,8153.062Z" fill="#fff"/>
      <path id="パス_4606" data-name="パス 4606" d="M1747.007,8143.08c.717-3.616-1.717-5.433-2.887-6.306a9.758,9.758,0,0,0-3.59-1.542c-6.616-1.272-14.129,7.751-10.719,12.874C1734.243,8154.762,1745.331,8151.521,1747.007,8143.08Z" fill="#fff"/>
      <path id="パス_4607" data-name="パス 4607" d="M1708.408,8169a10.544,10.544,0,0,0-3.083-1.353c-6.159-1.527-11.831,4.744-9.463,8.6a8.906,8.906,0,0,0,8.3,3.587c1.646-.253,6.093-1.81,6.89-5.921h0C1711.577,8171.195,1709.437,8169.709,1708.408,8169Z" fill="#fff"/>
      <path id="パス_4608" data-name="パス 4608" d="M1797.39,8062.251a8.872,8.872,0,0,0-3.581-6.2,5.685,5.685,0,0,0-3.978-1.215c-4.205.708-7.35,11.385-.529,16.455C1794.047,8074.823,1798.583,8069.752,1797.39,8062.251Z" fill="#fff"/>
      <path id="パス_4609" data-name="パス 4609" d="M1753.16,8082.288c-5.607-.46-12.469,8.035-6,15.485,3.652,4.2,13.125,1.872,13.72-6.574a8.178,8.178,0,0,0-3.938-7.5A8.5,8.5,0,0,0,1753.16,8082.288Z" fill="#fff"/>
      <path id="パス_4610" data-name="パス 4610" d="M1704.606,8138.3c-5.818-1-12.121,5.723-8.473,10.969a8.668,8.668,0,0,0,8.7,3.478c4.854-.971,6.293-4.1,6.647-6.547.356-2.475-.661-4.581-3.022-6.26A10.116,10.116,0,0,0,1704.606,8138.3Z" fill="#fff"/>
      <path id="パス_4611" data-name="パス 4611" d="M1713.17,8134.151c4.1,5.488,13.852,2.46,15.12-4.694.281-1.583.2-4.643-3.514-7.348a8.915,8.915,0,0,0-3.6-1.525C1715.524,8119.7,1707.6,8126.7,1713.17,8134.151Z" fill="#fff"/>
      <path id="パス_4612" data-name="パス 4612" d="M1798.765,8036.634a4.47,4.47,0,0,0-3.267-.934c-4.236.944-3.521,12.452,2.388,15.637,3.262,1.757,6.806-1.71,4.7-8.974A9.9,9.9,0,0,0,1798.765,8036.634Z" fill="#fff"/>
      <path id="パス_4613" data-name="パス 4613" d="M1740,8119.191a10.574,10.574,0,0,0,6.007-8.157c.4-4.076-2.412-6.249-3.61-7.177a8.944,8.944,0,0,0-3.858-1.586c-5.829-.753-13.575,7.3-7.312,15.021C1734.467,8121.292,1739.944,8119.213,1740,8119.191Z" fill="#fff"/>
      <path id="パス_4614" data-name="パス 4614" d="M1688.233,8154.043c-4.683-.526-10.786,4.143-6.494,9.715,4.548,5.905,12.948,2.686,13.714-2.309.322-2.1-.853-4.238-3.225-5.872A9,9,0,0,0,1688.233,8154.043Z" fill="#fff"/>
      <path id="パス_4615" data-name="パス 4615" d="M1764.512,8062.366c-5.253.379-9.328,10.034-3.085,15.051,4.95,3.978,11.906.6,11.138-7.479a8.1,8.1,0,0,0-3.664-6.249A7.249,7.249,0,0,0,1764.512,8062.366Z" fill="#fff"/>
      <path id="パス_4616" data-name="パス 4616" d="M1677.538,8169.48a9.4,9.4,0,0,0-4.163-1.529c-3.688-.27-8.266,3.645-4.522,7.794,4.71,5.218,11.6,2.736,11.9-1.572C1680.824,8173.036,1680.329,8171.3,1677.538,8169.48Z" fill="#fff"/>
      <path id="パス_4617" data-name="パス 4617" d="M1795.955,8016.947c-2.94,1.3.03,11.82,5.018,13.555,4.19,1.457,2.958-5.448,1.773-8.1a10.7,10.7,0,0,0-3.913-4.694C1798.2,8017.327,1796.884,8016.536,1795.955,8016.947Z" fill="#fff"/>
      <path id="パス_4618" data-name="パス 4618" d="M1773.01,8057.084c5.025,3.406,9.028-1.63,7.849-7.485a8.473,8.473,0,0,0-3.843-5.541,5.67,5.67,0,0,0-4.233-1.112C1769.322,8043.746,1766.259,8052.508,1773.01,8057.084Z" fill="#fff"/>
      <path id="パス_4619" data-name="パス 4619" d="M1726.437,8095.967c.355-3.3-2.1-5.672-3.277-6.812a9.99,9.99,0,0,0-4.048-1.513c-5.445-.545-10.385,7.093-6.306,12.115C1718.5,8106.766,1725.839,8101.529,1726.437,8095.967Z" fill="#fff"/>
      <path id="パス_4620" data-name="パス 4620" d="M1664.893,8149.445c.968,1.072,3.577,3.5,6.859,2.853,4.72-.925,4.914-4.012,4.987-5.174.176-2.812-1.816-4.429-2.886-5.3a8.876,8.876,0,0,0-4.177-1.769C1665.125,8139.631,1660.721,8144.831,1664.893,8149.445Z" fill="#fff"/>
      <path id="パス_4621" data-name="パス 4621" d="M1685.438,8123.7c-4.993-.565-9.656,5.642-6.18,10.2,5.243,6.88,12.492,2.775,13.259-2.226.477-3.107-2.187-5.6-3.468-6.795A10.981,10.981,0,0,0,1685.438,8123.7Z" fill="#fff"/>
      <path id="パス_4622" data-name="パス 4622" d="M1737.542,8069.931a9.359,9.359,0,0,0-4-1.34c-4.65-.228-9.644,7.216-4.976,12.16,6.3,6.669,12.134.261,12.455-4.34C1741.256,8073.033,1738.653,8070.859,1737.542,8069.931Z" fill="#fff"/>
      <path id="パス_4623" data-name="パス 4623" d="M1665.5,8181.309a8.477,8.477,0,0,0-5.329-1.483c-1.784.278-5.494,2.93-.713,6.769,4.626,3.713,9.327,1.606,8.957-1.709C1668.209,8183.069,1666.31,8181.836,1665.5,8181.309Z" fill="#fff"/>
      <path id="パス_4624" data-name="パス 4624" d="M1749.634,8050.557a6.909,6.909,0,0,0-4.119-1.2c-5.122.527-7.442,8.971-2.123,12.923s10.338-.834,10.134-5.743C1753.459,8054.917,1752.73,8052.565,1749.634,8050.557Z" fill="#fff"/>
      <path id="パス_4625" data-name="パス 4625" d="M1754.871,8042.751c4.055,2.7,8.736.068,7.565-5.884a7.876,7.876,0,0,0-3.737-5.267,5.92,5.92,0,0,0-3.781-1C1751.118,8031.245,1748.746,8038.668,1754.871,8042.751Z" fill="#fff"/>
      <path id="パス_4626" data-name="パス 4626" d="M1777.015,8031.272a10.712,10.712,0,0,0,4.719,6.674c4.123,2.262,6.415-2.258,4.92-7.144a9.161,9.161,0,0,0-4.1-5.17c-.724-.414-2.229-1.274-3.5-.883C1776.682,8025.483,1776.777,8030.1,1777.015,8031.272Z" fill="#fff"/>
      <path id="パス_4627" data-name="パス 4627" d="M1783.067,8007.353c-.628-.337-1.937-1.038-2.913-.665-2.663,1.017-.613,9.58,4.781,11.7,1.982.777,4.951-.91,2.223-6.477A10.443,10.443,0,0,0,1783.067,8007.353Z" fill="#fff"/>
      <path id="パス_4628" data-name="パス 4628" d="M1652.074,8162.616c1.115,1.183,3.711,3.081,6.365,2.688,4.021-.6,4.02-3.048,4.019-4.227,0-1.762-.953-3.347-2.832-4.712a8.754,8.754,0,0,0-4.2-1.684C1651.594,8154.416,1648.369,8158.685,1652.074,8162.616Z" fill="#fff"/>
      <path id="パス_4629" data-name="パス 4629" d="M1792.848,7999.233c-1.985,1.28,2.619,10.7,6.738,11.585,1.273.274,2.716-1.762-.385-6.779a12.037,12.037,0,0,0-4.13-4.319C1794.55,7999.432,1793.467,7998.835,1792.848,7999.233Z" fill="#fff"/>
      <path id="パス_4630" data-name="パス 4630" d="M1695.26,8117.065c5.6,7.251,13.03,2.271,13.709-3.289.39-3.195-1.913-5.419-3.02-6.487a10.24,10.24,0,0,0-4.083-1.711C1696.689,8104.866,1691.464,8112.152,1695.26,8117.065Z" fill="#fff"/>
      <path id="パス_4631" data-name="パス 4631" d="M1768.92,8017.545a8.951,8.951,0,0,0-3.9-4.614,4.594,4.594,0,0,0-2.948-.725c-3.686.764-2.5,8.015,1.734,10.627C1767.528,8025.13,1770.494,8022.067,1768.92,8017.545Z" fill="#fff"/>
      <path id="パス_4632" data-name="パス 4632" d="M1689.192,8097.174c.444-2.913-1.6-5.2-2.371-6.06a8.8,8.8,0,0,0-3.442-1.431c-4.674-.691-8.789,5.265-5.383,9.832C1682.382,8105.4,1688.519,8101.583,1689.192,8097.174Z" fill="#fff"/>
      <path id="パス_4633" data-name="パス 4633" d="M1705.13,8078.8a6.9,6.9,0,0,0-2.878-6.163,6.007,6.007,0,0,0-2.991-1.291c-3.794-.424-9.474,4.451-4.764,10.8C1697.31,8085.937,1704.355,8084.514,1705.13,8078.8Z" fill="#fff"/>
      <path id="パス_4634" data-name="パス 4634" d="M1711.728,8063c3.845,4.255,10.1,1.988,10.145-3.677a6.536,6.536,0,0,0-2.89-5.379,6.152,6.152,0,0,0-3.013-1.218C1711.711,8052.354,1707.576,8058.406,1711.728,8063Z" fill="#fff"/>
      <path id="パス_4635" data-name="パス 4635" d="M1779.665,7990.78c-.575-.287-1.646-.819-2.2-.41-.863.634.139,3.609,1.25,5.217a9.555,9.555,0,0,0,5.154,4.047c2.034.366,1.508-2.84-.369-5.5A10.788,10.788,0,0,0,1779.665,7990.78Z" fill="#fff"/>
      <path id="パス_4636" data-name="パス 4636" d="M1725.676,8044.524c5.175,4.5,8.365-.907,8.26-3.713-.093-2.5-2.148-4.228-3.134-5.06a6.332,6.332,0,0,0-3.009-.909C1724.507,8034.912,1721.24,8040.667,1725.676,8044.524Z" fill="#fff"/>
      <path id="パス_4637" data-name="パス 4637" d="M1793.777,7992.145c1.332.014-.284-3.214-2-5.249a14.812,14.812,0,0,0-3.5-3.012c-.521-.263-1.491-.754-1.857-.436-.575.5,1,3.364,2.687,5.361C1790.657,7990.646,1792.931,7992.137,1793.777,7992.145Z" fill="#fff"/>
      <path id="パス_4638" data-name="パス 4638" d="M1743.2,8022.142a6.15,6.15,0,0,0-2.847-3.9,5.175,5.175,0,0,0-3.551-.962c-2.386.523-4.508,5.952.169,9.1C1741.073,8029.146,1743.933,8025.658,1743.2,8022.142Z" fill="#fff"/>
      <path id="パス_4639" data-name="パス 4639" d="M1765.856,7996.23c-.653-.339-1.869-.967-2.675-.591-1.972.923-.346,7.482,4.686,9.05,2.733.851,2.867-2.411,1.507-4.99A8.485,8.485,0,0,0,1765.856,7996.23Z" fill="#fff"/>
      <path id="パス_4640" data-name="パス 4640" d="M1647.727,8132.746c4.464,5.28,9.354,2.063,9.535-1.851.074-1.614-.792-3.207-2.574-4.734a6.3,6.3,0,0,0-3.476-1.611A4.871,4.871,0,0,0,1647.727,8132.746Z" fill="#fff"/>
      <path id="パス_4641" data-name="パス 4641" d="M1672.971,8114.321a6.3,6.3,0,0,0-2.4-5.035,6.632,6.632,0,0,0-4.113-1.818c-3.823-.083-7.935,5.4-3.357,10.357A5.616,5.616,0,0,0,1672.971,8114.321Z" fill="#fff"/>
      <path id="パス_4642" data-name="パス 4642" d="M1635.854,8147.737c4.263,3.828,7.469.46,7.341-2.013a7.163,7.163,0,0,0-2.074-3.958c-.794-.6-2.444-1.835-4.148-1.784C1634.327,8140.059,1631.486,8143.814,1635.854,8147.737Z" fill="#fff"/>
      <path id="パス_4643" data-name="パス 4643" d="M1646.144,8168.27c-.868-.506-2.673-1.558-4.314-1.393-2.2.222-4.439,3.267-.321,6.546,5.185,4.13,7.752.775,7.479-1.311C1648.764,8170.4,1646.995,8168.961,1646.144,8168.27Z" fill="#fff"/>
      <path id="パス_4644" data-name="パス 4644" d="M1777.282,7981.368c1.518.088.173-2.247-1.42-3.893a16.377,16.377,0,0,0-3.9-2.912c-.355-.087-1.095-.266-1.422-.035C1769.2,7975.476,1774.868,7981.23,1777.282,7981.368Z" fill="#fff"/>
      <path id="パス_4645" data-name="パス 4645" d="M1784.552,7976c.611,0,.063-.943-.318-1.5a10.714,10.714,0,0,0-2.316-2.379,13.264,13.264,0,0,0-3.013-2.118c-.655-.3-1.127-.385-1.262-.221C1776.973,7970.6,1782.977,7976.006,1784.552,7976Z" fill="#fff"/>
      <path id="パス_4646" data-name="パス 4646" d="M1714.785,8025.687a4.346,4.346,0,0,0-1.769-3.193,4.518,4.518,0,0,0-2.509-1.007c-2.863-.052-4.527,4.589-1.754,7.205C1711.178,8030.978,1715,8029.644,1714.785,8025.687Z" fill="#fff"/>
      <path id="パス_4647" data-name="パス 4647" d="M1699.958,8047.354c1.2-.486,2.45-.988,2.6-3.78a5.332,5.332,0,0,0-1.964-4.3,3.852,3.852,0,0,0-2.025-.88c-3.471-.345-6.532,4.186-3.057,8.02A3.672,3.672,0,0,0,1699.958,8047.354Z" fill="#fff"/>
      <path id="パス_4648" data-name="パス 4648" d="M1624.056,8152.831c-2.226.258-2.687,3.862.63,6.264,3.664,2.656,5.6.576,5.252-1.558a7.057,7.057,0,0,0-2.32-3.582A6.739,6.739,0,0,0,1624.056,8152.831Z" fill="#fff"/>
      <path id="パス_4649" data-name="パス 4649" d="M1650.622,8100.119c2.768-.762,2.956-2.379,3.121-3.805a4.871,4.871,0,0,0-1.392-4.326,5.293,5.293,0,0,0-3.012-1.494c-3.722-.42-5.841,4.828-3.193,7.91A4.549,4.549,0,0,0,1650.622,8100.119Z" fill="#fff"/>
      <path id="パス_4650" data-name="パス 4650" d="M1744.368,8008.42c2.4,1.585,5.652.138,4.323-3.673a6.928,6.928,0,0,0-3.026-3.55,3.753,3.753,0,0,0-2.331-.6c-1.511.269-1.957,2.154-1.792,3.408C1741.849,8006.326,1744.343,8008.4,1744.368,8008.42Z" fill="#fff"/>
      <path id="パス_4651" data-name="パス 4651" d="M1766.07,7987.389c1.221.169,1.194-.97,1.176-1.2-.061-.783-.088-1.139-1.491-2.861a9.069,9.069,0,0,0-2.968-2.5c-1.009-.5-1.8-.6-2.165-.281C1759.348,7981.644,1763.1,7986.981,1766.07,7987.389Z" fill="#fff"/>
      <path id="パス_4652" data-name="パス 4652" d="M1683.916,8064.217c2.857-1.1,2.915-2.343,3.011-4.394a4.651,4.651,0,0,0-1.538-3.975,5.056,5.056,0,0,0-3.321-1.365c-3.545.025-6.04,5.222-3.069,8.405A4.386,4.386,0,0,0,1683.916,8064.217Z" fill="#fff"/>
      <path id="パス_4653" data-name="パス 4653" d="M1671.212,8077.889c.311-2.374-1.31-4.394-2-5.256a13.679,13.679,0,0,0-2.12-.61c-4.784-.841-6.583,4.888-4.407,7.834C1665.646,8083.87,1670.668,8082.044,1671.212,8077.889Z" fill="#fff"/>
      <path id="パス_4654" data-name="パス 4654" d="M1746.412,7986.167c-1.392.881.12,5,3.359,6.063,2.086.687,1.951-1.865,1.245-3.163a8.284,8.284,0,0,0-2.558-2.572C1748.023,7986.284,1747.006,7985.792,1746.412,7986.167Z" fill="#fff"/>
      <path id="パス_4655" data-name="パス 4655" d="M1637.929,8112.652a4.608,4.608,0,0,0-1.514-3.412,4.375,4.375,0,0,0-2.705-1.464c-2.255-.124-4.795,3.6-2.024,6.7C1634.813,8117.971,1637.79,8115.4,1637.929,8112.652Z" fill="#fff"/>
      <path id="パス_4656" data-name="パス 4656" d="M1723.957,8008.832a4.081,4.081,0,0,0-1.9-2.765,3.067,3.067,0,0,0-1.827-.653c-1.68.141-3.44,3.471-.369,5.892C1722.652,8013.5,1724.2,8010.674,1723.957,8008.832Z" fill="#fff"/>
      <path id="パス_4657" data-name="パス 4657" d="M1620.667,8123.507a4.935,4.935,0,0,0-1.709-.687c-1.951-.278-3.554,2.435-1.551,4.935,2.483,3.1,4.865,1.536,5.033-.571C1622.561,8125.643,1621.282,8124.2,1620.667,8123.507Z" fill="#fff"/>
      <path id="パス_4658" data-name="パス 4658" d="M1748.172,7976.424c1.011.061.817-1.134-.017-2.165a8.143,8.143,0,0,0-2.357-1.925c-.261-.121-.873-.4-1.2-.127-.279.234-.371,1.021.571,2.131C1746.575,7976,1747.577,7976.389,1748.172,7976.424Z" fill="#fff"/>
      <path id="パス_4659" data-name="パス 4659" d="M1759.709,7971.61c.829-.019-.053-1.424-1.051-2.362a11.141,11.141,0,0,0-2.59-1.76c-.323-.107-.925-.308-1.153-.125C1754.072,7968.034,1758.149,7971.647,1759.709,7971.61Z" fill="#fff"/>
      <path id="パス_4660" data-name="パス 4660" d="M1727.393,7994.84c2.2,1.165,3.032-.51,2.495-2.165a5.848,5.848,0,0,0-2.117-2.585,6.446,6.446,0,0,0-1.521.148C1724.915,7990.725,1725.405,7993.787,1727.393,7994.84Z" fill="#fff"/>
      <path id="パス_4661" data-name="パス 4661" d="M1619.052,8166.227c-1.357-1.038-2.155-1.108-2.586-.986-1.5.428-.872,3.181,2.154,4.815,1.6.866,2.784.143,2.342-1.431A5.264,5.264,0,0,0,1619.052,8166.227Z" fill="#fff"/>
      <path id="パス_4662" data-name="パス 4662" d="M1767.736,7966.547c.622-.076-.7-1.465-1.893-2.365a12.343,12.343,0,0,0-2.659-1.535c-.238-.068-.734-.21-.873-.081C1761.712,7963.118,1766.58,7966.69,1767.736,7966.547Z" fill="#fff"/>
      <path id="パス_4663" data-name="パス 4663" d="M1683.54,8029.49a2.032,2.032,0,0,0,1.5-1.993,3.415,3.415,0,0,0-.932-2.7,1.783,1.783,0,0,0-1.1-.51c-2.024-.16-3.842,2.4-1.977,4.752A2,2,0,0,0,1683.54,8029.49Z" fill="#fff"/>
      <path id="パス_4664" data-name="パス 4664" d="M1769.563,7960.434c.025-.007.593-.182-2.117-1.9a12.352,12.352,0,0,0-2.208-1.2c-.486-.177-.618-.125-.653-.078C1764.314,7957.619,1768.965,7960.587,1769.563,7960.434Z" fill="#fff"/>
      <path id="パス_4665" data-name="パス 4665" d="M1609.517,8138.16a2.811,2.811,0,0,0-1.878-.875c-1.963.1-1.8,2.882.267,4.588a2.1,2.1,0,0,0,2.142.522c.5-.191.967-.371.836-1.662h0A4.17,4.17,0,0,0,1609.517,8138.16Z" fill="#fff"/>
      <path id="パス_4666" data-name="パス 4666" d="M1667.466,8045.107c1.157-.41,1.593-1,1.793-2.437a2.641,2.641,0,0,0-.677-2.331,2.6,2.6,0,0,0-1.6-.795c-2.077-.2-3.529,2.962-2.158,4.7A2.353,2.353,0,0,0,1667.466,8045.107Z" fill="#fff"/>
      <path id="パス_4667" data-name="パス 4667" d="M1651.435,8061.742a2.39,2.39,0,0,0,1.877-2.329,2.776,2.776,0,0,0-.551-2.577,2.993,2.993,0,0,0-1.626-.866c-2.5-.435-3.537,3.186-2.386,4.739A2.691,2.691,0,0,0,1651.435,8061.742Z" fill="#fff"/>
    </g>
  </g>
</svg>
