<svg xmlns="http://www.w3.org/2000/svg" xmlns:xlink="http://www.w3.org/1999/xlink" width="178.14" height="105.925" viewBox="0 0 178.14 105.925">
  <defs>
    <clipPath id="clip-path">
      <path id="パス_4956" data-name="パス 4956" d="M584.028,5652.882c-.076,24.651,34.447,44.738,77.108,44.868,22.987.068,43.619-5.684,57.8-14.846a132.181,132.181,0,0,1-41.329,6.183c-43.465-.134-78.643-19.188-78.572-42.561.045-14.956,14.521-28.045,36.321-35.505-29.86,6.086-51.267,22.494-51.325,41.861" transform="translate(-584.028 -5611.021)" fill="none"/>
    </clipPath>
    <linearGradient id="linear-gradient" x1="-3.86" y1="3.92" x2="-3.854" y2="3.92" gradientUnits="objectBoundingBox">
      <stop offset="0" stop-color="#87b209"/>
      <stop offset="0.142" stop-color="#87b209"/>
      <stop offset="0.27" stop-color="#669125"/>
      <stop offset="0.469" stop-color="#3a654b"/>
      <stop offset="0.648" stop-color="#1a4567"/>
      <stop offset="0.798" stop-color="#073278"/>
      <stop offset="0.9" stop-color="#002b7f"/>
      <stop offset="1" stop-color="#002b7f"/>
    </linearGradient>
  </defs>
  <g id="footer-logo" transform="translate(-475.065 -8534.836)">
    <path id="パス_4864" data-name="パス 4864" d="M637.948,5613.034c-9.924,0-15.167,5.992-15.167,16.1v35.2c0,10.111,5.243,16.1,15.167,16.1s15.167-5.991,15.167-16.1v-8.8h-9.737v9.551c0,4.306-2.06,5.991-5.149,5.991s-5.149-1.685-5.149-5.991v-36.608c0-4.306,2.06-6.086,5.149-6.086s5.149,1.78,5.149,6.086v7.583h9.737v-6.928c0-10.111-5.243-16.1-15.167-16.1" transform="translate(-106.932 2943.116)" fill="#030303"/>
    <path id="パス_4865" data-name="パス 4865" d="M704.918,5635.7v-5.78c0-10.789-5.395-16.955-15.8-16.955s-15.8,6.166-15.8,16.955v35.449c0,10.79,5.395,16.955,15.8,16.955s15.8-6.165,15.8-16.955V5643.31H689.6v9.633h5.3v13.2c0,4.816-2.12,6.55-5.491,6.55s-5.49-1.734-5.49-6.55v-36.895c0-4.816,2.12-6.646,5.49-6.646s5.491,1.83,5.491,6.646v6.455Z" transform="translate(-104.284 2943.113)" fill="#030303"/>
    <path id="パス_4866" data-name="パス 4866" d="M655.357,5615.013c-.355,1.275-.162,3.867.321,4.337,0,0,3.265,4.621,3.5,14.726s.241,39.575.241,39.575l3.509,8.175,3.52-8.249.289-39.472a31.122,31.122,0,0,1,3.5-14.944,6.417,6.417,0,0,0-.054-4.077,33.907,33.907,0,0,1-14.828-.072" transform="translate(-105.235 2943.22)" fill="#030303"/>
    <path id="パス_4867" data-name="パス 4867" d="M663.035,5592.78a11.469,11.469,0,1,0,11.469,11.47,11.483,11.483,0,0,0-11.469-11.47m-10.492,11.47a10.483,10.483,0,0,1,18.489-6.778c-.024-.015-.047-.029-.068-.041s-.039-.017-.045-.014c-.006.025.149.159.283.259a10.449,10.449,0,0,1,2.137,4.616c-.162.1-.083.671.141,1,.017.188.022.378.028.568a.28.28,0,0,0-.149-.062c-.337.009-.295,1.017.056,1.314a.291.291,0,0,0,.067.039c-.016.183-.04.362-.065.542a.654.654,0,0,0-.161-.221.316.316,0,0,0-.233-.09c-.3.042-.591.986-.12,1.408a.253.253,0,0,0,.284.065,10.447,10.447,0,0,1-1.359,3.1,1.563,1.563,0,0,0-.1.168,10.615,10.615,0,0,1-.854,1.081,1.383,1.383,0,0,0-.326.359,10.524,10.524,0,0,1-2.49,1.9.776.776,0,0,0,.086-.162.338.338,0,0,0-.144-.431.537.537,0,0,0-.115-.059c-.529-.205-1.244.369-1.033.831a.449.449,0,0,0,.393.216c-.144.063-.292.119-.439.176a.423.423,0,0,0-.1-.09.765.765,0,0,0-.156-.071c-.4-.118-.911.218-.9.532a10.523,10.523,0,0,1-1.1.219.4.4,0,0,0,.091-.155c.029-.181-.139-.291-.211-.338a.748.748,0,0,0-.269-.1c-.373-.057-.739.257-.516.552a.645.645,0,0,0,.129.124c-.243.017-.485.037-.731.037a10.433,10.433,0,0,1-2.786-.388.13.13,0,0,0,.073-.176.629.629,0,0,0-.224-.244c-.059-.029-.215-.108-.309-.067-.113.05-.091.255.19.417a10.508,10.508,0,0,1-7.436-10.035" transform="translate(-105.424 2942.055)" fill="#030303"/>
    <path id="パス_4868" data-name="パス 4868" d="M670.614,5607.778c-.539-.062-1.033.9-.687,1.336.416.524,1-.116,1.082-.65a.77.77,0,0,0-.177-.616.631.631,0,0,0-.218-.071" transform="translate(-104.468 2942.84)" fill="#030303"/>
    <path id="パス_4869" data-name="パス 4869" d="M669.584,5609.344c-.6-.14-1.2.735-.942,1.157.342.56,1.117.06,1.264-.509a.624.624,0,0,0-.143-.58.819.819,0,0,0-.179-.068" transform="translate(-104.533 2942.922)" fill="#030303"/>
    <path id="パス_4870" data-name="パス 4870" d="M668.568,5610.739a.837.837,0,0,0-.105-.059c-.505-.213-1.313.5-1.094.959a.52.52,0,0,0,.62.261,1.024,1.024,0,0,0,.729-.654.4.4,0,0,0-.149-.507" transform="translate(-104.598 2942.991)" fill="#030303"/>
    <path id="パス_4871" data-name="パス 4871" d="M671.364,5606.229c-.423,0-.8,1.016-.4,1.436.345.368.835-.065.86-.76a.664.664,0,0,0-.2-.569.392.392,0,0,0-.257-.106" transform="translate(-104.416 2942.76)" fill="#030303"/>
    <path id="パス_4872" data-name="パス 4872" d="M670.834,5605.959a.746.746,0,0,0-.286-.548.565.565,0,0,0-.309-.081.785.785,0,0,0-.277,1.279c.551.486.886-.285.872-.65" transform="translate(-104.472 2942.712)" fill="#030303"/>
    <path id="パス_4873" data-name="パス 4873" d="M668.726,5608.439a.668.668,0,0,0-.347-.13c-.48-.025-1.023.736-.687,1.151.433.532,1.178.131,1.263-.509a.518.518,0,0,0-.228-.511" transform="translate(-104.585 2942.868)" fill="#030303"/>
    <path id="パス_4874" data-name="パス 4874" d="M670,5607.5a.634.634,0,0,0-.54-.669.822.822,0,0,0-.561,1.251c.476.528,1.058,0,1.1-.582" transform="translate(-104.523 2942.791)" fill="#030303"/>
    <path id="パス_4875" data-name="パス 4875" d="M666.213,5611a.956.956,0,0,0-.244-.1c-.536-.139-1.046.453-.837.8a.721.721,0,0,0,1.269-.221.465.465,0,0,0-.188-.478" transform="translate(-104.716 2943.003)" fill="#030303"/>
    <path id="パス_4876" data-name="パス 4876" d="M667.75,5610.3a.462.462,0,0,0-.221-.484.768.768,0,0,0-.276-.118c-.507-.1-1.084.595-.822.987a.756.756,0,0,0,1.319-.385" transform="translate(-104.649 2942.941)" fill="#030303"/>
    <path id="パス_4877" data-name="パス 4877" d="M664.918,5612.161a.82.82,0,0,0-.237-.1c-.471-.117-.907.364-.725.66a.682.682,0,0,0,.636.275.647.647,0,0,0,.529-.454.373.373,0,0,0-.2-.377" transform="translate(-104.777 2943.064)" fill="#030303"/>
    <path id="パス_4878" data-name="パス 4878" d="M671.4,5604.4a.683.683,0,0,0-.275-.476.441.441,0,0,0-.305-.092c-.322.055-.563.874-.04,1.262.363.271.711-.118.62-.693" transform="translate(-104.433 2942.634)" fill="#030303"/>
    <path id="パス_4879" data-name="パス 4879" d="M668.162,5605.836a.7.7,0,0,0-.46,1.187.644.644,0,0,0,1.052-.5.626.626,0,0,0-.3-.575.647.647,0,0,0-.29-.108" transform="translate(-104.589 2942.739)" fill="#030303"/>
    <path id="パス_4880" data-name="パス 4880" d="M664.627,5609.918c-.446-.076-.929.439-.649.841a.662.662,0,0,0,.666.268.578.578,0,0,0,.51-.5.483.483,0,0,0-.233-.48.759.759,0,0,0-.295-.126" transform="translate(-104.778 2942.952)" fill="#030303"/>
    <path id="パス_4881" data-name="パス 4881" d="M665.222,5609.668a.682.682,0,0,0,1.16-.36.563.563,0,0,0-.269-.563.7.7,0,0,0-.277-.117.656.656,0,0,0-.614,1.041" transform="translate(-104.716 2942.885)" fill="#030303"/>
    <path id="パス_4882" data-name="パス 4882" d="M671.476,5602.513a.346.346,0,0,0-.252-.071c-.325.073-.27.955.183,1.2.25.135.522-.13.36-.688a.761.761,0,0,0-.292-.439" transform="translate(-104.405 2942.561)" fill="#030303"/>
    <path id="パス_4883" data-name="パス 4883" d="M667.212,5608.59a.813.813,0,0,0,.461-.625.6.6,0,0,0-.277-.55.67.67,0,0,0-.3-.122.7.7,0,0,0-.561,1.152.62.62,0,0,0,.672.145" transform="translate(-104.649 2942.815)" fill="#030303"/>
    <path id="パス_4884" data-name="パス 4884" d="M663.428,5611.065c-.359-.04-.827.318-.5.745a.6.6,0,0,0,1.051-.177.477.477,0,0,0-.247-.451.686.686,0,0,0-.306-.118" transform="translate(-104.834 2943.013)" fill="#030303"/>
    <path id="パス_4885" data-name="パス 4885" d="M668.98,5604.385a.667.667,0,0,0-.237,1.154c.38.305.913.045.855-.573a.626.626,0,0,0-.281-.48.565.565,0,0,0-.337-.1" transform="translate(-104.537 2942.663)" fill="#030303"/>
    <path id="パス_4886" data-name="パス 4886" d="M662.657,5612.2a.723.723,0,0,0-.319-.117c-.283-.021-.635.279-.347.6.361.4.89.21.912-.121.006-.087-.033-.22-.246-.36" transform="translate(-104.883 2943.066)" fill="#030303"/>
    <path id="パス_4887" data-name="パス 4887" d="M671.252,5601.075c-.225.1,0,.906.385,1.04.321.112.226-.417.136-.622a.829.829,0,0,0-.3-.36c-.048-.028-.149-.089-.221-.058" transform="translate(-104.397 2942.49)" fill="#030303"/>
    <path id="パス_4888" data-name="パス 4888" d="M669.591,5604.054c.385.261.693-.125.6-.573a.651.651,0,0,0-.295-.426.432.432,0,0,0-.325-.084.637.637,0,0,0,.018,1.083" transform="translate(-104.496 2942.588)" fill="#030303"/>
    <path id="パス_4889" data-name="パス 4889" d="M666.24,5606.865a.653.653,0,0,0-.252-.522.759.759,0,0,0-.31-.117.591.591,0,0,0-.483.929.572.572,0,0,0,1.045-.291" transform="translate(-104.716 2942.759)" fill="#030303"/>
    <path id="パス_4890" data-name="パス 4890" d="M661.7,5610.766a.6.6,0,0,0,.526.219c.362-.072.377-.308.382-.4a.48.48,0,0,0-.221-.406.679.679,0,0,0-.32-.136.427.427,0,0,0-.367.72" transform="translate(-104.9 2942.959)" fill="#030303"/>
    <path id="パス_4891" data-name="パス 4891" d="M663.223,5608.854a.509.509,0,0,0-.474.782.547.547,0,0,0,1.017-.171.646.646,0,0,0-.267-.521.88.88,0,0,0-.276-.09" transform="translate(-104.843 2942.897)" fill="#030303"/>
    <path id="パス_4892" data-name="パス 4892" d="M667.032,5604.941a.723.723,0,0,0-.307-.1.568.568,0,0,0-.381.933.532.532,0,0,0,.955-.333.608.608,0,0,0-.266-.5" transform="translate(-104.657 2942.687)" fill="#030303"/>
    <path id="パス_4893" data-name="パス 4893" d="M661.774,5613.058a.653.653,0,0,0-.408-.114c-.137.021-.422.225-.055.519s.714.124.685-.13c-.014-.14-.161-.235-.222-.275" transform="translate(-104.923 2943.111)" fill="#030303"/>
    <path id="パス_4894" data-name="パス 4894" d="M667.907,5603.528a.522.522,0,0,0-.316-.091.558.558,0,0,0-.163.99.483.483,0,0,0,.778-.44.571.571,0,0,0-.3-.459" transform="translate(-104.605 2942.613)" fill="#030303"/>
    <path id="パス_4895" data-name="パス 4895" d="M668.268,5603c.31.207.67.005.58-.452a.6.6,0,0,0-.286-.4.455.455,0,0,0-.29-.076c-.29.05-.473.618,0,.932" transform="translate(-104.564 2942.541)" fill="#030303"/>
    <path id="パス_4896" data-name="パス 4896" d="M669.868,5602.144a.82.82,0,0,0,.362.512c.316.173.492-.173.377-.547a.7.7,0,0,0-.314-.4.377.377,0,0,0-.268-.067c-.182.056-.175.41-.157.5" transform="translate(-104.466 2942.519)" fill="#030303"/>
    <path id="パス_4897" data-name="パス 4897" d="M670.325,5600.378a.3.3,0,0,0-.223-.05c-.2.078-.047.734.366.9.153.06.38-.07.17-.5a.8.8,0,0,0-.314-.35" transform="translate(-104.457 2942.45)" fill="#030303"/>
    <path id="パス_4898" data-name="パス 4898" d="M660.769,5611.72a.619.619,0,0,0,.488.207c.308-.047.308-.234.308-.325a.449.449,0,0,0-.218-.361.663.663,0,0,0-.322-.13.344.344,0,0,0-.257.608" transform="translate(-104.948 2943.016)" fill="#030303"/>
    <path id="パス_4899" data-name="パス 4899" d="M671.023,5599.785c-.153.1.2.821.517.888.1.021.208-.134-.029-.52a.936.936,0,0,0-.317-.331c-.04-.022-.123-.067-.17-.037" transform="translate(-104.406 2942.421)" fill="#030303"/>
    <path id="パス_4900" data-name="パス 4900" d="M663.915,5608.415a.568.568,0,0,0,1.051-.252.6.6,0,0,0-.231-.5.778.778,0,0,0-.314-.131.576.576,0,0,0-.506.88" transform="translate(-104.782 2942.828)" fill="#030303"/>
    <path id="パス_4901" data-name="パス 4901" d="M669.313,5601.14a.685.685,0,0,0-.3-.354.344.344,0,0,0-.225-.056c-.283.059-.193.615.133.814.286.177.514-.059.393-.4" transform="translate(-104.531 2942.472)" fill="#030303"/>
    <path id="パス_4902" data-name="パス 4902" d="M663.516,5606.95a.592.592,0,0,0-.182-.465.675.675,0,0,0-.264-.109.472.472,0,0,0-.413.754.464.464,0,0,0,.859-.18" transform="translate(-104.848 2942.767)" fill="#030303"/>
    <path id="パス_4903" data-name="パス 4903" d="M664.676,5605.61a.53.53,0,0,0-.221-.473.447.447,0,0,0-.229-.1.486.486,0,0,0-.365.828.467.467,0,0,0,.816-.257" transform="translate(-104.787 2942.697)" fill="#030303"/>
    <path id="パス_4904" data-name="パス 4904" d="M665.117,5604.471a.433.433,0,0,0,.778-.282.5.5,0,0,0-.221-.413.445.445,0,0,0-.557.695" transform="translate(-104.721 2942.626)" fill="#030303"/>
    <path id="パス_4905" data-name="パス 4905" d="M670.071,5599.17c-.044-.022-.126-.063-.169-.031-.065.048.012.276.1.4a.728.728,0,0,0,.4.311c.156.028.116-.218-.028-.422a.838.838,0,0,0-.294-.257" transform="translate(-104.465 2942.387)" fill="#030303"/>
    <path id="パス_4906" data-name="パス 4906" d="M666.135,5603.122c.4.345.641-.069.634-.285a.568.568,0,0,0-.241-.388.485.485,0,0,0-.23-.069.418.418,0,0,0-.162.742" transform="translate(-104.669 2942.558)" fill="#030303"/>
    <path id="パス_4907" data-name="パス 4907" d="M671.118,5599.3c.1,0-.022-.246-.154-.4a1.151,1.151,0,0,0-.268-.231c-.04-.02-.115-.058-.142-.034-.044.039.076.258.205.412a.764.764,0,0,0,.359.256" transform="translate(-104.43 2942.362)" fill="#030303"/>
    <path id="パス_4908" data-name="パス 4908" d="M667.438,5601.473a.473.473,0,0,0-.219-.3.352.352,0,1,0-.259.624c.315.211.534-.056.478-.325" transform="translate(-104.629 2942.491)" fill="#030303"/>
    <path id="パス_4909" data-name="パス 4909" d="M669.067,5599.567c-.049-.026-.143-.073-.205-.045-.151.07-.026.573.36.693.209.065.219-.184.115-.382a.646.646,0,0,0-.269-.266" transform="translate(-104.521 2942.407)" fill="#030303"/>
    <path id="パス_4910" data-name="パス 4910" d="M660.451,5609.544c.342.4.718.158.731-.143a.463.463,0,0,0-.2-.363.483.483,0,0,0-.266-.123.373.373,0,0,0-.267.628" transform="translate(-104.964 2942.9)" fill="#030303"/>
    <path id="パス_4911" data-name="パス 4911" d="M662.331,5608.2a.484.484,0,0,0-.184-.386.5.5,0,0,0-.316-.139.451.451,0,0,0-.257.793.43.43,0,0,0,.757-.268" transform="translate(-104.908 2942.835)" fill="#030303"/>
    <path id="パス_4912" data-name="パス 4912" d="M659.59,5610.635c.327.293.573.036.563-.155a.513.513,0,0,0-.478-.439c-.2.006-.42.293-.085.594" transform="translate(-105.013 2942.959)" fill="#030303"/>
    <path id="パス_4913" data-name="パス 4913" d="M660.357,5612.107a.6.6,0,0,0-.33-.107c-.169.018-.341.251-.025.5.4.315.595.059.574-.1a.532.532,0,0,0-.218-.294" transform="translate(-104.991 2943.062)" fill="#030303"/>
    <path id="パス_4914" data-name="パス 4914" d="M669.914,5598.508c.117.006.014-.173-.108-.3a1.259,1.259,0,0,0-.3-.224c-.026-.006-.083-.02-.108,0-.1.073.332.514.517.524" transform="translate(-104.491 2942.327)" fill="#030303"/>
    <path id="パス_4915" data-name="パス 4915" d="M670.444,5598.116c.047,0,.005-.072-.024-.116a.83.83,0,0,0-.178-.182,1.006,1.006,0,0,0-.23-.163c-.05-.023-.087-.029-.1-.016-.052.062.408.476.529.476" transform="translate(-104.463 2942.309)" fill="#030303"/>
    <path id="パス_4916" data-name="パス 4916" d="M665.361,5601.728a.336.336,0,0,0-.136-.245.351.351,0,0,0-.193-.077c-.219,0-.347.352-.135.553a.269.269,0,0,0,.463-.23" transform="translate(-104.731 2942.507)" fill="#030303"/>
    <path id="パス_4917" data-name="パス 4917" d="M664.276,5603.325a.268.268,0,0,0,.2-.289.411.411,0,0,0-.15-.331.3.3,0,0,0-.156-.067.35.35,0,0,0-.234.616.283.283,0,0,0,.341.071" transform="translate(-104.782 2942.571)" fill="#030303"/>
    <path id="パス_4918" data-name="パス 4918" d="M658.729,5610.977c-.17.02-.206.3.048.48.281.2.429.044.4-.119a.544.544,0,0,0-.178-.274.516.516,0,0,0-.274-.086" transform="translate(-105.056 2943.008)" fill="#030303"/>
    <path id="パス_4919" data-name="パス 4919" d="M660.679,5607.173a.283.283,0,0,0,.239-.292.371.371,0,0,0-.106-.332.4.4,0,0,0-.23-.114c-.286-.033-.448.369-.245.606a.349.349,0,0,0,.343.132" transform="translate(-104.969 2942.77)" fill="#030303"/>
    <path id="パス_4920" data-name="パス 4920" d="M667.5,5600.484c.184.122.434.01.332-.282a.533.533,0,0,0-.233-.271.279.279,0,0,0-.178-.046c-.116.02-.151.165-.138.261a.653.653,0,0,0,.217.339" transform="translate(-104.601 2942.427)" fill="#030303"/>
    <path id="パス_4921" data-name="パス 4921" d="M669.092,5598.947c.094.013.091-.074.09-.091-.005-.06-.007-.087-.115-.22a.693.693,0,0,0-.227-.191c-.078-.038-.138-.046-.166-.022-.1.084.19.494.418.525" transform="translate(-104.529 2942.35)" fill="#030303"/>
    <path id="パス_4922" data-name="パス 4922" d="M663.107,5604.557c.219-.084.223-.18.23-.336a.354.354,0,0,0-.118-.305.365.365,0,1,0-.489.54.336.336,0,0,0,.377.1" transform="translate(-104.844 2942.633)" fill="#030303"/>
    <path id="パス_4923" data-name="パス 4923" d="M662.194,5605.539a.556.556,0,0,0-.154-.4,1.126,1.126,0,0,0-.162-.046c-.367-.065-.505.375-.339.6a.353.353,0,0,0,.655-.15" transform="translate(-104.905 2942.699)" fill="#030303"/>
    <path id="パス_4924" data-name="パス 4924" d="M667.64,5598.833c-.107.067.008.383.258.465.159.053.148-.143.1-.243a.666.666,0,0,0-.2-.2c-.034-.016-.112-.053-.156-.025" transform="translate(-104.584 2942.371)" fill="#030303"/>
    <path id="パス_4925" data-name="パス 4925" d="M659.76,5608.067a.36.36,0,0,0-.116-.262.333.333,0,0,0-.207-.111.3.3,0,0,0-.156.514c.24.268.468.07.479-.14" transform="translate(-105.025 2942.836)" fill="#030303"/>
    <path id="パス_4926" data-name="パス 4926" d="M666.023,5600.5a.311.311,0,0,0-.145-.211.23.23,0,0,0-.14-.051c-.129.011-.264.266-.028.452.214.17.331-.048.314-.189" transform="translate(-104.69 2942.445)" fill="#030303"/>
    <path id="パス_4927" data-name="パス 4927" d="M658.491,5608.843a.373.373,0,0,0-.132-.053c-.149-.021-.271.186-.119.379.191.237.374.117.386-.044a.426.426,0,0,0-.136-.282" transform="translate(-105.078 2942.894)" fill="#030303"/>
    <path id="パス_4928" data-name="パス 4928" d="M667.78,5598.138c.078,0,.063-.087,0-.167a.624.624,0,0,0-.181-.146c-.02-.01-.067-.031-.092-.01s-.028.078.043.163c.108.127.185.157.23.16" transform="translate(-104.59 2942.318)" fill="#030303"/>
    <path id="パス_4929" data-name="パス 4929" d="M668.626,5597.788c.063,0-.005-.109-.082-.181a.773.773,0,0,0-.2-.134c-.024-.009-.072-.024-.088-.011-.065.051.247.329.368.326" transform="translate(-104.55 2942.3)" fill="#030303"/>
    <path id="パス_4930" data-name="パス 4930" d="M666.259,5599.481c.168.09.233-.039.192-.166a.2.2,0,0,0-.279-.187c-.1.037-.065.271.087.352" transform="translate(-104.662 2942.387)" fill="#030303"/>
    <path id="パス_4931" data-name="パス 4931" d="M658.37,5611.957c-.1-.08-.165-.085-.2-.076-.116.033-.067.244.165.37.122.066.213.011.179-.11a.4.4,0,0,0-.146-.184" transform="translate(-105.081 2943.055)" fill="#030303"/>
    <path id="パス_4932" data-name="パス 4932" d="M669.212,5597.417c.047-.006-.054-.112-.145-.181a.859.859,0,0,0-.2-.118c-.018-.006-.056-.016-.066-.007-.046.042.327.316.416.305" transform="translate(-104.521 2942.282)" fill="#030303"/>
    <path id="パス_4933" data-name="パス 4933" d="M663.069,5602.008a.154.154,0,0,0,.115-.152.259.259,0,0,0-.072-.208.127.127,0,0,0-.084-.039.213.213,0,0,0-.152.364.153.153,0,0,0,.193.034" transform="translate(-104.835 2942.517)" fill="#030303"/>
    <path id="パス_4934" data-name="パス 4934" d="M669.344,5596.969s.044-.014-.163-.146a1.053,1.053,0,0,0-.168-.092c-.038-.014-.048-.009-.052-.006a1,1,0,0,0,.383.244" transform="translate(-104.513 2942.262)" fill="#030303"/>
    <path id="パス_4935" data-name="パス 4935" d="M657.674,5609.911a.213.213,0,0,0-.144-.067c-.151.007-.138.221.021.353a.161.161,0,0,0,.164.04c.038-.014.074-.028.064-.128a.319.319,0,0,0-.105-.2" transform="translate(-105.117 2942.949)" fill="#030303"/>
    <path id="パス_4936" data-name="パス 4936" d="M661.9,5603.148c.088-.032.122-.077.138-.187a.2.2,0,0,0-.053-.178.2.2,0,0,0-.123-.061c-.159-.016-.27.226-.165.36a.182.182,0,0,0,.2.066" transform="translate(-104.896 2942.576)" fill="#030303"/>
    <path id="パス_4937" data-name="パス 4937" d="M660.729,5604.361a.185.185,0,0,0,.144-.18.214.214,0,0,0-.042-.2.227.227,0,0,0-.125-.067c-.192-.032-.272.245-.183.364a.209.209,0,0,0,.206.079" transform="translate(-104.957 2942.638)" fill="#030303"/>
    <path id="パス_4938" data-name="パス 4938" d="M706.892,5648.321v-3.913a1.689,1.689,0,1,1,3.372,0v.771h-1.083v-.843c0-.479-.227-.677-.571-.677s-.573.2-.573.677v4.068c0,.479.228.666.573.666s.571-.187.571-.666v-1.062h1.083v.979a1.689,1.689,0,1,1-3.372,0" transform="translate(-102.525 2944.667)" fill="#030303"/>
    <path id="パス_4939" data-name="パス 4939" d="M711.133,5642.717h1.7c1.186,0,1.7.551,1.7,1.675v.448c0,.748-.239,1.228-.748,1.436v.021c.573.177.759.717.759,1.541v1.28a2.147,2.147,0,0,0,.125.885H713.5a2.223,2.223,0,0,1-.105-.9v-1.333c0-.676-.2-.9-.718-.9h-.4V5650h-1.145Zm1.562,3.122c.427,0,.686-.187.686-.77v-.562c0-.52-.177-.748-.582-.748h-.521v2.081Z" transform="translate(-102.303 2944.671)" fill="#030303"/>
    <path id="パス_4940" data-name="パス 4940" d="M717.8,5648.576h-1.322l-.2,1.425h-1.063l1.187-7.285h1.55l1.187,7.285h-1.145Zm-.145-.989-.521-3.674-.509,3.674Z" transform="translate(-102.089 2944.671)" fill="#030303"/>
    <path id="パス_4941" data-name="パス 4941" d="M719.615,5648.981l2.123-5.224H719.72v-1.041h3.247v1.02l-2.123,5.224h2.123V5650h-3.351Z" transform="translate(-101.858 2944.671)" fill="#030303"/>
    <path id="パス_4942" data-name="パス 4942" d="M724.845,5646.9l-1.384-4.184h1.217l.791,2.715.791-2.715h1.113l-1.384,4.184v3.1h-1.145Z" transform="translate(-101.657 2944.671)" fill="#030303"/>
    <rect id="長方形_435" data-name="長方形 435" width="1.145" height="7.285" transform="translate(604.451 8598.947)" fill="#030303"/>
    <path id="パス_4943" data-name="パス 4943" d="M709.265,5653.7h1.415l1.156,4.36v-4.36h1.019v7.285H711.7l-1.415-5.318v5.318h-1.02Z" transform="translate(-102.401 2945.247)" fill="#030303"/>
    <path id="パス_4944" data-name="パス 4944" d="M713.881,5653.7h1.748c1.145,0,1.707.635,1.707,1.8v3.685c0,1.166-.562,1.8-1.707,1.8h-1.748Zm1.727,6.243c.364,0,.584-.187.584-.708v-3.788c0-.52-.22-.707-.584-.707h-.583v5.2Z" transform="translate(-102.159 2945.247)" fill="#030303"/>
    <path id="パス_4945" data-name="パス 4945" d="M718.211,5659.264v-3.83a1.74,1.74,0,1,1,3.476,0v3.83a1.74,1.74,0,1,1-3.476,0m2.331.073v-3.975c0-.521-.229-.719-.593-.719s-.594.2-.594.719v3.975c0,.521.228.719.594.719s.593-.2.593-.719" transform="translate(-101.932 2945.242)" fill="#030303"/>
    <path id="パス_4946" data-name="パス 4946" d="M722.561,5659.264v-3.83a1.74,1.74,0,1,1,3.476,0v3.83a1.74,1.74,0,1,1-3.476,0m2.331.073v-3.975c0-.521-.229-.719-.592-.719s-.594.2-.594.719v3.975c0,.521.228.719.594.719s.592-.2.592-.719" transform="translate(-101.704 2945.242)" fill="#030303"/>
    <path id="パス_4947" data-name="パス 4947" d="M726.989,5653.7h1.7c1.186,0,1.7.55,1.7,1.674v.448c0,.749-.239,1.229-.748,1.436v.021c.573.177.76.718.76,1.541v1.28a2.144,2.144,0,0,0,.124.885h-1.165a2.228,2.228,0,0,1-.105-.9v-1.332c0-.675-.2-.895-.718-.895h-.4v3.123h-1.145Zm1.562,3.121c.426,0,.686-.187.686-.77v-.562c0-.52-.176-.748-.582-.748h-.521v2.081Z" transform="translate(-101.472 2945.247)" fill="#030303"/>
    <path id="パス_4948" data-name="パス 4948" d="M733.265,5659.263v-3.83c0-1.166.583-1.832,1.707-1.832s1.707.666,1.707,1.832v.625H735.6v-.7c0-.521-.229-.719-.593-.719s-.594.2-.594.719v3.986c0,.521.228.708.594.708s.593-.187.593-.708v-1.425h-.573v-1.042h1.655v2.383c0,1.166-.583,1.832-1.707,1.832s-1.707-.666-1.707-1.832" transform="translate(-101.143 2945.242)" fill="#030303"/>
    <path id="パス_4949" data-name="パス 4949" d="M737.537,5659.264v-3.83a1.74,1.74,0,1,1,3.476,0v3.83a1.74,1.74,0,1,1-3.476,0m2.331.073v-3.975c0-.521-.229-.719-.592-.719s-.594.2-.594.719v3.975c0,.521.228.719.594.719s.592-.2.592-.719" transform="translate(-100.919 2945.242)" fill="#030303"/>
    <path id="パス_4950" data-name="パス 4950" d="M741.966,5653.7h1.145v6.244h1.884v1.041h-3.029Z" transform="translate(-100.687 2945.247)" fill="#030303"/>
    <path id="パス_4951" data-name="パス 4951" d="M709.256,5670.544h-1.322l-.2,1.425h-1.063l1.187-7.284h1.55l1.187,7.284h-1.145Zm-.145-.989-.521-3.674-.509,3.674Z" transform="translate(-102.537 2945.823)" fill="#030303"/>
    <rect id="長方形_436" data-name="長方形 436" width="1.145" height="7.285" transform="translate(609.019 8610.508)" fill="#030303"/>
    <path id="パス_4952" data-name="パス 4952" d="M713.367,5670.95l2.123-5.224h-2.018v-1.041h3.247v1.02l-2.123,5.224h2.123v1.041h-3.351Z" transform="translate(-102.186 2945.823)" fill="#030303"/>
    <path id="パス_4953" data-name="パス 4953" d="M717.5,5670.242v-5.556h1.145v5.64c0,.521.219.708.582.708s.584-.187.584-.708v-5.64h1.1v5.556c0,1.167-.583,1.832-1.707,1.832s-1.707-.665-1.707-1.832" transform="translate(-101.969 2945.823)" fill="#030303"/>
    <path id="パス_4954" data-name="パス 4954" d="M753.63,5649.082c-2.222,1.849-4.443-1.849-6.665,0v-6.164c2.222-1.85,4.443,1.849,6.665,0Z" transform="translate(-100.425 2944.655)" fill="#d8000c"/>
    <path id="パス_4955" data-name="パス 4955" d="M748.93,5660.173c-.379,0-.737.019-1.073.049V5642.4h-1.144V5660.4c-.595.145-.966.344-.966.566s.371.422.966.565v.048h.235a10.417,10.417,0,0,0,1.983.176c1.758,0,3.184-.354,3.184-.79s-1.426-.791-3.184-.791" transform="translate(-100.489 2944.655)" fill="#030303"/>
    <g id="グループ_649" data-name="グループ 649" transform="translate(475.065 8554.031)">
      <g id="グループ_648" data-name="グループ 648" transform="translate(0 0)" clip-path="url(#clip-path)">
        <rect id="長方形_438" data-name="長方形 438" width="156.419" height="127.434" transform="translate(-27.77 9.984) rotate(-19.826)" fill="url(#linear-gradient)"/>
      </g>
    </g>
  </g>
</svg>
