<svg xmlns="http://www.w3.org/2000/svg" width="31.207" height="31.207" viewBox="0 0 31.207 31.207">
  <g id="icon-instagram" transform="translate(-1216.936 -8352.597)">
    <path id="パス_2217" data-name="パス 2217" d="M1232.538,8355.408c4.166,0,4.659.016,6.305.091a8.637,8.637,0,0,1,2.9.538,5.161,5.161,0,0,1,2.96,2.961,8.635,8.635,0,0,1,.538,2.9c.075,1.646.091,2.14.091,6.306s-.016,4.659-.091,6.3a8.642,8.642,0,0,1-.538,2.9,5.161,5.161,0,0,1-2.96,2.961,8.661,8.661,0,0,1-2.9.538c-1.645.074-2.139.092-6.305.092s-4.66-.018-6.3-.092a8.65,8.65,0,0,1-2.9-.538,5.161,5.161,0,0,1-2.961-2.96,8.641,8.641,0,0,1-.538-2.9c-.075-1.646-.091-2.139-.091-6.306s.016-4.658.091-6.3a8.636,8.636,0,0,1,.538-2.9,5.163,5.163,0,0,1,2.961-2.961,8.6,8.6,0,0,1,2.9-.537c1.645-.076,2.139-.092,6.3-.092m0-2.812c-4.237,0-4.768.019-6.433.1a11.415,11.415,0,0,0-3.788.724,7.98,7.98,0,0,0-4.562,4.562,11.47,11.47,0,0,0-.725,3.788c-.076,1.664-.094,2.2-.094,6.434s.018,4.769.094,6.433a11.455,11.455,0,0,0,.725,3.788,7.985,7.985,0,0,0,4.563,4.563,11.466,11.466,0,0,0,3.788.725c1.664.076,2.2.095,6.433.095s4.769-.019,6.433-.095a11.461,11.461,0,0,0,3.788-.725,7.982,7.982,0,0,0,4.563-4.563,11.466,11.466,0,0,0,.725-3.789c.076-1.663.095-2.2.095-6.433s-.02-4.769-.095-6.433a11.47,11.47,0,0,0-.725-3.788,7.981,7.981,0,0,0-4.563-4.562,11.411,11.411,0,0,0-3.788-.724c-1.663-.077-2.2-.1-6.433-.1h0Z"/>
    <path id="パス_2218" data-name="パス 2218" d="M1232.539,8360.187a8.012,8.012,0,1,0,8.012,8.013h0A8.013,8.013,0,0,0,1232.539,8360.187Zm0,13.214a5.2,5.2,0,1,1,5.2-5.2h0A5.2,5.2,0,0,1,1232.539,8373.4Z"/>
    <circle id="楕円形_34" data-name="楕円形 34" cx="1.872" cy="1.872" r="1.872" transform="translate(1238.995 8357.998)"/>
  </g>
</svg>
