<svg xmlns="http://www.w3.org/2000/svg" width="32.841" height="32.843" viewBox="0 0 32.841 32.843">
  <g id="Instagram-icon" transform="translate(-1280.108 -8863.829)">
    <path id="パス_4960" data-name="パス 4960" d="M1365.407,5908.352c4.384,0,4.9.017,6.635.1a9.072,9.072,0,0,1,3.05.565,5.434,5.434,0,0,1,3.115,3.116,9.09,9.09,0,0,1,.566,3.049c.079,1.731.1,2.251.1,6.636s-.017,4.9-.1,6.637a9.09,9.09,0,0,1-.566,3.049,5.431,5.431,0,0,1-3.115,3.116,9.1,9.1,0,0,1-3.05.566c-1.731.079-2.251.1-6.635.1s-4.9-.018-6.635-.1a9.088,9.088,0,0,1-3.049-.566,5.428,5.428,0,0,1-3.116-3.115,9.1,9.1,0,0,1-.566-3.049c-.079-1.732-.1-2.251-.1-6.637s.017-4.9.1-6.636a9.091,9.091,0,0,1,.566-3.048,5.433,5.433,0,0,1,3.116-3.116,9.1,9.1,0,0,1,3.049-.565c1.731-.08,2.251-.1,6.635-.1m0-2.958c-4.459,0-5.018.019-6.77.1a12.027,12.027,0,0,0-3.986.762,8.4,8.4,0,0,0-4.8,4.8,12.069,12.069,0,0,0-.763,3.987c-.08,1.751-.1,2.311-.1,6.77s.019,5.019.1,6.771a12.055,12.055,0,0,0,.763,3.985,8.393,8.393,0,0,0,4.8,4.8,12.017,12.017,0,0,0,3.986.763c1.751.08,2.311.1,6.77.1s5.019-.021,6.77-.1a12.011,12.011,0,0,0,3.986-.763,8.4,8.4,0,0,0,4.8-4.8,12.064,12.064,0,0,0,.763-3.987c.08-1.75.1-2.311.1-6.77s-.02-5.018-.1-6.769a12.065,12.065,0,0,0-.763-3.987,8.4,8.4,0,0,0-4.8-4.8,12.034,12.034,0,0,0-3.986-.762c-1.75-.081-2.311-.1-6.77-.1Z" transform="translate(-68.88 2958.435)"/>
    <path id="パス_4961" data-name="パス 4961" d="M1365.012,5912.984a8.432,8.432,0,1,0,8.432,8.432,8.433,8.433,0,0,0-8.432-8.432m0,13.905a5.473,5.473,0,1,1,5.472-5.473,5.472,5.472,0,0,1-5.472,5.473" transform="translate(-68.482 2958.833)"/>
    <path id="パス_4962" data-name="パス 4962" d="M1373.018,5910.795a1.971,1.971,0,1,1-1.97,1.97,1.97,1.97,0,0,1,1.97-1.97" transform="translate(-67.724 2958.718)"/>
  </g>
</svg>
