<svg xmlns="http://www.w3.org/2000/svg" width="537.987" height="114.688" viewBox="0 0 537.987 114.688">
  <g id="sub-t-private-room" transform="translate(-636.6 -6515.552)">
    <path id="パス_2711" data-name="パス 2711" d="M697.753,6571.552h-2.24v-56h2.24Z" fill="#006400"/>
    <path id="パス_2712" data-name="パス 2712" d="M773.24,6563.32c1.345.5,1.737,1.008,1.737,1.96,0,2.016-1.9,2.744-11.256,2.744h-6.16c-4.928,0-5.993-.952-5.993-4.312v-17.584h-7.111c-1.12,10.192-3.528,18.256-21.112,23.184l-.617-.84c13.945-5.936,16.073-13.664,16.745-22.344H723.961l-.448-1.624h42.336l2.912-3.528s3.36,2.464,5.376,4.256c-.113.616-.617.9-1.4.9H756.1V6562.7c0,.952.281,1.176,2.3,1.176h5.657c2.351,0,4.255,0,5.095-.056.672-.056,1.009-.224,1.233-.784a41.453,41.453,0,0,0,1.96-7h.727Zm-41.72-35.672c.113,4.256-1.511,7.168-3.248,8.512-1.624,1.288-3.863,1.4-4.591-.168-.672-1.344.112-2.688,1.4-3.528,2.408-1.568,4.76-5.544,4.647-9.912h.9a23.263,23.263,0,0,1,.784,3.472H746.36v-8.4l6.609.616c-.113.784-.616,1.344-2.016,1.568v6.216h16.184l2.744-2.8,4.928,4.76a3.348,3.348,0,0,1-2.128.56,50.63,50.63,0,0,1-7.56,5.936l-.616-.392a58.583,58.583,0,0,0,2.687-6.44Zm28.225,4.256s3.192,2.24,5.208,4.032c-.112.616-.728.9-1.513.9H732.921l-.448-1.624H757Z" fill="#006400"/>
    <path id="パス_2713" data-name="パス 2713" d="M801.913,6571.552h-2.24v-56h2.24Z" fill="#006400"/>
    <path id="パス_2714" data-name="パス 2714" d="M857.913,6519.36c-.168.728-.9,1.008-2.352,1.12,5.04,7.28,14.671,12.936,24.08,16.688l-.056.84a5.577,5.577,0,0,0-4.032,3.976c-8.848-4.76-17.192-12.208-21-20.776-5.432,8.456-16.744,17.976-27.44,22.9l-.392-.728c9.408-5.824,20.608-17.752,23.464-25.928Zm14.392,42.448s3.584,2.688,5.656,4.648c-.112.616-.672.9-1.456.9H829.017l-.5-1.68h21.9v-12.04H835.961l-.448-1.624h14.9v-10.584H837.025l-.448-1.624h25.48l2.8-3.36s3.137,2.408,5.153,4.088c-.168.616-.728.9-1.512.9h-13.44v10.584h9.072l2.855-3.472s3.361,2.408,5.433,4.2c-.112.616-.729.9-1.512.9H855.057v12.04h14.224Z" fill="#006400"/>
    <path id="パス_2715" data-name="パス 2715" d="M906.073,6571.552h-2.24v-56h2.24Z" fill="#006400"/>
    <path id="パス_2716" data-name="パス 2716" d="M982.738,6523.616a4.377,4.377,0,0,1-2.352,1.12v42.224c-.056.448-2.184,1.568-3.865,1.568h-.559v-3.92H952.218v2.8c0,.5-1.568,1.624-3.472,1.624h-.727v-48.384a2.424,2.424,0,0,1-1.681.392,86.684,86.684,0,0,1-5.1,11.312l2.576,1.008c-.168.5-.616.784-1.624,1.008v33.488c-.056.392-1.848,1.4-3.528,1.4h-.784v-31.472a49.105,49.105,0,0,1-6.552,7.9l-.784-.5c4.312-6.608,8.849-17.136,11.424-27.44l6.552,2.24a.9.9,0,0,1-.224.392l4.256,1.96h22.9l2.3-2.688Zm-6.776,39.368v-39.032H952.218v39.032Zm-10.192-27.552v7.672h2.912l1.68-2.016,3.416,3.416a4.452,4.452,0,0,1-2.072.9v12.152a4.153,4.153,0,0,1-2.912,1.176h-.672v-2.856h-8.176v2.3c0,.392-1.456,1.176-2.968,1.176h-.5v-17.976l3.752,1.736h1.792v-7.672H954.29l-.448-1.568h8.176v-8.008l5.6.56c-.112.728-.56,1.232-1.848,1.456v5.992h2.968l2.184-3.024s2.632,2.184,4.144,3.7c-.112.616-.672.9-1.4.9Zm2.352,9.3h-8.176v9.52h8.176Z" fill="#006400"/>
    <path id="パス_2717" data-name="パス 2717" d="M1010.234,6571.552h-2.24v-56h2.24Z" fill="#006400"/>
    <path id="パス_2718" data-name="パス 2718" d="M1081.243,6562.312s3.416,2.576,5.488,4.424c-.168.616-.672.84-1.456.84H1036.22l-.505-1.568h23.128v-9.352h-17.415l-.449-1.568h17.864V6547.3l6.5.616c-.111.784-.56,1.288-1.9,1.512v5.656h10.527l2.8-3.472s3.248,2.408,5.208,4.2a1.366,1.366,0,0,1-1.456.84h-17.079v9.352h14.9Zm5.768-35.616c-.392.448-1.008.5-2.072.56a34.606,34.606,0,0,1-6.272,4.872c.672.56,1.344,1.12,1.9,1.624-.168.56-.728.84-1.511.84h-18.649a57.289,57.289,0,0,1-8.4,9.128c6.159-.28,13.551-.728,21.111-1.232A53.828,53.828,0,0,0,1066.8,6537l.56-.56c17.64,5.04,15.9,15.008,10.976,12.6a26.123,26.123,0,0,0-4.032-5.32c-7.56,1.4-17.3,2.912-30.52,4.536a2.331,2.331,0,0,1-1.511,1.176l-2.241-5.376c2.352,0,5.712-.112,9.744-.28a47.7,47.7,0,0,0,4.816-9.184h-11.312l-.5-1.568h29.96l2.745-3.3s1.119.784,2.407,1.848a53.783,53.783,0,0,0,1.96-5.1h-36.455c.111,3.36-1.065,5.712-2.465,6.944-1.344,1.064-3.584,1.12-4.312-.28-.559-1.344.168-2.688,1.456-3.528,1.905-1.288,3.752-4.76,3.584-8.12h.84a21.44,21.44,0,0,1,.784,3.3h15.568v-7.056l6.608.616c-.112.784-.616,1.344-2.015,1.568v4.872h16.351l2.52-2.576Z" fill="#006400"/>
    <path id="パス_2719" data-name="パス 2719" d="M1114.4,6571.552h-2.24v-56h2.24Z" fill="#006400"/>
    <path id="パス_2720" data-name="パス 2720" d="M639.575,6609.921c1.792,0,11.967-1.088,13.5-1.408.832-.16,1.024-.64,1.567-.64.96,0,3.3,1.824,3.3,2.72,0,.7-.927,1.024-1.376,2.08-3.359,8-9.087,13.983-18.526,17.567l-.479-.7c9.182-4.64,15.07-11.456,17.022-18.943.128-.48-.064-.544-.384-.544-1.408,0-10.495,1.312-12.319,1.7-.864.192-1.536.768-2.176.768-.96,0-2.464-1.5-2.784-2.3a6.692,6.692,0,0,1-.319-1.823l.607-.257C637.751,6608.929,638.423,6609.921,639.575,6609.921Zm17.023-4.16a3.376,3.376,0,0,1,6.752,0,3.376,3.376,0,1,1-6.752,0Zm1.088,0a2.3,2.3,0,1,0,2.3-2.271A2.3,2.3,0,0,0,657.686,6605.761Z"/>
    <path id="パス_2721" data-name="パス 2721" d="M670.552,6607.777a7.388,7.388,0,0,1,2.176-.576c1.312,0,3.36,1.472,3.36,2.24,0,.544-.672.928-.769,1.952-.16,1.76-.256,10.527-.256,13.471,0,.256.065.352.321.288,5.791-1.856,13.215-6.943,17.566-11.551l.609.608c-3.937,5.28-10.048,9.791-16.864,13.055-.992.48-1.055,1.248-1.727,1.248-.769,0-2.3-1.76-2.3-2.464,0-.448.512-.864.544-2.048.063-1.952.128-11.871-.064-14.271-.033-.544-.352-.992-2.56-1.343Z"/>
    <path id="パス_2722" data-name="パス 2722" d="M714.711,6604.354a5.71,5.71,0,0,1,2.08.351c1.248.416,2.655,1.825,2.655,2.657,0,.607-.575.544-1.439,1.5-1.184,1.312-2.752,3.04-4.864,5.056.9.576,1.632,1.12,1.632,1.568a14.128,14.128,0,0,0-.288,1.664c-.224,4.639-.064,9.535-.064,11.455,0,1.184-.288,1.568-.96,1.568-1.056,0-1.6-1.536-1.6-2.592,0-.576.256-1.216.384-2.272a81.354,81.354,0,0,0,.288-8.959,2.208,2.208,0,0,0-.48-1.408,45.035,45.035,0,0,1-12,7.583l-.416-.767a50.878,50.878,0,0,0,15.871-13.536,3.869,3.869,0,0,0,.864-1.631c0-.513-.544-.96-1.888-1.632Z"/>
    <path id="パス_2723" data-name="パス 2723" d="M730.01,6617.7l.511-.448a3.75,3.75,0,0,0,2.048,1.152c.449,0,.865-.288,1.5-.865,1.472-1.343,4.192-4.447,5.28-5.535a3,3,0,0,1,2.08-1.184,3.338,3.338,0,0,1,2.528,1.248c4.031,4.032,8.927,8.7,12.894,11.359a2.729,2.729,0,0,1,1.281,2.176.9.9,0,0,1-.96.992c-.9,0-2.464-1.312-4.608-3.36-2.016-1.951-7.2-7.423-9.631-9.855-.608-.576-.993-.8-1.409-.8-.351,0-.7.16-1.216.736-.991,1.152-3.487,4.384-4.67,5.856-.8.991-1.248,1.663-2.145,1.663a4.474,4.474,0,0,1-2.752-1.535A4.09,4.09,0,0,1,730.01,6617.7Zm21.5-5.056a14.144,14.144,0,0,0-3.2-3.1l.416-.512a13.412,13.412,0,0,1,3.9,2.176,3,3,0,0,1,1.311,2.24.738.738,0,0,1-.8.736C752.632,6614.177,752.216,6613.537,751.512,6612.641Zm3.168-2.752a13.871,13.871,0,0,0-3.456-2.976l.416-.544a12.055,12.055,0,0,1,3.936,1.952,3.284,3.284,0,0,1,1.472,2.336.7.7,0,0,1-.736.768C755.768,6611.425,755.416,6610.817,754.68,6609.889Z"/>
    <path id="パス_2724" data-name="パス 2724" d="M769.178,6615.3c.7,1.088,1.216,2.08,2.559,2.08,2.848,0,14.047-.736,15.519-.8,2.144-.16,3.04-.352,3.872-.352,1.216,0,2.655.544,2.655,1.408,0,.576-.319.927-1.407.927-1.12,0-2.24-.064-4.192-.064-2.016,0-11.007.48-13.407.768-1.824.192-2.175.672-3.1.672-.9,0-2.4-1.568-2.848-2.655a5.7,5.7,0,0,1-.288-1.792Z"/>
    <path id="パス_2725" data-name="パス 2725" d="M805.945,6604.962a9.776,9.776,0,0,1,2.048-.385c1.344,0,3.52,1.216,3.52,1.953,0,.639-.576.767-.7,1.823-.161,1.536-.224,3.872-.256,5.632a27.534,27.534,0,0,1,7.9,2.943,3.17,3.17,0,0,1,1.792,2.4,1.025,1.025,0,0,1-1.024,1.088c-1.056,0-1.408-1.088-3.328-2.559a25.121,25.121,0,0,0-5.343-2.752c-.033,2.208-.065,7.455-.033,10.847.033,1.408.1,2.368.1,2.912,0,.832-.319,1.216-1.023,1.216-1.056,0-1.6-1.76-1.6-2.848,0-.7.287-1.28.416-2.5.256-2.368.256-7.615.256-10.047,0-2.56,0-6.048-.192-7.648-.1-1.024-.8-1.216-2.5-1.407Z"/>
    <path id="パス_2726" data-name="パス 2726" d="M831.77,6612.9l.32-.7a33.555,33.555,0,0,1,4.287,1.344c1.952.8,3.137,1.952,3.137,3.168a.924.924,0,0,1-.929.992c-.991,0-1.5-1.152-3.167-2.4A22.515,22.515,0,0,0,831.77,6612.9Zm23.614-1.792.736.48c-3.647,6.4-10.4,12-17.471,15.9-.639.384-.992,1.216-1.824,1.216a6.522,6.522,0,0,1-3.712-2.368,5.263,5.263,0,0,1-.7-2.144l.512-.288c.863,1.024,1.855,2.112,2.943,2.112C838.041,6626.016,849.624,6619.1,855.384,6611.1Zm-19.326-4.352.351-.736a31.977,31.977,0,0,1,4.032,1.376c2.176,1.088,3.136,2.144,3.136,3.264a.962.962,0,0,1-.928,1.056c-.9,0-1.536-1.28-3.232-2.656A19.808,19.808,0,0,0,836.058,6606.753Z"/>
    <path id="パス_2727" data-name="パス 2727" d="M865.945,6622.176c5.888.544,11.007,2.336,13.279,3.872,1.088.736,1.664,1.44,1.664,2.176a.968.968,0,0,1-1.088.992c-.7,0-1.44-.7-2.528-1.44-3.9-2.592-6.815-3.52-11.551-4.832Zm1.408-8.543a26.237,26.237,0,0,1,8.959,1.984c1.216.576,1.888,1.184,1.888,2.08a.926.926,0,0,1-.992.928,4.1,4.1,0,0,1-1.76-.832,34.648,34.648,0,0,0-8.255-3.424Zm12.895-3.2a.939.939,0,0,1-.9.992c-.672,0-1.088-.416-1.952-1.024a29.926,29.926,0,0,0-9.535-3.871l.128-.7a30.5,30.5,0,0,1,9.984,2.208C879.736,6608.9,880.248,6609.537,880.248,6610.433Z"/>
    <path id="パス_2728" data-name="パス 2728" d="M894.171,6614.5a3.611,3.611,0,0,0,1.983,1.184,50.588,50.588,0,0,0,6.24-.928c.543-.128.864-.7,1.312-.7.672,0,2.72,1.248,2.72,1.888,0,.608-.737.832-.928,1.5-.353,1.184-1.152,4.543-1.728,6.879.8-.064,1.568-.1,2.24-.128a10.556,10.556,0,0,0,1.792-.256c1.088,0,3.135.992,3.135,1.856a.749.749,0,0,1-.832.8,53.342,53.342,0,0,0-5.311-.7,49.014,49.014,0,0,0-10.016.992,13.013,13.013,0,0,1-2.175.64c-.768,0-1.984-1.184-2.272-1.792a3.729,3.729,0,0,1-.32-1.472l.416-.1a2.844,2.844,0,0,0,2.048,1.184c.9,0,5.311-.512,9.375-.864.512-2.688,1.215-6.687,1.408-8.063a.255.255,0,0,0-.288-.288,36.554,36.554,0,0,0-5.152,1.152c-.608.191-1.024.543-1.568.543a3.506,3.506,0,0,1-2.207-1.759,3.123,3.123,0,0,1-.257-1.408Z"/>
    <path id="パス_2729" data-name="パス 2729" d="M920.378,6607.777a7.4,7.4,0,0,1,2.176-.576c1.312,0,3.36,1.472,3.36,2.24,0,.544-.672.928-.769,1.952-.16,1.76-.255,10.527-.255,13.471,0,.256.064.352.32.288,5.791-1.856,13.215-6.943,17.566-11.551l.609.608c-3.937,5.28-10.048,9.791-16.864,13.055-.992.48-1.055,1.248-1.727,1.248-.769,0-2.3-1.76-2.3-2.464,0-.448.512-.864.544-2.048.064-1.952.128-11.871-.064-14.271-.033-.544-.352-.992-2.56-1.343Z"/>
    <path id="パス_2730" data-name="パス 2730" d="M952.667,6615.3c.7,1.088,1.216,2.08,2.56,2.08,2.847,0,14.046-.736,15.518-.8,2.145-.16,3.04-.352,3.872-.352,1.216,0,2.655.544,2.655,1.408,0,.576-.319.927-1.407.927-1.12,0-2.24-.064-4.192-.064-2.016,0-11.007.48-13.406.768-1.825.192-2.176.672-3.105.672-.895,0-2.4-1.568-2.848-2.655a5.734,5.734,0,0,1-.288-1.792Z"/>
    <path id="パス_2731" data-name="パス 2731" d="M987.516,6612.9l.32-.7a33.552,33.552,0,0,1,4.287,1.344c1.952.8,3.137,1.952,3.137,3.168a.924.924,0,0,1-.929.992c-.991,0-1.5-1.152-3.167-2.4A22.509,22.509,0,0,0,987.516,6612.9Zm23.614-1.792.736.48c-3.647,6.4-10.4,12-17.471,15.9-.639.384-.992,1.216-1.824,1.216a6.522,6.522,0,0,1-3.712-2.368,5.278,5.278,0,0,1-.7-2.144l.512-.288c.863,1.024,1.855,2.112,2.943,2.112C993.787,6626.016,1005.37,6619.1,1011.13,6611.1Zm-19.326-4.352.351-.736a31.927,31.927,0,0,1,4.032,1.376c2.176,1.088,3.136,2.144,3.136,3.264a.962.962,0,0,1-.928,1.056c-.9,0-1.536-1.28-3.232-2.656A19.808,19.808,0,0,0,991.8,6606.753Z"/>
    <path id="パス_2732" data-name="パス 2732" d="M1021.117,6613.441c.48.576.96,1.248,1.728,1.248,1.471,0,7.807-.672,9.248-.9.831-.1.991-.576,1.535-.576.7,0,2.656,1.344,2.656,2.08,0,.576-.736.768-.832,1.5-.352,1.888-.96,6.047-1.408,8.831.736.224,1.376.736,1.376,1.184a.706.706,0,0,1-.768.768c-.511,0-1.664-.224-2.688-.224a61.19,61.19,0,0,0-7.679.7,11.727,11.727,0,0,1-1.632.448c-.8,0-1.92-1.248-2.175-1.856a3.615,3.615,0,0,1-.289-1.312l.384-.224c.544.608,1.024,1.28,1.92,1.28,1.632,0,6.944-.608,9.663-.8.16-1.248.321-2.976.512-4.64-2.688.193-5.695.576-7.615.832-.737.128-1.088.448-1.536.448-.672,0-1.664-1.023-1.984-1.632a3.453,3.453,0,0,1-.352-1.311l.416-.224a2.934,2.934,0,0,0,1.856,1.12c.928,0,6.3-.577,9.375-.8.192-1.631.353-3.071.448-3.807.033-.192-.064-.256-.224-.256a66.542,66.542,0,0,0-8.415.96,11.525,11.525,0,0,1-1.728.544c-.736,0-1.888-1.312-2.08-1.92a6.5,6.5,0,0,1-.192-1.312Z"/>
    <path id="パス_2733" data-name="パス 2733" d="M1071.322,6609.985l.736.48c-3.84,6.816-9.791,11.935-16.8,16.415-.64.384-.991,1.184-1.7,1.184-1.248,0-3.168-1.5-3.807-2.464a6.819,6.819,0,0,1-.672-2.08l.512-.32c.96,1.056,1.983,2.08,3.007,2.08C1055.067,6625.28,1066.778,6616.8,1071.322,6609.985Zm-21.5-3.008c3.649,1.024,8.064,3.2,8.064,5.664a1.093,1.093,0,0,1-1.12,1.184c-.512,0-.928-.352-1.76-1.344a21.542,21.542,0,0,0-5.567-4.832Z"/>
    <path id="パス_2734" data-name="パス 2734" d="M1083.036,6610.145c.64.768,1.151,1.792,2.272,1.792,1.631,0,10.655-.9,12.639-1.152,1.119-.128,1.344-.768,1.951-.768.832,0,2.977,1.5,2.977,2.3,0,.672-.8.96-.992,1.824-.321,1.408-.992,5.375-1.664,9.087,1.055.16,1.92.832,1.92,1.5,0,.512-.353.7-1.248.7-.96,0-2.336-.288-4.736-.288a50.924,50.924,0,0,0-8.416.864c-1.7.32-2.111.768-2.815.768-.9,0-2.3-1.28-2.72-2.112a5.789,5.789,0,0,1-.544-1.824l.608-.352c.7.832,1.5,1.888,2.752,1.888s9.727-.9,13.247-1.152c.544-3.84,1.215-8.767,1.343-10.591.033-.256-.063-.352-.319-.352-1.376,0-9.7.96-11.968,1.408-.735.16-1.471.7-2.048.7-.863,0-2.335-1.536-2.591-2.336a5.7,5.7,0,0,1-.288-1.7Zm17.631-4.128a11.384,11.384,0,0,1,3.68,2.144,2.622,2.622,0,0,1,1.088,1.888.727.727,0,0,1-.769.832c-.447,0-.863-.7-1.472-1.5a14.816,14.816,0,0,0-2.943-2.816Zm2.88-2.336a12.267,12.267,0,0,1,3.647,1.889,2.534,2.534,0,0,1,1.184,1.983c0,.512-.256.8-.735.8-.544,0-.832-.768-1.537-1.535a13.41,13.41,0,0,0-2.975-2.56Z"/>
    <path id="パス_2735" data-name="パス 2735" d="M1120.349,6611.489v-.672a5.357,5.357,0,0,1,1.855-.224c1.12.1,3.392,1.312,3.392,2.272,0,.672-.608.9-.768,1.7a21.324,21.324,0,0,1-9.855,13.663l-.544-.672c5.088-3.968,8.319-10.624,8.319-14.495C1122.748,6612.065,1121.116,6611.681,1120.349,6611.489Zm6.271-4.1a5.8,5.8,0,0,1,2.111-.383c1.281,0,3.361,1.151,3.361,1.919,0,.7-.64.7-.737,1.7-.16,1.472-.416,10.176-.416,12.575,0,.448.193.512.513.416a37.34,37.34,0,0,0,12.063-8.639l.672.544a37.458,37.458,0,0,1-11.807,10.143c-.736.448-1.152,1.344-1.792,1.344-.7,0-1.985-1.536-1.985-2.144s.353-.768.449-2.048c.16-1.824.352-10.431.16-13.5-.032-.8-.9-1.088-2.528-1.248Z"/>
    <path id="パス_2736" data-name="パス 2736" d="M1156.092,6609.089c1.824,0,12-1.088,13.535-1.408.832-.191,1.248-.7,1.792-.7.928,0,3.168,1.664,3.168,2.56,0,.7-1.025,1.248-1.473,2.3-3.359,7.967-9.087,13.951-18.526,17.567l-.48-.768c9.152-4.608,15.038-11.455,17.023-18.943.128-.48-.065-.544-.384-.544-1.408,0-10.495,1.28-12.319,1.7-.865.192-1.569.832-2.176.832-.96,0-2.464-1.536-2.784-2.336a6.49,6.49,0,0,1-.32-1.824l.608-.224C1154.268,6608.065,1154.972,6609.089,1156.092,6609.089Z"/>
  </g>
</svg>
