<svg xmlns="http://www.w3.org/2000/svg" width="586.853" height="124.538" viewBox="0 0 586.853 124.538">
  <g id="t-private-room" transform="translate(-611.403 -6315.357)">
    <g id="グループ_337" data-name="グループ 337">
      <path id="パス_3238" data-name="パス 3238" d="M895.686,6418.558a2.76,2.76,0,1,1,0,5.52,2.943,2.943,0,0,1-.647-.072c-.025.144-.073.312-.1.456-.552,2.448-1.656,6.241-3.6,8.809a18.663,18.663,0,0,1-9.529,6.5l-2.064-2.256a16.1,16.1,0,0,0,9.384-5.712,17.385,17.385,0,0,0,3-7.369H880.325c-1.008,0-1.968.048-2.592.1v-2.688c.672.072,1.8.168,2.592.168h11.641a8.09,8.09,0,0,0,1.032-.048,2.977,2.977,0,0,1-.072-.648A2.76,2.76,0,0,1,895.686,6418.558Zm0,4.248a1.517,1.517,0,0,0,1.513-1.488,1.538,1.538,0,0,0-1.513-1.512,1.517,1.517,0,0,0-1.488,1.512A1.5,1.5,0,0,0,895.686,6422.806Z" fill="#010101"/>
      <path id="パス_3239" data-name="パス 3239" d="M920.541,6428.063a16.973,16.973,0,0,1-3.529,6.72,17.72,17.72,0,0,1-8.593,5.112l-1.872-2.159a16.159,16.159,0,0,0,8.4-4.321,11.322,11.322,0,0,0,2.664-4.8H905.4c-.575,0-1.632.023-2.544.1v-2.5c.937.1,1.849.168,2.544.168h12.289a4.75,4.75,0,0,0,1.536-.217l1.705,1.056A4.161,4.161,0,0,0,920.541,6428.063Zm-13.2-7.321h9.337a23.01,23.01,0,0,0,2.353-.12v2.472c-.6-.048-1.561-.072-2.376-.072h-9.314c-.767,0-1.632.024-2.3.072v-2.472A21.992,21.992,0,0,0,907.339,6420.742Z" fill="#010101"/>
      <path id="パス_3240" data-name="パス 3240" d="M936.845,6425.35a29.66,29.66,0,0,0,6.673-5.712l2.016,1.92a40.553,40.553,0,0,1-6.456,5.256v9.961a17.914,17.914,0,0,0,.168,2.832h-2.977a27.726,27.726,0,0,0,.145-2.832v-8.352a49.112,49.112,0,0,1-8.858,3.72l-1.176-2.376A39.629,39.629,0,0,0,936.845,6425.35Z" fill="#010101"/>
      <path id="パス_3241" data-name="パス 3241" d="M949.749,6430.487c1.128-1.128,3.121-3.673,4.681-5.545,1.344-1.584,2.616-1.848,4.344-.192,1.513,1.416,3.48,3.481,4.9,4.993,1.633,1.728,4.057,4.344,5.905,6.336l-2.088,2.208c-1.68-2.016-3.744-4.488-5.233-6.216-1.391-1.608-3.576-3.96-4.536-4.9-.864-.841-1.344-.768-2.088.168-1.056,1.3-2.928,3.816-3.984,5.136-.505.7-1.057,1.464-1.44,2.016l-2.281-2.328A22.942,22.942,0,0,0,949.749,6430.487Zm16.129-4.393-1.727.769a26.276,26.276,0,0,0-2.208-3.865l1.68-.72A44.167,44.167,0,0,1,965.878,6426.094Zm3.217-1.32-1.7.817a21.764,21.764,0,0,0-2.3-3.793l1.681-.768A33.164,33.164,0,0,1,969.095,6424.774Z" fill="#010101"/>
      <path id="パス_3242" data-name="パス 3242" d="M977.04,6428.158H990.1c1.152,0,2.088-.1,2.688-.144v2.977c-.528-.024-1.632-.12-2.688-.12H977.04c-1.321,0-2.76.048-3.577.12v-2.977C974.255,6428.063,975.744,6428.158,977.04,6428.158Z" fill="#010101"/>
      <path id="パス_3243" data-name="パス 3243" d="M1001.984,6422.638a17.375,17.375,0,0,0-.216-2.688h2.952c-.072.792-.168,1.848-.168,2.688v3.745a81.262,81.262,0,0,1,10.153,3.84l-1.081,2.616a62.876,62.876,0,0,0-9.072-3.745v7.417a27.92,27.92,0,0,0,.193,3.073h-2.954a24.926,24.926,0,0,0,.193-3.073Z" fill="#010101"/>
      <path id="パス_3244" data-name="パス 3244" d="M1022.568,6432.143c.7-2.136.7-6.817.7-9.577a7.478,7.478,0,0,0-.192-1.944h2.784a18.086,18.086,0,0,0-.119,1.92c0,2.736-.1,7.849-.744,10.249a13.493,13.493,0,0,1-4.273,6.72l-2.3-1.536A11.109,11.109,0,0,0,1022.568,6432.143Zm7.081,4.536V6422.47a17.472,17.472,0,0,0-.145-1.92h2.785a14.394,14.394,0,0,0-.121,1.92v13.273a16.89,16.89,0,0,0,6.53-5.52l1.464,2.064a25.274,25.274,0,0,1-8.185,6.625,7.359,7.359,0,0,0-.912.6l-1.584-1.319A6.931,6.931,0,0,0,1029.649,6436.679Z" fill="#010101"/>
      <path id="パス_3245" data-name="パス 3245" d="M1048.7,6428.158h13.057c1.152,0,2.088-.1,2.688-.144v2.977c-.528-.024-1.632-.12-2.688-.12H1048.7c-1.321,0-2.76.048-3.577.12v-2.977C1045.917,6428.063,1047.406,6428.158,1048.7,6428.158Z" fill="#010101"/>
      <path id="パス_3246" data-name="パス 3246" d="M1078.433,6423.166c-.72,2.281-2.9,9.073-4.1,12.241,3.264-.288,7.32-.744,9.888-1.08a32.2,32.2,0,0,0-2.736-4.68l2.328-1.009a70.265,70.265,0,0,1,5.281,9.866l-2.545,1.152c-.311-.841-.744-1.9-1.248-3-3.816.456-11.5,1.3-14.617,1.584-.6.071-1.391.191-2.112.288l-.432-2.785c.744,0,1.68,0,2.4-.048.288-.024.624-.024.983-.048,1.345-3.432,3.625-10.609,4.3-13.033a15.147,15.147,0,0,0,.528-2.5l3,.624C1079.082,6421.39,1078.793,6422.11,1078.433,6423.166Z" fill="#010101"/>
    </g>
    <g id="グループ_336" data-name="グループ 336" style="mix-blend-mode: multiply;isolation: isolate">
      <path id="パス_3227" data-name="パス 3227" d="M736.793,6332.635v8.687c0,10.691-5.154,16.514-15.654,16.514h-4.965v25.106h-10.5V6316.12h15.465C731.639,6316.12,736.793,6321.944,736.793,6332.635Zm-20.619-6.969v22.624h4.965c3.34,0,5.154-1.527,5.154-6.3v-10.023c0-4.773-1.814-6.3-5.154-6.3Z" fill="#5a5a5a"/>
      <path id="パス_3228" data-name="パス 3228" d="M762.682,6382.942c-.574-1.719-.955-2.769-.955-8.21v-10.5c0-6.205-2.1-8.5-6.874-8.5h-3.626v27.206h-10.5V6316.12h15.846c10.882,0,15.56,5.06,15.56,15.37v5.25c0,6.873-2.2,11.359-6.873,13.555,5.25,2.2,6.968,7.255,6.968,14.223v10.309c0,3.246.1,5.633,1.146,8.115Zm-11.455-57.276v20.524h4.1c3.913,0,6.3-1.718,6.3-7.064v-6.587c0-4.773-1.623-6.873-5.346-6.873Z" fill="#5a5a5a"/>
      <path id="パス_3229" data-name="パス 3229" d="M777.686,6316.12h10.5v66.822h-10.5Z" fill="#5a5a5a"/>
      <path id="パス_3230" data-name="パス 3230" d="M810.676,6370.627l8.017-54.507h9.642l-10.31,66.822H802.37l-10.309-66.822h10.6Z" fill="#5a5a5a"/>
      <path id="パス_3231" data-name="パス 3231" d="M862.728,6382.942h-10.6l-1.814-12.123H837.431l-1.814,12.123h-9.641l10.691-66.822h15.369Zm-23.96-21.192h10.118l-5.06-33.793Z" fill="#5a5a5a"/>
      <path id="パス_3232" data-name="パス 3232" d="M860.35,6316.12h32.456v9.546H881.828v57.276h-10.5v-57.276H860.35Z" fill="#5a5a5a"/>
      <path id="パス_3233" data-name="パス 3233" d="M907.113,6344.281h14.414v9.545H907.113v19.57H925.25v9.546H896.612V6316.12H925.25v9.546H907.113Z" fill="#5a5a5a"/>
      <path id="パス_3234" data-name="パス 3234" d="M968.492,6382.942c-.573-1.719-.955-2.769-.955-8.21v-10.5c0-6.205-2.1-8.5-6.873-8.5h-3.627v27.206h-10.5V6316.12h15.847c10.882,0,15.559,5.06,15.559,15.37v5.25c0,6.873-2.2,11.359-6.873,13.555,5.25,2.2,6.968,7.255,6.968,14.223v10.309c0,3.246.1,5.633,1.147,8.115Zm-11.455-57.276v20.524h4.105c3.913,0,6.3-1.718,6.3-7.064v-6.587c0-4.773-1.623-6.873-5.345-6.873Z" fill="#5a5a5a"/>
      <path id="パス_3235" data-name="パス 3235" d="M982.484,6332.157c0-10.691,5.633-16.8,15.942-16.8s15.942,6.109,15.942,16.8V6366.9c0,10.691-5.632,16.8-15.942,16.8s-15.942-6.109-15.942-16.8Zm10.5,35.416c0,4.773,2.1,6.586,5.441,6.586s5.441-1.813,5.441-6.586V6331.49c0-4.774-2.1-6.587-5.441-6.587s-5.441,1.813-5.441,6.587Z" fill="#5a5a5a"/>
      <path id="パス_3236" data-name="パス 3236" d="M1018.777,6332.157c0-10.691,5.633-16.8,15.942-16.8s15.942,6.109,15.942,16.8V6366.9c0,10.691-5.632,16.8-15.942,16.8s-15.942-6.109-15.942-16.8Zm10.5,35.416c0,4.773,2.1,6.586,5.441,6.586s5.441-1.813,5.441-6.586V6331.49c0-4.774-2.1-6.587-5.441-6.587s-5.441,1.813-5.441,6.587Z" fill="#5a5a5a"/>
      <path id="パス_3237" data-name="パス 3237" d="M1077.951,6363.564l7.159-47.444h14.606v66.822h-9.928v-47.921l-7.255,47.921H1072.6l-7.828-47.252v47.252h-9.164V6316.12h14.606Z" fill="#5a5a5a"/>
    </g>
    <rect id="長方形_183" data-name="長方形 183" width="586.853" height="13.246" transform="translate(611.403 6396.711)" fill="#5a5a5a" style="mix-blend-mode: multiply;isolation: isolate"/>
  </g>
</svg>
