<svg xmlns="http://www.w3.org/2000/svg" xmlns:xlink="http://www.w3.org/1999/xlink" width="361" height="151.234" viewBox="0 0 361 151.234">
  <defs>
    <clipPath id="clip-path">
      <rect id="長方形_359" data-name="長方形 359" width="201.01" height="45.234" fill="#d2aa00"/>
    </clipPath>
    <clipPath id="clip-path-2">
      <path id="パス_4453" data-name="パス 4453" d="M75.034,29.764H49.344l.311,1.126h9.9a86.107,86.107,0,0,1-2.832,9c-2.717.116-4.967.194-6.559.194l2.716,5.395A1.639,1.639,0,0,0,54,44.628c9.236-1.863,15.6-3.26,20.257-4.5a19.1,19.1,0,0,1,1.979,4.657c5.161,3.687,8.769-7.257-6.559-11.526l-.349.233a33.867,33.867,0,0,1,4.347,5.589c-5.511.311-10.672.582-14.941.737a77.311,77.311,0,0,0,6.637-8.925H81.4c.583,0,.97-.194,1.087-.621-1.824-1.552-4.812-3.764-4.812-3.764ZM68.36,22.973h-12.3l.311,1.125H74.219c.543,0,.931-.194,1.048-.621-1.708-1.475-4.5-3.57-4.5-3.57ZM47.21,25.845l.271.427c7.956-2.794,16.183-8.615,19.714-14.358a25.859,25.859,0,0,0,13.31,13.66,5.893,5.893,0,0,1,3.725-4.541l.039-.621c-5.82-1.319-12.961-4.463-16.454-8.964,1.242-.117,1.785-.349,1.94-.893L62.577,8.77C60.986,14.164,54,21.887,47.21,25.845" transform="translate(-47.21 -8.77)" fill="#d2aa00"/>
    </clipPath>
    <clipPath id="clip-path-3">
      <path id="パス_4454" data-name="パス 4454" d="M131.575,19.057a11.132,11.132,0,0,1,3.026,5.588c3.725,2.756,7.3-4.618-2.677-5.86Zm3.453,14.514c-.388.815-.543.854-1.125.854h-1.668v.737a3.717,3.717,0,0,1,1.94.621c.892.621,1.048,4.269.349,8.344.272,1.474,1.126,2.018,2.018,2.018a3.079,3.079,0,0,0,3.144-3.221c.116-3.493-1.436-4.929-1.514-7.024a14.147,14.147,0,0,1,.505-3.61c.388-2.056,2.6-10.478,3.842-15.018l-.621-.155c-6.17,15.1-6.17,15.1-6.869,16.454M134.485,10.4a15.907,15.907,0,0,1,3.57,5.86c4.114,2.522,7.218-5.239-3.26-6.093Zm20.567,11.021h4.967V25.81h-4.967Zm0-5.394h4.967V20.3h-4.967Zm-4.463-1.087h-7.567l.35,1.087h7.217V20.3H141.7l.31,1.125h8.576V25.81h-7.916l.349,1.086h7.567v4.579h-8.732l.311,1.125h8.42v4.851h-9.973l.31,1.048h9.663v7.567h.893c1.668,0,3.57-1.125,3.57-1.591V38.5h12.38c.542,0,.969-.194,1.048-.621-1.63-1.436-4.308-3.57-4.308-3.57l-2.483,3.143h-6.637V32.6h10.556c.543,0,.97-.194,1.048-.62-1.591-1.475-4.23-3.532-4.23-3.532l-2.367,3.027h-5.006V26.9h4.967V28.6h.7c1.319,0,3.453-.738,3.492-1.009v-6.17h3.958c.505,0,.892-.194.97-.621a36.4,36.4,0,0,0-2.988-2.949l-1.59,2.445h-.35v-3.57a2.889,2.889,0,0,0,1.552-.776l-4.191-3.182-1.94,2.173h-4.579V11.529c1.048-.155,1.359-.543,1.436-1.087l-5.9-.582Z" transform="translate(-131.575 -9.86)" fill="#d2aa00"/>
    </clipPath>
    <clipPath id="clip-path-4">
      <path id="パス_4455" data-name="パス 4455" d="M245.133,15.061h-15.1l.35,1.125h5.471c-.194,11.177-.659,21.266-9.817,29.571l.388.427c12.96-6.4,13.582-17.269,13.97-30h5.161c-.271,14.32-.7,22.353-2.173,23.789a1.913,1.913,0,0,1-1.514.543c-.97,0-3.492-.194-5.161-.35v.543a8.07,8.07,0,0,1,3.842,1.707c.581.621.776,1.708.776,3.221a6.96,6.96,0,0,0,5.588-2.173c2.173-2.406,2.755-9.663,2.988-26.544a2.623,2.623,0,0,0,1.747-.738L247.578,12.5Zm-24.8,2.368H215.33l.349,1.086h9.779a43.978,43.978,0,0,1-11.1,15.523l.35.466a33.366,33.366,0,0,0,5.588-3.57V46.106h.815c2.173,0,3.57-.892,3.609-1.125V28.6a13.613,13.613,0,0,1,3.454,5.627c3.3,2.173,5.976-3.3-.466-5.666,1.241-.7,2.677-1.553,3.919-2.406a1.368,1.368,0,0,0,1.553-.466l-3.843-2.213a52.67,52.67,0,0,1-2.677,4.734c-.582-.155-1.242-.31-1.94-.426v-.854A33.008,33.008,0,0,0,230.27,19.1c.932-.078,1.281-.194,1.591-.583l-4-3.454-2.484,2.368h-.621V11.685c1.01-.156,1.32-.543,1.4-1.086l-5.821-.5Z" transform="translate(-214.359 -10.094)" fill="#d2aa00"/>
    </clipPath>
    <clipPath id="clip-path-5">
      <path id="パス_4456" data-name="パス 4456" d="M302.709,43.525A3.221,3.221,0,1,0,305.93,40.3a3.213,3.213,0,0,0-3.221,3.221m.117-23.556c0,1.824.5,5.006,1.707,10.75l.815,5.82h1.2l.776-5.82c1.242-5.744,1.746-8.925,1.746-10.75a3.124,3.124,0,1,0-6.247,0" transform="translate(-302.709 -16.787)" fill="#d2aa00"/>
    </clipPath>
    <clipPath id="clip-path-6">
      <path id="パス_4457" data-name="パス 4457" d="M332.4,43.525a3.221,3.221,0,1,0,3.221-3.221,3.213,3.213,0,0,0-3.221,3.221m.117-23.556c0,1.824.5,5.006,1.707,10.75l.815,5.82h1.2l.776-5.82c1.242-5.744,1.747-8.925,1.747-10.75a3.124,3.124,0,1,0-6.248,0" transform="translate(-332.396 -16.787)" fill="#d2aa00"/>
    </clipPath>
  </defs>
  <g id="top-main-copy_sp" transform="translate(-16 -653.687)">
    <text id="一年中いつでも楽しめる" transform="translate(44 728.921)" fill="#fff" font-size="18" font-family="HiraginoSans-W6, Hiragino Sans" letter-spacing="0.057em"><tspan x="0" y="0">一年中いつでも楽しめる</tspan></text>
    <text id="ファミリーでも気軽に使える" transform="translate(104 760.921)" fill="#fff" font-size="18" font-family="HiraginoSans-W6, Hiragino Sans" letter-spacing="0.057em"><tspan x="0" y="0">ファミリーでも気軽に使える</tspan></text>
    <text id="シミュレーションゴルフ施設" transform="translate(16 801.921)" fill="#fff" font-size="28" font-family="HiraginoSans-W6, Hiragino Sans"><tspan x="0" y="0">シミュレーションゴルフ施設</tspan></text>
    <g id="グループ_529" data-name="グループ 529" transform="translate(92.99 653.687)">
      <g id="グループ_516" data-name="グループ 516" transform="translate(0 0)">
        <g id="グループ_515" data-name="グループ 515" clip-path="url(#clip-path)">
          <path id="パス_4448" data-name="パス 4448" d="M69.757,10.555c-.156.543-.7.776-1.94.892,3.493,4.5,10.633,7.645,16.454,8.964l-.039.621a5.893,5.893,0,0,0-3.725,4.541A25.859,25.859,0,0,1,67.2,11.914c-3.531,5.744-11.758,11.564-19.714,14.358l-.271-.427C54,21.887,60.986,14.164,62.577,8.77ZM77.673,26.5s2.988,2.212,4.812,3.764c-.117.427-.5.621-1.087.621H65.372a77.167,77.167,0,0,1-6.637,8.925c4.269-.155,9.43-.427,14.941-.737a33.894,33.894,0,0,0-4.347-5.589l.349-.233C85.007,37.526,81.4,48.47,76.238,44.783a19.11,19.11,0,0,0-1.979-4.657C69.6,41.368,63.237,42.765,54,44.628a1.637,1.637,0,0,1-1.126.854l-2.716-5.394c1.591,0,3.842-.077,6.558-.194a86.081,86.081,0,0,0,2.833-9h-9.9l-.311-1.125H75.034Zm-6.908-6.6s2.794,2.1,4.5,3.57c-.116.427-.5.621-1.048.621H56.368l-.311-1.125h12.3Z" transform="translate(-23.672 -4.397)" fill="#d2aa00"/>
          <path id="パス_4449" data-name="パス 4449" d="M131.923,18.785c9.973,1.242,6.4,8.615,2.678,5.86a11.134,11.134,0,0,0-3.027-5.588Zm10.594-1.513c-1.241,4.54-3.453,12.961-3.842,15.018a14.137,14.137,0,0,0-.5,3.609c.078,2.1,1.63,3.531,1.514,7.024a3.079,3.079,0,0,1-3.144,3.221c-.892,0-1.747-.543-2.018-2.018.7-4.075.543-7.723-.349-8.344a3.712,3.712,0,0,0-1.94-.621v-.737H133.9c.582,0,.737-.039,1.125-.854.7-1.358.7-1.358,6.869-16.454Zm-7.722-7.1c10.478.854,7.373,8.615,3.26,6.093a15.9,15.9,0,0,0-3.57-5.86ZM160.019,28.6V26.9h-4.967v4.579h5.006l2.367-3.027s2.639,2.057,4.23,3.531c-.078.427-.5.621-1.048.621H155.052v4.851h6.637l2.483-3.144s2.678,2.134,4.308,3.57c-.078.427-.505.621-1.048.621h-12.38v5.976c0,.466-1.9,1.591-3.57,1.591h-.893V38.5h-9.663l-.31-1.048h9.973V32.6h-8.421l-.311-1.126h8.732V26.9h-7.567l-.349-1.087h7.916V21.424h-8.576L141.7,20.3h8.887V16.03h-7.218l-.349-1.086h7.567V9.86l5.9.582c-.077.543-.388.931-1.436,1.086v3.415h4.579l1.94-2.173,4.191,3.182a2.889,2.889,0,0,1-1.552.776V20.3h.35l1.591-2.445a36.431,36.431,0,0,1,2.988,2.95c-.077.427-.466.621-.97.621H164.21v6.17c-.039.272-2.173,1.009-3.493,1.009Zm-4.967-8.3h4.967V16.03h-4.967Zm4.967,1.125h-4.967v4.385h4.967Z" transform="translate(-65.974 -4.944)" fill="#d2aa00"/>
          <path id="パス_4450" data-name="パス 4450" d="M233.18,25.693a1.366,1.366,0,0,1-1.552.466c-1.242.854-2.678,1.707-3.919,2.406,6.442,2.367,3.764,7.839.465,5.665A13.615,13.615,0,0,0,224.72,28.6V44.98c-.039.233-1.435,1.125-3.609,1.125H220.3V30.932a33.286,33.286,0,0,1-5.589,3.57l-.349-.466a43.981,43.981,0,0,0,11.1-15.523h-9.779l-.349-1.086h5.006V10.093l5.821.5c-.078.543-.388.931-1.4,1.086v5.744h.621l2.483-2.367,4,3.454c-.311.388-.66.5-1.591.582a33,33,0,0,1-5.549,7.839v.854c.7.116,1.358.272,1.94.427a52.86,52.86,0,0,0,2.677-4.734Zm18.472-9.508a2.624,2.624,0,0,1-1.747.737c-.233,16.881-.815,24.138-2.988,26.544a6.96,6.96,0,0,1-5.588,2.173c0-1.514-.194-2.6-.776-3.221a8.066,8.066,0,0,0-3.842-1.708v-.543c1.669.156,4.191.35,5.161.35a1.914,1.914,0,0,0,1.514-.543c1.475-1.436,1.9-9.469,2.173-23.789H240.4c-.388,12.729-1.01,23.595-13.971,30l-.388-.427c9.158-8.3,9.624-18.394,9.817-29.571h-5.471l-.349-1.125h15.1l2.445-2.561Z" transform="translate(-107.485 -5.061)" fill="#d2aa00"/>
          <path id="パス_4451" data-name="パス 4451" d="M302.709,43.525a3.221,3.221,0,1,1,3.221,3.221,3.213,3.213,0,0,1-3.221-3.221m6.365-23.556c0,1.824-.5,5.006-1.747,10.749l-.776,5.821h-1.2l-.815-5.821c-1.2-5.743-1.707-8.925-1.707-10.749a3.124,3.124,0,1,1,6.248,0" transform="translate(-151.786 -8.417)" fill="#d2aa00"/>
          <path id="パス_4452" data-name="パス 4452" d="M332.4,43.525a3.221,3.221,0,1,1,3.221,3.221,3.213,3.213,0,0,1-3.221-3.221m6.365-23.556c0,1.824-.5,5.006-1.747,10.749l-.776,5.821h-1.2l-.815-5.821c-1.2-5.743-1.707-8.925-1.707-10.749a3.124,3.124,0,1,1,6.248,0" transform="translate(-166.672 -8.417)" fill="#d2aa00"/>
        </g>
      </g>
      <g id="グループ_518" data-name="グループ 518" transform="translate(23.538 4.372)">
        <g id="グループ_517" data-name="グループ 517" clip-path="url(#clip-path-2)">
          <rect id="長方形_360" data-name="長方形 360" width="54.798" height="54.798" transform="translate(-19.85 19.85) rotate(-45)" fill="#d2aa00"/>
        </g>
      </g>
      <g id="グループ_520" data-name="グループ 520" transform="translate(65.6 4.916)">
        <g id="グループ_519" data-name="グループ 519" clip-path="url(#clip-path-3)">
          <rect id="長方形_361" data-name="長方形 361" width="52.219" height="52.219" transform="translate(-18.142 18.142) rotate(-45)" fill="#d2aa00"/>
        </g>
      </g>
      <g id="グループ_522" data-name="グループ 522" transform="translate(106.874 5.032)">
        <g id="グループ_521" data-name="グループ 521" clip-path="url(#clip-path-4)">
          <rect id="長方形_362" data-name="長方形 362" width="51.89" height="51.89" transform="translate(-18.045 18.045) rotate(-45)" fill="#d2aa00"/>
        </g>
      </g>
      <g id="グループ_524" data-name="グループ 524" transform="translate(150.923 8.369)">
        <g id="グループ_523" data-name="グループ 523" clip-path="url(#clip-path-5)">
          <rect id="長方形_363" data-name="長方形 363" width="25.739" height="25.739" transform="translate(-14.979 14.979) rotate(-45)" fill="#d2aa00"/>
        </g>
      </g>
      <g id="グループ_526" data-name="グループ 526" transform="translate(165.724 8.369)">
        <g id="グループ_525" data-name="グループ 525" clip-path="url(#clip-path-6)">
          <rect id="長方形_364" data-name="長方形 364" width="25.739" height="25.739" transform="translate(-14.979 14.979) rotate(-45)" fill="#d2aa00"/>
        </g>
      </g>
      <g id="グループ_528" data-name="グループ 528" transform="translate(0 0)">
        <g id="グループ_527" data-name="グループ 527" clip-path="url(#clip-path)">
          <path id="パス_4458" data-name="パス 4458" d="M8.863,0l7.523,45.234L0,2.407Z" transform="translate(0 0)" fill="#d2aa00"/>
          <path id="パス_4459" data-name="パス 4459" d="M386.691,2.407,370.305,45.233,377.828,0Z" transform="translate(-185.68 0)" fill="#d2aa00"/>
        </g>
      </g>
    </g>
  </g>
</svg>
