<svg id="top-logo" xmlns="http://www.w3.org/2000/svg" xmlns:xlink="http://www.w3.org/1999/xlink" width="171.566" height="102.015" viewBox="0 0 171.566 102.015">
  <defs>
    <linearGradient id="linear-gradient" x1="-0.054" y1="0.955" x2="0.783" y2="0.481" gradientUnits="objectBoundingBox">
      <stop offset="0.142" stop-color="#8abf1f"/>
      <stop offset="0.385" stop-color="#53894b"/>
      <stop offset="0.618" stop-color="#265d70"/>
      <stop offset="0.796" stop-color="#0a4287"/>
      <stop offset="0.9" stop-color="#003890"/>
    </linearGradient>
  </defs>
  <g id="グループ_275" data-name="グループ 275" transform="translate(39.28 0)">
    <g id="グループ_272" data-name="グループ 272">
      <path id="パス_2467" data-name="パス 2467" d="M146.451,98.931c-9.558,0-14.607,5.771-14.607,15.51v33.9c0,9.738,5.05,15.509,14.607,15.509s14.607-5.77,14.607-15.509v-8.476h-9.377v9.2c0,4.147-1.984,5.771-4.96,5.771s-4.959-1.624-4.959-5.771V113.809c0-4.148,1.984-5.861,4.959-5.861s4.96,1.713,4.96,5.861v7.3h9.377v-6.672C161.059,104.7,156.01,98.931,146.451,98.931Z" transform="translate(-131.844 -78.404)" fill="#010101"/>
      <path id="パス_2468" data-name="パス 2468" d="M239.6,120.723v-5.566c0-10.39-5.2-16.328-15.215-16.328s-15.215,5.938-15.215,16.328V149.3c0,10.39,5.2,16.328,15.215,16.328S239.6,159.688,239.6,149.3V128.052H224.853v9.277h5.1v12.71c0,4.638-2.041,6.308-5.288,6.308s-5.288-1.67-5.288-6.308V114.507c0-4.639,2.041-6.4,5.288-6.4s5.288,1.763,5.288,6.4v6.216Z" transform="translate(-157.948 -78.369)" fill="#010101"/>
      <path id="パス_2469" data-name="パス 2469" d="M181.583,101.959c-.342,1.229-.156,3.726.309,4.179,0,0,3.144,4.449,3.372,14.181s.233,38.116.233,38.116l3.379,7.872,3.39-7.944.28-38.014a29.976,29.976,0,0,1,3.37-14.393,6.188,6.188,0,0,0-.051-3.927A32.649,32.649,0,0,1,181.583,101.959Z" transform="translate(-148.575 -79.426)" fill="#010101"/>
      <path id="パス_2470" data-name="パス 2470" d="M186.931,67.944a11.045,11.045,0,1,0,11.045,11.045A11.058,11.058,0,0,0,186.931,67.944Zm-10.1,11.045a10.1,10.1,0,0,1,17.806-6.527.655.655,0,0,0-.066-.039c-.028-.014-.038-.017-.044-.014-.006.025.144.154.274.25a10.06,10.06,0,0,1,2.058,4.447c-.156.1-.08.645.136.962.017.181.021.364.028.547a.279.279,0,0,0-.144-.059c-.325.008-.284.978.054,1.266a.292.292,0,0,0,.065.038c-.015.176-.039.348-.063.521a.623.623,0,0,0-.155-.213.3.3,0,0,0-.225-.086c-.287.039-.57.95-.115,1.355a.244.244,0,0,0,.274.064,10.05,10.05,0,0,1-1.308,2.984,1.545,1.545,0,0,0-.1.162,10.221,10.221,0,0,1-.823,1.041,1.335,1.335,0,0,0-.314.345,10.169,10.169,0,0,1-2.4,1.828.765.765,0,0,0,.083-.156.327.327,0,0,0-.138-.415.594.594,0,0,0-.111-.057c-.51-.2-1.2.356-.995.8a.43.43,0,0,0,.378.209c-.138.061-.281.114-.423.169a.4.4,0,0,0-.1-.087.721.721,0,0,0-.15-.068c-.383-.114-.878.209-.87.511a10.067,10.067,0,0,1-1.055.211.4.4,0,0,0,.088-.15c.028-.174-.134-.28-.2-.325a.716.716,0,0,0-.259-.1c-.36-.056-.712.248-.5.532a.622.622,0,0,0,.125.119c-.233.016-.466.036-.7.036a10.044,10.044,0,0,1-2.682-.373.125.125,0,0,0,.069-.169.594.594,0,0,0-.215-.235c-.057-.029-.207-.105-.3-.065-.109.048-.087.244.183.4A10.121,10.121,0,0,1,176.827,78.989Z" transform="translate(-146.711 -67.944)" fill="#010101"/>
      <path id="パス_2471" data-name="パス 2471" d="M204.575,90.888c-.519-.06-.995.866-.661,1.287.4.5.966-.111,1.041-.626a.749.749,0,0,0-.17-.594A.612.612,0,0,0,204.575,90.888Z" transform="translate(-156.135 -75.688)" fill="#010101"/>
      <path id="パス_2472" data-name="パス 2472" d="M202.886,93.277c-.582-.134-1.155.707-.908,1.114.329.54,1.076.058,1.218-.491a.6.6,0,0,0-.138-.558A.827.827,0,0,0,202.886,93.277Z" transform="translate(-155.499 -76.491)" fill="#010101"/>
      <path id="パス_2473" data-name="パス 2473" d="M201.2,95.365a.8.8,0,0,0-.1-.056c-.487-.2-1.265.478-1.055.924a.5.5,0,0,0,.6.252.988.988,0,0,0,.7-.631A.387.387,0,0,0,201.2,95.365Z" transform="translate(-154.853 -77.169)" fill="#010101"/>
      <path id="パス_2474" data-name="パス 2474" d="M205.856,88.52c-.407,0-.766.978-.387,1.382.331.354.8-.063.827-.732a.64.64,0,0,0-.193-.548A.378.378,0,0,0,205.856,88.52Z" transform="translate(-156.643 -74.89)" fill="#010101"/>
      <path id="パス_2475" data-name="パス 2475" d="M204.743,87.748a.718.718,0,0,0-.276-.528.546.546,0,0,0-.3-.078.757.757,0,0,0-.267,1.232C204.435,88.843,204.756,88.1,204.743,87.748Z" transform="translate(-156.096 -74.424)" fill="#010101"/>
      <path id="パス_2476" data-name="パス 2476" d="M201.5,91.828a.643.643,0,0,0-.334-.125c-.462-.025-.986.709-.661,1.108.416.512,1.133.127,1.216-.49A.5.5,0,0,0,201.5,91.828Z" transform="translate(-154.986 -75.964)" fill="#010101"/>
      <path id="パス_2477" data-name="パス 2477" d="M203.386,90.078a.61.61,0,0,0-.52-.644.791.791,0,0,0-.54,1.2C202.783,91.147,203.345,90.64,203.386,90.078Z" transform="translate(-155.59 -75.198)" fill="#010101"/>
      <path id="パス_2478" data-name="パス 2478" d="M197.658,95.748a.891.891,0,0,0-.235-.1c-.516-.134-1.008.436-.806.774a.694.694,0,0,0,1.222-.213A.447.447,0,0,0,197.658,95.748Z" transform="translate(-153.694 -77.289)" fill="#010101"/>
      <path id="パス_2479" data-name="パス 2479" d="M199.863,94.4a.442.442,0,0,0-.213-.466.724.724,0,0,0-.266-.114c-.488-.094-1.043.572-.792.951A.728.728,0,0,0,199.863,94.4Z" transform="translate(-154.355 -76.675)" fill="#010101"/>
      <path id="パス_2480" data-name="パス 2480" d="M195.746,97.526a.78.78,0,0,0-.228-.1c-.454-.113-.874.35-.7.635a.656.656,0,0,0,.613.265.621.621,0,0,0,.509-.437h0A.357.357,0,0,0,195.746,97.526Z" transform="translate(-153.089 -77.89)" fill="#010101"/>
      <path id="パス_2481" data-name="パス 2481" d="M205.706,85.4a.656.656,0,0,0-.264-.458.422.422,0,0,0-.294-.089c-.311.052-.542.841-.039,1.215C205.459,86.333,205.794,85.958,205.706,85.4Z" transform="translate(-156.476 -73.652)" fill="#010101"/>
      <path id="パス_2482" data-name="パス 2482" d="M200.9,87.918a.672.672,0,0,0-.443,1.143.621.621,0,0,0,1.014-.486.6.6,0,0,0-.291-.554A.631.631,0,0,0,200.9,87.918Z" transform="translate(-154.941 -74.686)" fill="#010101"/>
      <path id="パス_2483" data-name="パス 2483" d="M195.455,94.159c-.43-.074-.895.423-.626.81a.64.64,0,0,0,.643.257.554.554,0,0,0,.491-.484.464.464,0,0,0-.223-.462A.75.75,0,0,0,195.455,94.159Z" transform="translate(-153.079 -76.791)" fill="#010101"/>
      <path id="パス_2484" data-name="パス 2484" d="M196.7,93.188a.656.656,0,0,0,1.117-.346.539.539,0,0,0-.26-.543.652.652,0,0,0-.266-.113A.631.631,0,0,0,196.7,93.188Z" transform="translate(-153.689 -76.125)" fill="#010101"/>
      <path id="パス_2485" data-name="パス 2485" d="M206.088,82.791a.327.327,0,0,0-.241-.069c-.313.07-.26.919.176,1.155.241.13.5-.127.347-.663A.727.727,0,0,0,206.088,82.791Z" transform="translate(-156.758 -72.931)" fill="#010101"/>
      <path id="パス_2486" data-name="パス 2486" d="M199.343,91.395a.782.782,0,0,0,.444-.6.579.579,0,0,0-.267-.53.657.657,0,0,0-.285-.117.671.671,0,0,0-.54,1.11A.6.6,0,0,0,199.343,91.395Z" transform="translate(-154.353 -75.437)" fill="#010101"/>
      <path id="パス_2487" data-name="パス 2487" d="M193.691,95.917c-.346-.039-.8.306-.48.717a.574.574,0,0,0,1.013-.17.462.462,0,0,0-.238-.434A.667.667,0,0,0,193.691,95.917Z" transform="translate(-152.523 -77.386)" fill="#010101"/>
      <path id="パス_2488" data-name="パス 2488" d="M202.259,85.7a.643.643,0,0,0-.228,1.112c.366.293.88.044.823-.552a.6.6,0,0,0-.27-.462A.536.536,0,0,0,202.259,85.7Z" transform="translate(-155.458 -73.937)" fill="#010101"/>
      <path id="パス_2489" data-name="パス 2489" d="M192.418,97.582a.693.693,0,0,0-.307-.113c-.272-.02-.611.269-.334.576.348.385.857.2.878-.117C192.661,97.845,192.624,97.717,192.418,97.582Z" transform="translate(-152.04 -77.91)" fill="#010101"/>
      <path id="パス_2490" data-name="パス 2490" d="M205.956,80.63c-.217.1,0,.873.37,1,.309.108.219-.4.131-.6a.789.789,0,0,0-.289-.346C206.122,80.657,206.024,80.6,205.956,80.63Z" transform="translate(-156.833 -72.223)" fill="#010101"/>
      <path id="パス_2491" data-name="パス 2491" d="M203.291,84.573c.371.251.666-.121.58-.553a.625.625,0,0,0-.284-.409.414.414,0,0,0-.313-.082A.614.614,0,0,0,203.291,84.573Z" transform="translate(-155.862 -73.203)" fill="#010101"/>
      <path id="パス_2492" data-name="パス 2492" d="M197.679,89.13a.632.632,0,0,0-.242-.5.742.742,0,0,0-.3-.111.569.569,0,0,0-.466.895A.552.552,0,0,0,197.679,89.13Z" transform="translate(-153.691 -74.887)" fill="#010101"/>
      <path id="パス_2493" data-name="パス 2493" d="M191.324,95.052a.574.574,0,0,0,.507.211c.348-.069.363-.3.368-.382a.462.462,0,0,0-.213-.391.659.659,0,0,0-.308-.13A.411.411,0,0,0,191.324,95.052Z" transform="translate(-151.881 -76.86)" fill="#010101"/>
      <path id="パス_2494" data-name="パス 2494" d="M193.4,92.535a.491.491,0,0,0-.456.754.527.527,0,0,0,.979-.164.62.62,0,0,0-.256-.5A.827.827,0,0,0,193.4,92.535Z" transform="translate(-152.439 -76.244)" fill="#010101"/>
      <path id="パス_2495" data-name="パス 2495" d="M199.079,86.49a.687.687,0,0,0-.3-.1.547.547,0,0,0-.368.9.513.513,0,0,0,.92-.32A.589.589,0,0,0,199.079,86.49Z" transform="translate(-154.27 -74.171)" fill="#010101"/>
      <path id="パス_2496" data-name="パス 2496" d="M191.139,98.9a.625.625,0,0,0-.393-.109c-.132.021-.406.216-.053.5s.689.119.662-.126C191.339,99.031,191.2,98.94,191.139,98.9Z" transform="translate(-151.651 -78.356)" fill="#010101"/>
      <path id="パス_2497" data-name="パス 2497" d="M200.486,84.335a.51.51,0,0,0-.3-.089.538.538,0,0,0-.157.955.465.465,0,0,0,.749-.424A.548.548,0,0,0,200.486,84.335Z" transform="translate(-154.784 -73.446)" fill="#010101"/>
      <path id="パス_2498" data-name="パス 2498" d="M201.278,83.052c.3.2.645,0,.559-.435a.582.582,0,0,0-.276-.389.438.438,0,0,0-.279-.074C201,82.2,200.825,82.75,201.278,83.052Z" transform="translate(-155.189 -72.74)" fill="#010101"/>
      <path id="パス_2499" data-name="パス 2499" d="M203.884,81.982a.792.792,0,0,0,.348.493c.3.167.474-.167.364-.527a.675.675,0,0,0-.3-.382.362.362,0,0,0-.258-.065C203.859,81.554,203.867,81.9,203.884,81.982Z" transform="translate(-156.159 -72.518)" fill="#010101"/>
      <path id="パス_2500" data-name="パス 2500" d="M204.41,79.535a.293.293,0,0,0-.215-.049c-.2.075-.045.707.353.864.146.058.366-.067.164-.478A.77.77,0,0,0,204.41,79.535Z" transform="translate(-156.238 -71.837)" fill="#010101"/>
      <path id="パス_2501" data-name="パス 2501" d="M189.9,96.576a.6.6,0,0,0,.47.2c.3-.044.3-.225.3-.313a.432.432,0,0,0-.209-.348.651.651,0,0,0-.311-.125A.332.332,0,0,0,189.9,96.576Z" transform="translate(-151.4 -77.411)" fill="#010101"/>
      <path id="パス_2502" data-name="パス 2502" d="M205.635,78.654c-.146.094.194.79.5.855.094.021.2-.13-.028-.5a.89.89,0,0,0-.305-.319C205.761,78.668,205.681,78.624,205.635,78.654Z" transform="translate(-156.742 -71.556)" fill="#010101"/>
      <path id="パス_2503" data-name="パス 2503" d="M194.724,91.362a.547.547,0,0,0,1.013-.242.583.583,0,0,0-.223-.48.766.766,0,0,0-.3-.126A.555.555,0,0,0,194.724,91.362Z" transform="translate(-153.038 -75.562)" fill="#010101"/>
      <path id="パス_2504" data-name="パス 2504" d="M202.645,80.5a.662.662,0,0,0-.289-.341.337.337,0,0,0-.217-.054c-.272.056-.185.592.128.785C202.542,81.058,202.761,80.832,202.645,80.5Z" transform="translate(-155.518 -72.047)" fill="#010101"/>
      <path id="パス_2505" data-name="パス 2505" d="M193.628,89.295a.568.568,0,0,0-.176-.448.645.645,0,0,0-.254-.106.455.455,0,0,0-.4.727A.447.447,0,0,0,193.628,89.295Z" transform="translate(-152.39 -74.963)" fill="#010101"/>
      <path id="パス_2506" data-name="パス 2506" d="M195.406,87.249a.509.509,0,0,0-.212-.455.448.448,0,0,0-.221-.1.468.468,0,0,0-.352.8A.449.449,0,0,0,195.406,87.249Z" transform="translate(-152.991 -74.274)" fill="#010101"/>
      <path id="パス_2507" data-name="パス 2507" d="M196.544,85.381a.417.417,0,0,0,.749-.272.481.481,0,0,0-.213-.4.428.428,0,0,0-.536.668Z" transform="translate(-153.642 -73.574)" fill="#010101"/>
      <path id="パス_2508" data-name="パス 2508" d="M204.089,77.7c-.043-.021-.122-.06-.163-.03-.064.046.01.266.092.385a.712.712,0,0,0,.381.3c.15.026.111-.21-.027-.407A.8.8,0,0,0,204.089,77.7Z" transform="translate(-156.168 -71.222)" fill="#010101"/>
      <path id="パス_2509" data-name="パス 2509" d="M198.083,83.344c.382.333.618-.067.61-.274a.548.548,0,0,0-.231-.374.465.465,0,0,0-.223-.067A.4.4,0,0,0,198.083,83.344Z" transform="translate(-154.15 -72.901)" fill="#010101"/>
      <path id="パス_2510" data-name="パス 2510" d="M205.475,77.538c.1,0-.021-.238-.148-.388a1.113,1.113,0,0,0-.259-.223c-.038-.019-.11-.056-.137-.032-.042.036.074.248.2.4A.74.74,0,0,0,205.475,77.538Z" transform="translate(-156.513 -70.963)" fill="#010101"/>
      <path id="パス_2511" data-name="パス 2511" d="M199.78,81.028a.453.453,0,0,0-.211-.287.339.339,0,1,0-.25.6C199.622,81.545,199.833,81.287,199.78,81.028Z" transform="translate(-154.552 -72.238)" fill="#010101"/>
      <path id="パス_2512" data-name="パス 2512" d="M202.513,78.3c-.048-.025-.138-.072-.2-.044-.146.068-.026.552.346.668.2.063.212-.178.111-.368A.625.625,0,0,0,202.513,78.3Z" transform="translate(-155.612 -71.421)" fill="#010101"/>
      <path id="パス_2513" data-name="パス 2513" d="M189.422,93.236c.33.39.691.152.7-.137a.449.449,0,0,0-.19-.35.469.469,0,0,0-.257-.119A.36.36,0,0,0,189.422,93.236Z" transform="translate(-151.247 -76.277)" fill="#010101"/>
      <path id="パス_2514" data-name="パス 2514" d="M191.84,91.232a.467.467,0,0,0-.178-.372.494.494,0,0,0-.3-.134.435.435,0,0,0-.248.765A.415.415,0,0,0,191.84,91.232Z" transform="translate(-151.8 -75.634)" fill="#010101"/>
      <path id="パス_2515" data-name="パス 2515" d="M188.065,94.924c.315.283.551.034.542-.149a.533.533,0,0,0-.153-.292.542.542,0,0,0-.307-.132C187.951,94.357,187.742,94.634,188.065,94.924Z" transform="translate(-150.766 -76.858)" fill="#010101"/>
      <path id="パス_2516" data-name="パス 2516" d="M189.036,97.452a.59.59,0,0,0-.319-.1c-.162.017-.328.241-.024.484.383.3.572.057.552-.1A.52.52,0,0,0,189.036,97.452Z" transform="translate(-150.977 -77.87)" fill="#010101"/>
      <path id="パス_2517" data-name="パス 2517" d="M203.657,76.405c.112.007.013-.166-.1-.287a1.242,1.242,0,0,0-.288-.215c-.027-.006-.081-.019-.105,0C203.06,75.97,203.478,76.4,203.657,76.405Z" transform="translate(-155.912 -70.627)" fill="#010101"/>
      <path id="パス_2518" data-name="パス 2518" d="M204.467,75.832c.045,0,0-.07-.024-.111a.8.8,0,0,0-.171-.176.963.963,0,0,0-.223-.156c-.048-.023-.083-.028-.093-.017C203.906,75.432,204.35,75.832,204.467,75.832Z" transform="translate(-156.185 -70.449)" fill="#010101"/>
      <path id="パス_2519" data-name="パス 2519" d="M196.669,81.45a.323.323,0,0,0-.13-.236.336.336,0,0,0-.185-.074c-.211,0-.335.339-.13.532A.259.259,0,0,0,196.669,81.45Z" transform="translate(-153.541 -72.398)" fill="#010101"/>
      <path id="パス_2520" data-name="パス 2520" d="M195.072,83.686a.259.259,0,0,0,.191-.28.391.391,0,0,0-.145-.317.287.287,0,0,0-.15-.065.336.336,0,0,0-.225.592A.271.271,0,0,0,195.072,83.686Z" transform="translate(-153.038 -73.034)" fill="#010101"/>
      <path id="パス_2521" data-name="パス 2521" d="M186.768,95.783c-.164.019-.2.286.047.462.27.2.413.043.388-.115a.516.516,0,0,0-.172-.265A.5.5,0,0,0,186.768,95.783Z" transform="translate(-150.34 -77.341)" fill="#010101"/>
      <path id="パス_2522" data-name="パス 2522" d="M189.583,89.544a.273.273,0,0,0,.23-.281.361.361,0,0,0-.1-.32.387.387,0,0,0-.223-.11c-.275-.031-.431.356-.236.584A.337.337,0,0,0,189.583,89.544Z" transform="translate(-151.194 -74.995)" fill="#010101"/>
      <path id="パス_2523" data-name="パス 2523" d="M200.14,79.387c.178.117.417.011.319-.271a.508.508,0,0,0-.223-.262.28.28,0,0,0-.172-.045c-.111.02-.144.16-.132.252A.631.631,0,0,0,200.14,79.387Z" transform="translate(-154.827 -71.611)" fill="#010101"/>
      <path id="パス_2524" data-name="パス 2524" d="M202.453,77.074c.09.013.088-.072.087-.088,0-.058-.007-.084-.11-.211a.662.662,0,0,0-.219-.185c-.075-.036-.133-.044-.16-.021C201.956,76.65,202.234,77.044,202.453,77.074Z" transform="translate(-155.537 -70.851)" fill="#010101"/>
      <path id="パス_2525" data-name="パス 2525" d="M193.273,85.538c.211-.081.215-.173.223-.325a.342.342,0,0,0-.114-.293.369.369,0,0,0-.245-.1.373.373,0,0,0-.227.621A.324.324,0,0,0,193.273,85.538Z" transform="translate(-152.425 -73.64)" fill="#010101"/>
      <path id="パス_2526" data-name="パス 2526" d="M191.736,87.2a.54.54,0,0,0-.148-.388,1.058,1.058,0,0,0-.157-.045c-.353-.062-.486.361-.325.579A.34.34,0,0,0,191.736,87.2Z" transform="translate(-151.826 -74.297)" fill="#010101"/>
      <path id="パス_2527" data-name="パス 2527" d="M200.457,77.2c-.1.065.009.369.248.448.154.051.144-.138.092-.234a.62.62,0,0,0-.189-.189C200.576,77.205,200.5,77.169,200.457,77.2Z" transform="translate(-154.992 -71.064)" fill="#010101"/>
      <path id="パス_2528" data-name="パス 2528" d="M188.1,91.121a.338.338,0,0,0-.112-.252.32.32,0,0,0-.2-.108.286.286,0,0,0-.15.494C187.871,91.513,188.09,91.323,188.1,91.121Z" transform="translate(-150.648 -75.646)" fill="#010101"/>
      <path id="パス_2529" data-name="パス 2529" d="M197.756,79.6a.3.3,0,0,0-.14-.2.226.226,0,0,0-.135-.048c-.124.011-.254.256-.027.435C197.659,79.945,197.773,79.736,197.756,79.6Z" transform="translate(-153.949 -71.793)" fill="#010101"/>
      <path id="パス_2530" data-name="パス 2530" d="M186.3,92.488a.359.359,0,0,0-.126-.051c-.144-.021-.262.18-.115.364.184.229.359.113.372-.042A.406.406,0,0,0,186.3,92.488Z" transform="translate(-150.122 -76.212)" fill="#010101"/>
      <path id="パス_2531" data-name="パス 2531" d="M200.53,75.953c.075,0,.061-.084,0-.16a.6.6,0,0,0-.174-.142c-.019-.009-.065-.03-.089-.009s-.027.075.042.157C200.413,75.921,200.487,75.95,200.53,75.953Z" transform="translate(-154.936 -70.539)" fill="#010101"/>
      <path id="パス_2532" data-name="パス 2532" d="M201.774,75.416c.061,0,0-.105-.078-.174a.851.851,0,0,0-.191-.131c-.024-.007-.068-.023-.085-.009C201.357,75.152,201.659,75.419,201.774,75.416Z" transform="translate(-155.328 -70.359)" fill="#010101"/>
      <path id="パス_2533" data-name="パス 2533" d="M198.285,77.99c.162.086.224-.038.184-.16a.433.433,0,0,0-.156-.191.492.492,0,0,0-.113.011C198.1,77.686,198.138,77.913,198.285,77.99Z" transform="translate(-154.225 -71.217)" fill="#010101"/>
      <path id="パス_2534" data-name="パス 2534" d="M186.149,97.238c-.1-.076-.159-.081-.191-.072-.111.031-.064.234.159.355.119.064.206.011.173-.105A.393.393,0,0,0,186.149,97.238Z" transform="translate(-150.092 -77.807)" fill="#010101"/>
      <path id="パス_2535" data-name="パス 2535" d="M202.648,74.863c.046-.006-.052-.109-.14-.175a.886.886,0,0,0-.2-.113c-.017-.005-.054-.016-.064-.006C202.2,74.609,202.562,74.873,202.648,74.863Z" transform="translate(-155.608 -70.179)" fill="#010101"/>
      <path id="パス_2536" data-name="パス 2536" d="M193.342,81.836a.151.151,0,0,0,.111-.147.253.253,0,0,0-.069-.2.132.132,0,0,0-.081-.038.205.205,0,0,0-.146.351A.148.148,0,0,0,193.342,81.836Z" transform="translate(-152.522 -72.504)" fill="#010101"/>
      <path id="パス_2537" data-name="パス 2537" d="M202.869,74.212s.044-.013-.156-.14a.927.927,0,0,0-.163-.089c-.036-.013-.046-.009-.048-.005A.969.969,0,0,0,202.869,74.212Z" transform="translate(-155.695 -69.979)" fill="#010101"/>
      <path id="パス_2538" data-name="パス 2538" d="M185.09,94.115a.208.208,0,0,0-.138-.064c-.145.007-.133.213.02.339a.153.153,0,0,0,.158.038c.037-.014.072-.027.062-.123h0A.314.314,0,0,0,185.09,94.115Z" transform="translate(-149.737 -76.757)" fill="#010101"/>
      <path id="パス_2539" data-name="パス 2539" d="M191.554,83.563c.085-.03.118-.074.132-.18a.194.194,0,0,0-.168-.231c-.154-.015-.261.219-.16.347A.173.173,0,0,0,191.554,83.563Z" transform="translate(-151.921 -73.078)" fill="#010101"/>
      <path id="パス_2540" data-name="パス 2540" d="M189.768,85.41a.176.176,0,0,0,.138-.172.206.206,0,0,0-.04-.19.219.219,0,0,0-.121-.064c-.184-.032-.261.235-.176.35A.2.2,0,0,0,189.768,85.41Z" transform="translate(-151.319 -73.695)" fill="#010101"/>
    </g>
    <g id="グループ_273" data-name="グループ 273" transform="translate(85.031 50.512)">
      <path id="パス_2541" data-name="パス 2541" d="M260.538,149.689V145.92a1.627,1.627,0,1,1,3.248,0v.741h-1.043v-.811c0-.461-.22-.652-.552-.652s-.551.191-.551.652v3.919c0,.461.221.642.551.642s.552-.181.552-.642v-1.022h1.043v.942a1.627,1.627,0,1,1-3.248,0Z" transform="translate(-260.317 -144.196)" fill="#010101"/>
      <path id="パス_2542" data-name="パス 2542" d="M267.028,144.348h1.634c1.143,0,1.634.531,1.634,1.614v.431c0,.721-.231,1.183-.721,1.383v.02c.552.171.731.692.731,1.484v1.233a2.069,2.069,0,0,0,.121.852H269.3a2.135,2.135,0,0,1-.1-.863v-1.282c0-.651-.19-.862-.692-.862h-.38v3.007h-1.1Zm1.5,3.007c.411,0,.661-.181.661-.742v-.541c0-.5-.17-.721-.561-.721h-.5v2Z" transform="translate(-262.508 -144.247)" fill="#010101"/>
      <path id="パス_2543" data-name="パス 2543" d="M275.759,149.991h-1.273l-.19,1.373h-1.023l1.143-7.016h1.494l1.143,7.016h-1.1Zm-.14-.953-.5-3.537-.491,3.537Z" transform="translate(-264.616 -144.247)" fill="#010101"/>
      <path id="パス_2544" data-name="パス 2544" d="M280.005,150.381l2.044-5.031h-1.944v-1h3.127v.982l-2.044,5.031h2.044v1h-3.227Z" transform="translate(-266.889 -144.247)" fill="#010101"/>
      <path id="パス_2545" data-name="パス 2545" d="M287.222,148.377l-1.333-4.029h1.172l.762,2.616.762-2.616h1.072l-1.333,4.029v2.987h-1.1Z" transform="translate(-268.875 -144.247)" fill="#010101"/>
      <path id="パス_2546" data-name="パス 2546" d="M260.66,161.154h1.1v7.016h-1.1Z" transform="translate(-260.359 -149.92)" fill="#010101"/>
      <path id="パス_2547" data-name="パス 2547" d="M264.169,161.154h1.363l1.112,4.2v-4.2h.982v7.016h-1.112l-1.363-5.122v5.122h-.982Z" transform="translate(-261.543 -149.92)" fill="#010101"/>
      <path id="パス_2548" data-name="パス 2548" d="M271.231,161.154h1.684c1.1,0,1.644.611,1.644,1.734v3.549c0,1.122-.542,1.734-1.644,1.734h-1.684Zm1.663,6.014c.351,0,.562-.18.562-.682v-3.648c0-.5-.211-.681-.562-.681h-.561v5.011Z" transform="translate(-263.927 -149.92)" fill="#010101"/>
      <path id="パス_2549" data-name="パス 2549" d="M277.857,166.455v-3.688a1.676,1.676,0,1,1,3.347,0v3.688a1.676,1.676,0,1,1-3.347,0Zm2.245.07V162.7c0-.5-.221-.692-.571-.692s-.572.19-.572.692v3.828c0,.5.221.692.572.692S280.1,167.027,280.1,166.525Z" transform="translate(-266.164 -149.869)" fill="#010101"/>
      <path id="パス_2550" data-name="パス 2550" d="M284.512,166.455v-3.688a1.676,1.676,0,1,1,3.347,0v3.688a1.676,1.676,0,1,1-3.347,0Zm2.245.07V162.7c0-.5-.221-.692-.57-.692s-.572.19-.572.692v3.828c0,.5.221.692.572.692S286.757,167.027,286.757,166.525Z" transform="translate(-268.41 -149.869)" fill="#010101"/>
      <path id="パス_2551" data-name="パス 2551" d="M291.287,161.154h1.634c1.143,0,1.633.531,1.633,1.614v.431c0,.721-.23,1.182-.721,1.382v.021c.551.171.731.692.731,1.483v1.233a2.068,2.068,0,0,0,.12.851h-1.122a2.137,2.137,0,0,1-.1-.862v-1.283c0-.651-.191-.861-.692-.861h-.381v3.006h-1.1Zm1.5,3.007c.411,0,.661-.18.661-.741v-.541c0-.5-.17-.721-.561-.721h-.5v2Z" transform="translate(-270.697 -149.92)" fill="#010101"/>
      <path id="パス_2552" data-name="パス 2552" d="M300.89,166.455v-3.688c0-1.123.561-1.764,1.644-1.764s1.644.641,1.644,1.764v.6h-1.043V162.7c0-.5-.221-.692-.57-.692s-.572.19-.572.692v3.839c0,.5.221.682.572.682s.57-.18.57-.682v-1.373h-.551v-1h1.594v2.3c0,1.122-.561,1.763-1.644,1.763S300.89,167.578,300.89,166.455Z" transform="translate(-273.939 -149.869)" fill="#010101"/>
      <path id="パス_2553" data-name="パス 2553" d="M307.426,166.455v-3.688a1.676,1.676,0,1,1,3.347,0v3.688a1.676,1.676,0,1,1-3.347,0Zm2.245.07V162.7c0-.5-.221-.692-.571-.692s-.572.19-.572.692v3.828c0,.5.221.692.572.692S309.671,167.027,309.671,166.525Z" transform="translate(-276.145 -149.869)" fill="#010101"/>
      <path id="パス_2554" data-name="パス 2554" d="M314.2,161.154h1.1v6.014h1.814v1H314.2Z" transform="translate(-278.433 -149.92)" fill="#010101"/>
      <path id="パス_2555" data-name="パス 2555" d="M262.691,183.6h-1.273l-.191,1.373H260.2l1.143-7.016h1.494l1.143,7.016h-1.1Zm-.14-.953-.5-3.537-.492,3.537Z" transform="translate(-260.205 -155.594)" fill="#010101"/>
      <path id="パス_2556" data-name="パス 2556" d="M267.3,177.961h1.1v7.016h-1.1Z" transform="translate(-262.6 -155.594)" fill="#010101"/>
      <path id="パス_2557" data-name="パス 2557" d="M270.445,183.994l2.044-5.031h-1.944v-1h3.127v.982l-2.044,5.031h2.044v1h-3.227Z" transform="translate(-263.662 -155.594)" fill="#010101"/>
      <path id="パス_2558" data-name="パス 2558" d="M276.767,183.313v-5.352h1.1v5.432c0,.5.211.682.561.682s.562-.181.562-.682v-5.432h1.062v5.352c0,1.123-.561,1.764-1.644,1.764S276.767,184.436,276.767,183.313Z" transform="translate(-265.796 -155.594)" fill="#010101"/>
    </g>
    <g id="グループ_274" data-name="グループ 274" transform="translate(124.633 50.277)">
      <path id="パス_2559" data-name="パス 2559" d="M328.27,150.291c-2.14,1.781-4.279-1.781-6.419,0v-5.936c2.14-1.781,4.279,1.781,6.419,0Z" transform="translate(-320.617 -143.841)" fill="#e20012"/>
      <path id="パス_2560" data-name="パス 2560" d="M323.054,160.985c-.364,0-.71.019-1.033.047v-17.16h-1.1V161.2c-.572.138-.93.331-.93.545s.358.407.93.545v.046h.226a9.951,9.951,0,0,0,1.91.17c1.693,0,3.066-.34,3.066-.761S324.747,160.985,323.054,160.985Z" transform="translate(-319.988 -143.851)" fill="#010101"/>
    </g>
  </g>
  <g id="グループ_276" data-name="グループ 276" transform="translate(0 18.487)">
    <path id="パス_2561" data-name="パス 2561" d="M162.67,171.036c-41.86-.127-75.739-18.478-75.671-40.989.044-14.4,13.985-27.01,34.981-34.195-28.758,5.861-49.375,21.664-49.432,40.316-.072,23.74,33.177,43.087,74.264,43.211,22.137.068,42.008-5.472,55.663-14.3A127.3,127.3,0,0,1,162.67,171.036Z" transform="translate(-72.548 -95.852)" fill="url(#linear-gradient)"/>
  </g>
</svg>
