<svg xmlns="http://www.w3.org/2000/svg" xmlns:xlink="http://www.w3.org/1999/xlink" width="258.993" height="154" viewBox="0 0 258.993 154">
  <defs>
    <linearGradient id="linear-gradient" x1="-0.054" y1="0.955" x2="0.783" y2="0.481" gradientUnits="objectBoundingBox">
      <stop offset="0.142" stop-color="#8abf1f"/>
      <stop offset="0.385" stop-color="#53894b"/>
      <stop offset="0.618" stop-color="#265d70"/>
      <stop offset="0.796" stop-color="#0a4287"/>
      <stop offset="0.9" stop-color="#003890"/>
    </linearGradient>
  </defs>
  <g id="top-_logo" data-name="top- logo" transform="translate(-72.548 -67.944)">
    <g id="グループ_275" data-name="グループ 275">
      <g id="グループ_272" data-name="グループ 272">
        <path id="パス_2467" data-name="パス 2467" d="M153.9,98.931c-14.428,0-22.051,8.712-22.051,23.413v51.18c0,14.7,7.623,23.412,22.051,23.412s22.051-8.711,22.051-23.412V160.729H161.79v13.884c0,6.261-2.995,8.712-7.487,8.712s-7.486-2.451-7.486-8.712V121.391c0-6.262,2.995-8.848,7.486-8.848s7.487,2.586,7.487,8.848v11.025h14.156V122.344C175.946,107.643,168.324,98.931,153.9,98.931Z" fill="#010101"/>
        <path id="パス_2468" data-name="パス 2468" d="M255.111,131.88v-8.4c0-15.685-7.843-24.649-22.969-24.649s-22.968,8.964-22.968,24.649v51.539c0,15.685,7.843,24.648,22.968,24.648s22.969-8.963,22.969-24.648V142.944H232.843v14.005h7.7v19.187c0,7-3.081,9.523-7.982,9.523s-7.983-2.521-7.983-9.523V122.5c0-7,3.081-9.664,7.983-9.664s7.982,2.661,7.982,9.664v9.383Z" fill="#010101"/>
        <path id="パス_2469" data-name="パス 2469" d="M181.673,101.959c-.516,1.855-.236,5.624.466,6.308,0,0,4.746,6.716,5.09,21.407s.351,57.539.351,57.539l5.1,11.884L197.8,187.1l.422-57.385a45.251,45.251,0,0,1,5.088-21.727c.951-3.786-.077-5.928-.077-5.928A49.287,49.287,0,0,1,181.673,101.959Z" fill="#010101"/>
        <path id="パス_2470" data-name="パス 2470" d="M192.56,67.944a16.674,16.674,0,1,0,16.674,16.674A16.693,16.693,0,0,0,192.56,67.944ZM177.306,84.618a15.24,15.24,0,0,1,26.879-9.853.986.986,0,0,0-.1-.059c-.043-.021-.057-.025-.066-.021-.009.037.217.232.413.377a15.187,15.187,0,0,1,3.106,6.713c-.236.144-.121.974.205,1.452.025.273.032.55.042.826a.422.422,0,0,0-.217-.089c-.491.012-.428,1.477.081,1.911a.441.441,0,0,0,.1.057c-.023.265-.059.526-.1.787a.941.941,0,0,0-.234-.321.455.455,0,0,0-.339-.13c-.433.059-.86,1.434-.174,2.045a.368.368,0,0,0,.413.1,15.17,15.17,0,0,1-1.975,4.505,2.332,2.332,0,0,0-.151.245,15.433,15.433,0,0,1-1.243,1.572,2.015,2.015,0,0,0-.474.521,15.351,15.351,0,0,1-3.621,2.759,1.156,1.156,0,0,0,.126-.236.493.493,0,0,0-.209-.627.893.893,0,0,0-.167-.086c-.77-.3-1.808.538-1.5,1.208a.649.649,0,0,0,.57.315c-.209.092-.424.172-.639.255a.6.6,0,0,0-.15-.132,1.087,1.087,0,0,0-.226-.1c-.578-.172-1.325.316-1.314.772a15.2,15.2,0,0,1-1.592.319.61.61,0,0,0,.133-.226c.043-.263-.2-.423-.308-.491a1.081,1.081,0,0,0-.391-.144c-.543-.084-1.075.375-.751.8a.938.938,0,0,0,.188.18c-.352.024-.7.054-1.063.054a15.162,15.162,0,0,1-4.049-.563.189.189,0,0,0,.1-.255.9.9,0,0,0-.325-.355c-.086-.044-.313-.159-.449-.1-.164.072-.132.369.277.607A15.279,15.279,0,0,1,177.306,84.618Z" fill="#010101"/>
        <path id="パス_2471" data-name="パス 2471" d="M204.969,90.889c-.784-.091-1.5,1.308-1,1.943.6.762,1.459-.167,1.572-.945a1.131,1.131,0,0,0-.257-.9A.924.924,0,0,0,204.969,90.889Z" fill="#010101"/>
        <path id="パス_2472" data-name="パス 2472" d="M203.379,93.284c-.878-.2-1.744,1.068-1.37,1.681.5.815,1.624.088,1.838-.741a.906.906,0,0,0-.209-.842A1.249,1.249,0,0,0,203.379,93.284Z" fill="#010101"/>
        <path id="パス_2473" data-name="パス 2473" d="M201.8,95.413a1.209,1.209,0,0,0-.153-.085c-.735-.309-1.91.721-1.592,1.395a.76.76,0,0,0,.9.38,1.492,1.492,0,0,0,1.06-.953A.585.585,0,0,0,201.8,95.413Z" fill="#010101"/>
        <path id="パス_2474" data-name="パス 2474" d="M206.135,88.52c-.615.007-1.157,1.477-.585,2.087.5.535,1.213-.1,1.249-1.105a.966.966,0,0,0-.291-.827A.57.57,0,0,0,206.135,88.52Z" fill="#010101"/>
        <path id="パス_2475" data-name="パス 2475" d="M205.282,88.058a1.084,1.084,0,0,0-.417-.8.824.824,0,0,0-.449-.118,1.142,1.142,0,0,0-.4,1.86C204.816,89.711,205.3,88.59,205.282,88.058Z" fill="#010101"/>
        <path id="パス_2476" data-name="パス 2476" d="M202.054,91.892a.971.971,0,0,0-.5-.189c-.7-.038-1.489,1.071-1,1.673.628.773,1.71.191,1.835-.74A.749.749,0,0,0,202.054,91.892Z" fill="#010101"/>
        <path id="パス_2477" data-name="パス 2477" d="M204,90.407a.921.921,0,0,0-.785-.972,1.194,1.194,0,0,0-.815,1.818C203.087,92.021,203.934,91.255,204,90.407Z" fill="#010101"/>
        <path id="パス_2478" data-name="パス 2478" d="M198.212,95.81a1.345,1.345,0,0,0-.355-.152c-.779-.2-1.521.658-1.216,1.168a1.047,1.047,0,0,0,1.844-.322A.675.675,0,0,0,198.212,95.81Z" fill="#010101"/>
        <path id="パス_2479" data-name="パス 2479" d="M200.542,94.7a.668.668,0,0,0-.321-.7,1.093,1.093,0,0,0-.4-.172c-.737-.142-1.575.864-1.2,1.435A1.1,1.1,0,0,0,200.542,94.7Z" fill="#010101"/>
        <path id="パス_2480" data-name="パス 2480" d="M196.239,97.586a1.177,1.177,0,0,0-.344-.151c-.686-.17-1.319.529-1.055.959a.99.99,0,0,0,.925.4.937.937,0,0,0,.769-.66h0A.539.539,0,0,0,196.239,97.586Z" fill="#010101"/>
        <path id="パス_2481" data-name="パス 2481" d="M206.16,85.685a.99.99,0,0,0-.4-.691.638.638,0,0,0-.444-.135c-.469.079-.819,1.269-.059,1.834C205.787,87.087,206.293,86.521,206.16,85.685Z" fill="#010101"/>
        <path id="パス_2482" data-name="パス 2482" d="M201.229,87.919a1.015,1.015,0,0,0-.669,1.726.937.937,0,0,0,1.53-.733.913.913,0,0,0-.439-.836A.953.953,0,0,0,201.229,87.919Z" fill="#010101"/>
        <path id="パス_2483" data-name="パス 2483" d="M195.815,94.163c-.649-.111-1.351.639-.945,1.223a.966.966,0,0,0,.97.388.836.836,0,0,0,.741-.73.7.7,0,0,0-.337-.7A1.132,1.132,0,0,0,195.815,94.163Z" fill="#010101"/>
        <path id="パス_2484" data-name="パス 2484" d="M196.77,93.7a.99.99,0,0,0,1.686-.523.813.813,0,0,0-.392-.819.985.985,0,0,0-.4-.17A.952.952,0,0,0,196.77,93.7Z" fill="#010101"/>
        <path id="パス_2485" data-name="パス 2485" d="M206.313,82.829a.494.494,0,0,0-.364-.1c-.472.105-.393,1.388.266,1.743.364.2.759-.191.524-1A1.1,1.1,0,0,0,206.313,82.829Z" fill="#010101"/>
        <path id="パス_2486" data-name="パス 2486" d="M199.761,92.033a1.18,1.18,0,0,0,.67-.909.874.874,0,0,0-.4-.8.992.992,0,0,0-.43-.177,1.013,1.013,0,0,0-.815,1.675A.9.9,0,0,0,199.761,92.033Z" fill="#010101"/>
        <path id="パス_2487" data-name="パス 2487" d="M193.99,95.919c-.522-.059-1.2.462-.724,1.083a.866.866,0,0,0,1.529-.257.7.7,0,0,0-.36-.655A1.006,1.006,0,0,0,193.99,95.919Z" fill="#010101"/>
        <path id="パス_2488" data-name="パス 2488" d="M202.494,85.7a.97.97,0,0,0-.344,1.678c.552.443,1.328.066,1.242-.834a.9.9,0,0,0-.408-.7A.809.809,0,0,0,202.494,85.7Z" fill="#010101"/>
        <path id="パス_2489" data-name="パス 2489" d="M192.8,97.64a1.045,1.045,0,0,0-.464-.17c-.411-.03-.922.406-.5.869.525.581,1.294.305,1.326-.176C193.164,98.037,193.108,97.843,192.8,97.64Z" fill="#010101"/>
        <path id="パス_2490" data-name="パス 2490" d="M206,80.634c-.328.145,0,1.318.559,1.511.467.163.33-.607.2-.9a1.191,1.191,0,0,0-.436-.523C206.25,80.676,206.1,80.588,206,80.634Z" fill="#010101"/>
        <path id="パス_2491" data-name="パス 2491" d="M203.442,85.109c.56.379,1.006-.182.875-.835a.943.943,0,0,0-.429-.617.626.626,0,0,0-.472-.124A.927.927,0,0,0,203.442,85.109Z" fill="#010101"/>
        <path id="パス_2492" data-name="パス 2492" d="M198.249,89.444a.953.953,0,0,0-.365-.76,1.12,1.12,0,0,0-.452-.168.86.86,0,0,0-.7,1.351A.833.833,0,0,0,198.249,89.444Z" fill="#010101"/>
        <path id="パス_2493" data-name="パス 2493" d="M191.387,95.406a.866.866,0,0,0,.765.319c.526-.1.548-.448.556-.577a.7.7,0,0,0-.322-.591,1,1,0,0,0-.465-.2A.62.62,0,0,0,191.387,95.406Z" fill="#010101"/>
        <path id="パス_2494" data-name="パス 2494" d="M193.678,92.536a.741.741,0,0,0-.689,1.138.8.8,0,0,0,1.478-.248.936.936,0,0,0-.386-.758A1.248,1.248,0,0,0,193.678,92.536Z" fill="#010101"/>
        <path id="パス_2495" data-name="パス 2495" d="M199.487,86.541a1.038,1.038,0,0,0-.446-.149.826.826,0,0,0-.555,1.355.774.774,0,0,0,1.389-.483A.89.89,0,0,0,199.487,86.541Z" fill="#010101"/>
        <path id="パス_2496" data-name="パス 2496" d="M191.455,98.959a.944.944,0,0,0-.594-.165c-.2.031-.613.326-.08.754.516.414,1.04.179,1-.19C191.757,99.155,191.545,99.018,191.455,98.959Z" fill="#010101"/>
        <path id="パス_2497" data-name="パス 2497" d="M200.835,84.381a.77.77,0,0,0-.459-.134.812.812,0,0,0-.237,1.441.7.7,0,0,0,1.13-.64A.828.828,0,0,0,200.835,84.381Z" fill="#010101"/>
        <path id="パス_2498" data-name="パス 2498" d="M201.419,83.511c.452.3.974.007.844-.656a.879.879,0,0,0-.417-.587.661.661,0,0,0-.421-.112C201,82.228,200.736,83.056,201.419,83.511Z" fill="#010101"/>
        <path id="パス_2499" data-name="パス 2499" d="M203.888,82.231a1.2,1.2,0,0,0,.526.744c.46.252.716-.252.549-.8a1.019,1.019,0,0,0-.457-.577.546.546,0,0,0-.39-.1C203.851,81.585,203.862,82.1,203.888,82.231Z" fill="#010101"/>
        <path id="パス_2500" data-name="パス 2500" d="M204.563,79.564a.443.443,0,0,0-.325-.074c-.3.113-.068,1.068.533,1.3.221.087.552-.1.248-.722A1.162,1.162,0,0,0,204.563,79.564Z" fill="#010101"/>
        <path id="パス_2501" data-name="パス 2501" d="M189.958,96.875a.9.9,0,0,0,.71.3c.448-.067.448-.34.448-.472a.652.652,0,0,0-.316-.525.982.982,0,0,0-.469-.188A.5.5,0,0,0,189.958,96.875Z" fill="#010101"/>
        <path id="パス_2502" data-name="パス 2502" d="M205.653,78.659c-.221.142.293,1.193.752,1.291.142.031.3-.2-.043-.755a1.344,1.344,0,0,0-.461-.482C205.843,78.681,205.722,78.614,205.653,78.659Z" fill="#010101"/>
        <path id="パス_2503" data-name="パス 2503" d="M194.773,91.8a.826.826,0,0,0,1.529-.366.88.88,0,0,0-.337-.724,1.156,1.156,0,0,0-.455-.19A.837.837,0,0,0,194.773,91.8Z" fill="#010101"/>
        <path id="パス_2504" data-name="パス 2504" d="M202.986,80.7a1,1,0,0,0-.436-.515.509.509,0,0,0-.328-.081c-.411.085-.279.894.193,1.185C202.83,81.546,203.161,81.205,202.986,80.7Z" fill="#010101"/>
        <path id="パス_2505" data-name="パス 2505" d="M194.1,89.579a.857.857,0,0,0-.265-.676.974.974,0,0,0-.384-.16.687.687,0,0,0-.6,1.1A.675.675,0,0,0,194.1,89.579Z" fill="#010101"/>
        <path id="パス_2506" data-name="パス 2506" d="M195.873,87.53a.768.768,0,0,0-.32-.687.677.677,0,0,0-.334-.144.707.707,0,0,0-.531,1.2A.678.678,0,0,0,195.873,87.53Z" fill="#010101"/>
        <path id="パス_2507" data-name="パス 2507" d="M196.609,85.768a.629.629,0,0,0,1.131-.41.725.725,0,0,0-.322-.6.647.647,0,0,0-.809,1.009Z" fill="#010101"/>
        <path id="パス_2508" data-name="パス 2508" d="M204.184,77.716c-.065-.032-.184-.091-.246-.045-.1.07.015.4.139.581a1.075,1.075,0,0,0,.575.452c.227.04.168-.317-.041-.614A1.213,1.213,0,0,0,204.184,77.716Z" fill="#010101"/>
        <path id="パス_2509" data-name="パス 2509" d="M198.164,83.708c.577.5.933-.1.921-.414a.828.828,0,0,0-.349-.564.7.7,0,0,0-.336-.1A.607.607,0,0,0,198.164,83.708Z" fill="#010101"/>
        <path id="パス_2510" data-name="パス 2510" d="M205.757,77.869c.148,0-.032-.359-.223-.586a1.681,1.681,0,0,0-.391-.336c-.058-.029-.166-.084-.207-.048-.064.055.111.375.3.6A1.117,1.117,0,0,0,205.757,77.869Z" fill="#010101"/>
        <path id="パス_2511" data-name="パス 2511" d="M200.119,81.213a.684.684,0,0,0-.318-.434.512.512,0,1,0-.377.907C199.881,81.994,200.2,81.605,200.119,81.213Z" fill="#010101"/>
        <path id="パス_2512" data-name="パス 2512" d="M202.644,78.324c-.073-.038-.208-.108-.3-.066-.22.1-.039.834.522,1.009.305.1.32-.269.168-.556A.944.944,0,0,0,202.644,78.324Z" fill="#010101"/>
        <path id="パス_2513" data-name="パス 2513" d="M189.473,93.545c.5.588,1.043.23,1.064-.207a.677.677,0,0,0-.287-.528.707.707,0,0,0-.388-.179A.543.543,0,0,0,189.473,93.545Z" fill="#010101"/>
        <path id="パス_2514" data-name="パス 2514" d="M192.288,91.49a.7.7,0,0,0-.268-.561.745.745,0,0,0-.458-.2.657.657,0,0,0-.375,1.155A.627.627,0,0,0,192.288,91.49Z" fill="#010101"/>
        <path id="パス_2515" data-name="パス 2515" d="M188.15,95.216c.475.427.832.051.818-.225a.8.8,0,0,0-.231-.441.818.818,0,0,0-.463-.2C187.979,94.36,187.663,94.779,188.15,95.216Z" fill="#010101"/>
        <path id="パス_2516" data-name="パス 2516" d="M189.3,97.5a.891.891,0,0,0-.481-.155c-.245.025-.495.364-.036.73.578.46.864.086.834-.146A.784.784,0,0,0,189.3,97.5Z" fill="#010101"/>
        <path id="パス_2517" data-name="パス 2517" d="M203.918,76.667c.169.01.019-.251-.158-.434a1.875,1.875,0,0,0-.435-.325c-.04-.009-.122-.029-.159,0C203.017,76.01,203.649,76.652,203.918,76.667Z" fill="#010101"/>
        <path id="パス_2518" data-name="パス 2518" d="M204.729,76.069c.068,0,.007-.105-.036-.168a1.2,1.2,0,0,0-.258-.265,1.451,1.451,0,0,0-.336-.236c-.073-.034-.126-.043-.141-.025C203.883,75.466,204.553,76.069,204.729,76.069Z" fill="#010101"/>
        <path id="パス_2519" data-name="パス 2519" d="M196.95,81.608a.488.488,0,0,0-.2-.356.507.507,0,0,0-.28-.112c-.319-.006-.505.512-.2.8A.391.391,0,0,0,196.95,81.608Z" fill="#010101"/>
        <path id="パス_2520" data-name="パス 2520" d="M195.3,84.024a.392.392,0,0,0,.289-.422.59.59,0,0,0-.219-.479.434.434,0,0,0-.226-.1.508.508,0,0,0-.34.894A.409.409,0,0,0,195.3,84.024Z" fill="#010101"/>
        <path id="パス_2521" data-name="パス 2521" d="M186.834,95.784c-.248.029-.3.431.071.7.408.3.624.065.585-.173a.779.779,0,0,0-.259-.4A.753.753,0,0,0,186.834,95.784Z" fill="#010101"/>
        <path id="パス_2522" data-name="パス 2522" d="M189.8,89.907a.411.411,0,0,0,.348-.424.544.544,0,0,0-.155-.483.584.584,0,0,0-.336-.166c-.415-.047-.651.538-.356.882A.508.508,0,0,0,189.8,89.907Z" fill="#010101"/>
        <path id="パス_2523" data-name="パス 2523" d="M200.248,79.683c.268.177.63.016.482-.409a.767.767,0,0,0-.337-.4.422.422,0,0,0-.26-.068c-.168.03-.218.241-.2.38A.952.952,0,0,0,200.248,79.683Z" fill="#010101"/>
        <path id="パス_2524" data-name="パス 2524" d="M202.668,77.338c.136.019.133-.108.131-.133-.007-.088-.01-.127-.166-.319a1,1,0,0,0-.331-.279c-.113-.055-.2-.067-.242-.032C201.918,76.7,202.337,77.293,202.668,77.338Z" fill="#010101"/>
        <path id="パス_2525" data-name="パス 2525" d="M193.508,85.9c.319-.123.325-.261.336-.49a.517.517,0,0,0-.172-.443.556.556,0,0,0-.37-.152.563.563,0,0,0-.342.937A.489.489,0,0,0,193.508,85.9Z" fill="#010101"/>
        <path id="パス_2526" data-name="パス 2526" d="M192.092,87.428a.815.815,0,0,0-.223-.586,1.6,1.6,0,0,0-.237-.068c-.533-.093-.734.545-.491.874A.513.513,0,0,0,192.092,87.428Z" fill="#010101"/>
        <path id="パス_2527" data-name="パス 2527" d="M200.476,77.2c-.155.1.014.557.375.676.232.077.217-.208.139-.353a.936.936,0,0,0-.286-.286C200.656,77.215,200.542,77.16,200.476,77.2Z" fill="#010101"/>
        <path id="パス_2528" data-name="パス 2528" d="M188.381,91.3a.511.511,0,0,0-.169-.38.483.483,0,0,0-.3-.163.432.432,0,0,0-.226.746C188.034,91.9,188.366,91.61,188.381,91.3Z" fill="#010101"/>
        <path id="パス_2529" data-name="パス 2529" d="M197.973,79.729a.459.459,0,0,0-.212-.308.341.341,0,0,0-.2-.073c-.187.016-.383.387-.041.657C197.827,80.25,198,79.934,197.973,79.729Z" fill="#010101"/>
        <path id="パス_2530" data-name="パス 2530" d="M186.456,92.515a.541.541,0,0,0-.19-.077c-.218-.031-.4.271-.173.55.277.346.542.171.561-.064A.613.613,0,0,0,186.456,92.515Z" fill="#010101"/>
        <path id="パス_2531" data-name="パス 2531" d="M200.672,76.116c.113.007.092-.127,0-.242a.907.907,0,0,0-.262-.214c-.029-.014-.1-.045-.134-.014s-.041.113.064.237C200.494,76.068,200.606,76.112,200.672,76.116Z" fill="#010101"/>
        <path id="パス_2532" data-name="パス 2532" d="M201.959,75.579c.092,0-.006-.159-.117-.263a1.286,1.286,0,0,0-.289-.2c-.036-.011-.1-.034-.129-.014C201.33,75.18,201.785,75.583,201.959,75.579Z" fill="#010101"/>
        <path id="パス_2533" data-name="パス 2533" d="M198.356,78.169c.245.13.338-.057.278-.241a.653.653,0,0,0-.236-.289.744.744,0,0,0-.17.017C198.079,77.71,198.134,78.052,198.356,78.169Z" fill="#010101"/>
        <path id="パス_2534" data-name="パス 2534" d="M186.276,97.277c-.151-.115-.24-.123-.288-.109-.167.047-.1.354.24.536.179.1.311.016.261-.159A.594.594,0,0,0,186.276,97.277Z" fill="#010101"/>
        <path id="パス_2535" data-name="パス 2535" d="M202.854,75.015c.069-.009-.078-.164-.211-.264a1.338,1.338,0,0,0-.3-.171c-.026-.008-.082-.024-.1-.009C202.182,74.632,202.725,75.03,202.854,75.015Z" fill="#010101"/>
        <path id="パス_2536" data-name="パス 2536" d="M193.466,82.032a.227.227,0,0,0,.168-.222.381.381,0,0,0-.1-.3.2.2,0,0,0-.123-.057.31.31,0,0,0-.22.53A.223.223,0,0,0,193.466,82.032Z" fill="#010101"/>
        <path id="パス_2537" data-name="パス 2537" d="M203.057,74.333s.066-.02-.236-.212a1.4,1.4,0,0,0-.246-.134c-.054-.019-.069-.014-.073-.008A1.463,1.463,0,0,0,203.057,74.333Z" fill="#010101"/>
        <path id="パス_2538" data-name="パス 2538" d="M185.213,94.148a.314.314,0,0,0-.209-.1c-.219.01-.2.321.03.511a.231.231,0,0,0,.238.058c.056-.021.108-.041.094-.185h0A.474.474,0,0,0,185.213,94.148Z" fill="#010101"/>
        <path id="パス_2539" data-name="パス 2539" d="M191.674,83.773c.129-.045.178-.111.2-.271a.293.293,0,0,0-.254-.349c-.232-.022-.394.33-.241.524A.261.261,0,0,0,191.674,83.773Z" fill="#010101"/>
        <path id="パス_2540" data-name="パス 2540" d="M189.887,85.628a.266.266,0,0,0,.209-.26.311.311,0,0,0-.061-.287.331.331,0,0,0-.182-.1c-.278-.049-.394.355-.266.528A.3.3,0,0,0,189.887,85.628Z" fill="#010101"/>
      </g>
      <g id="グループ_273" data-name="グループ 273">
        <path id="パス_2541" data-name="パス 2541" d="M260.538,152.488V146.8a2.456,2.456,0,1,1,4.9,0v1.119h-1.574v-1.225c0-.7-.332-.984-.833-.984s-.832.288-.832.984v5.916c0,.7.333.969.832.969s.833-.273.833-.969v-1.543h1.574v1.422a2.456,2.456,0,1,1-4.9,0Z" fill="#010101"/>
        <path id="パス_2542" data-name="パス 2542" d="M267.028,144.348h2.466c1.725,0,2.466.8,2.466,2.436v.65c0,1.089-.348,1.786-1.089,2.088v.03c.833.258,1.1,1.044,1.1,2.24v1.861a3.122,3.122,0,0,0,.183,1.286h-1.694a3.221,3.221,0,0,1-.153-1.3V151.7c0-.983-.287-1.3-1.044-1.3h-.574v4.539h-1.664Zm2.269,4.539c.621,0,1-.273,1-1.12v-.817c0-.757-.257-1.089-.847-1.089h-.756v3.026Z" fill="#010101"/>
        <path id="パス_2543" data-name="パス 2543" d="M277.026,152.866H275.1l-.287,2.073h-1.544L275,144.348h2.255l1.725,10.591h-1.665Zm-.212-1.438-.756-5.34-.742,5.34Z" fill="#010101"/>
        <path id="パス_2544" data-name="パス 2544" d="M280.005,153.456l3.086-7.6h-2.935v-1.513h4.72v1.483l-3.085,7.6h3.085v1.513h-4.871Z" fill="#010101"/>
        <path id="パス_2545" data-name="パス 2545" d="M287.9,150.43l-2.012-6.082h1.769l1.151,3.949,1.15-3.949h1.619l-2.013,6.082v4.509H287.9Z" fill="#010101"/>
        <path id="パス_2546" data-name="パス 2546" d="M260.66,161.154h1.664v10.591H260.66Z" fill="#010101"/>
        <path id="パス_2547" data-name="パス 2547" d="M264.169,161.154h2.058l1.679,6.34v-6.34h1.482v10.591h-1.679l-2.058-7.732v7.732h-1.482Z" fill="#010101"/>
        <path id="パス_2548" data-name="パス 2548" d="M271.231,161.154h2.542c1.664,0,2.482.923,2.482,2.617v5.357c0,1.694-.818,2.617-2.482,2.617h-2.542Zm2.511,9.078c.53,0,.849-.272.849-1.029V163.7c0-.757-.319-1.028-.849-1.028h-.847v7.564Z" fill="#010101"/>
        <path id="パス_2549" data-name="パス 2549" d="M277.857,169.234v-5.568a2.53,2.53,0,1,1,5.053,0v5.568a2.53,2.53,0,1,1-5.053,0Zm3.389.105V163.56c0-.757-.333-1.044-.862-1.044s-.863.287-.863,1.044v5.779c0,.757.333,1.045.863,1.045S281.246,170.1,281.246,169.339Z" fill="#010101"/>
        <path id="パス_2550" data-name="パス 2550" d="M284.512,169.234v-5.568a2.53,2.53,0,1,1,5.053,0v5.568a2.53,2.53,0,1,1-5.053,0Zm3.389.105V163.56c0-.757-.333-1.044-.861-1.044s-.864.287-.864,1.044v5.779c0,.757.333,1.045.864,1.045S287.9,170.1,287.9,169.339Z" fill="#010101"/>
        <path id="パス_2551" data-name="パス 2551" d="M291.287,161.154h2.467c1.725,0,2.465.8,2.465,2.436v.651c0,1.089-.348,1.785-1.088,2.087v.031c.832.258,1.1,1.044,1.1,2.239v1.862a3.122,3.122,0,0,0,.181,1.285h-1.694a3.227,3.227,0,0,1-.152-1.3v-1.937c0-.983-.288-1.3-1.044-1.3h-.575v4.538h-1.664Zm2.27,4.539c.62,0,1-.272,1-1.119v-.817c0-.757-.256-1.089-.847-1.089h-.757v3.025Z" fill="#010101"/>
        <path id="パス_2552" data-name="パス 2552" d="M300.89,169.234v-5.568c0-1.7.847-2.663,2.482-2.663s2.481.968,2.481,2.663v.908h-1.574V163.56c0-.757-.333-1.044-.861-1.044s-.864.287-.864,1.044v5.795c0,.757.334,1.029.864,1.029s.861-.272.861-1.029v-2.073h-.832v-1.513h2.406v3.465c0,1.694-.847,2.662-2.481,2.662S300.89,170.928,300.89,169.234Z" fill="#010101"/>
        <path id="パス_2553" data-name="パス 2553" d="M307.426,169.234v-5.568a2.53,2.53,0,1,1,5.053,0v5.568a2.53,2.53,0,1,1-5.053,0Zm3.389.105V163.56c0-.757-.333-1.044-.862-1.044s-.863.287-.863,1.044v5.779c0,.757.333,1.045.863,1.045S310.815,170.1,310.815,169.339Z" fill="#010101"/>
        <path id="パス_2554" data-name="パス 2554" d="M314.2,161.154h1.665v9.078h2.739v1.513h-4.4Z" fill="#010101"/>
        <path id="パス_2555" data-name="パス 2555" d="M263.958,186.479h-1.921l-.288,2.073H260.2l1.725-10.591h2.255l1.725,10.591h-1.664Zm-.211-1.438-.757-5.34-.742,5.34Z" fill="#010101"/>
        <path id="パス_2556" data-name="パス 2556" d="M267.3,177.961h1.664v10.591H267.3Z" fill="#010101"/>
        <path id="パス_2557" data-name="パス 2557" d="M270.445,187.069l3.085-7.6H270.6v-1.513h4.72v1.483l-3.086,7.6h3.086v1.513h-4.871Z" fill="#010101"/>
        <path id="パス_2558" data-name="パス 2558" d="M276.767,186.04v-8.079h1.664v8.2c0,.757.318,1.03.847,1.03s.849-.273.849-1.03v-8.2h1.6v8.079c0,1.7-.847,2.663-2.482,2.663S276.767,187.735,276.767,186.04Z" fill="#010101"/>
      </g>
      <g id="グループ_274" data-name="グループ 274">
        <path id="パス_2559" data-name="パス 2559" d="M331.541,153.578c-3.23,2.688-6.46-2.688-9.69,0v-8.961c3.23-2.689,6.46,2.688,9.69,0Z" fill="#e20012"/>
        <path id="パス_2560" data-name="パス 2560" d="M324.616,169.705c-.55,0-1.071.028-1.56.071v-25.9h-1.664v26.159c-.864.209-1.4.5-1.4.822s.54.614,1.4.823v.069h.341a15.023,15.023,0,0,0,2.883.257c2.556,0,4.628-.514,4.628-1.149S327.172,169.705,324.616,169.705Z" fill="#010101"/>
      </g>
    </g>
    <g id="グループ_276" data-name="グループ 276">
      <path id="パス_2561" data-name="パス 2561" d="M208.6,209.348C145.4,209.156,94.26,181.454,94.364,147.472c.066-21.742,21.112-40.774,52.806-51.62-43.413,8.848-74.536,32.7-74.622,60.86-.109,35.838,50.083,65.043,112.107,65.231,33.418.1,63.415-8.261,84.028-21.584C251.205,206.112,230.633,209.415,208.6,209.348Z" fill="url(#linear-gradient)"/>
    </g>
  </g>
</svg>
